SplineFontDB: 3.0
FontName: Jost-Thin
FullName: Jost* 200 Thin
FamilyName: Jost* Thin
Weight: Thin
Copyright: This typeface is licensed under the SIL open font license.
UComments: "2018-6-8: Created with FontForge (http://fontforge.org)"
Version: 003.300
ItalicAngle: 0
UnderlinePosition: -100
UnderlineWidth: 50
Ascent: 800
Descent: 200
InvalidEm: 0
LayerCount: 2
Layer: 0 0 "Back" 1
Layer: 1 0 "Fore" 0
XUID: [1021 69 1495626776 15919582]
FSType: 0
OS2Version: 0
OS2_WeightWidthSlopeOnly: 0
OS2_UseTypoMetrics: 0
CreationTime: 1528481165
ModificationTime: 1563287493
PfmFamily: 17
TTFWeight: 200
TTFWidth: 5
LineGap: 100
VLineGap: 0
OS2TypoAscent: 825
OS2TypoAOffset: 0
OS2TypoDescent: -225
OS2TypoDOffset: 0
OS2TypoLinegap: 100
OS2WinAscent: 900
OS2WinAOffset: 0
OS2WinDescent: 300
OS2WinDOffset: 0
HheadAscent: 1030
HheadAOffset: 0
HheadDescent: -350
HheadDOffset: 0
OS2CapHeight: 700
OS2XHeight: 460
OS2Vendor: 'PfEd'
Lookup: 1 0 0 "alt a" { "alt a"  } ['ss01' ('DFLT' <'dflt' > 'latn' <'dflt' > ) ]
Lookup: 1 0 0 "Tabular Numbers lookup" { "Tabular Numbers lookup"  } ['tnum' ('DFLT' <'dflt' > 'grek' <'dflt' > 'latn' <'dflt' > ) ]
Lookup: 258 0 0 "Lets get our kern on" { "kernin like nobodys business" [150,0,4] } ['kern' ('DFLT' <'dflt' > 'latn' <'dflt' > ) ]
MarkAttachClasses: 1
DEI: 91125
KernClass2: 16 14 "kernin like nobodys business"
 43 slash seven V W Wcircumflex uni040E uni0423
 175 quotedbl quotesingle asterisk grave dieresis ordfeminine macron degree acute ordmasculine circumflex breve dotaccent ring tilde quoteleft quoteright quotedblleft quotedblright
 25 nine question F P uni0420
 131 A L backslash Agrave Aacute Acircumflex Atilde Adieresis Aring Amacron Abreve Aogonek Lacute uni013B Lslash uni0410 uni0414 uni041C
 58 three eight B C germandbls uni0411 uni0412 uni0417 uni0421
 29 K X Z uni0416 uni041A uni0425

StartChar: H
Encoding: 72 72 0
Width: 627
VWidth: 0
Flags: HMW
LayerCount: 2
Fore
SplineSet
168 366 m 1
 178 397 l 1
 617.5 397 l 1
 607.5 366 l 1
 168 366 l 1
699 699 m 1
 733 699.5 l 1
 491 0 l 1
 460 0 l 1
 699 699 l 1
266 699 m 1
 299.5 699.5 l 1
 58.5 0 l 1
 27 0 l 1
 266 699 l 1
EndSplineSet
EndChar

StartChar: O
Encoding: 79 79 1
Width: 732
VWidth: 0
Flags: HMW
LayerCount: 2
Fore
SplineSet
143 350 m 0
 92.5 203.5 137 26.5 318 25 c 0
 503 23.5 663.5 185 720.5 350 c 0
 771 496.5 726.5 673.5 545.5 675 c 0
 360.5 676.5 200 515 143 350 c 0
108.5 350 m 0
 169.5 534 348 709.5 551 708.5 c 0
 749.5 707.5 809.5 514.5 755 350 c 0
 694 166 515.5 -9.5 312.5 -8.5 c 0
 114 -7.5 54 185.5 108.5 350 c 0
EndSplineSet
EndChar

StartChar: I
Encoding: 73 73 2
Width: 187
VWidth: 0
Flags: HMW
LayerCount: 2
Fore
SplineSet
263.5 699.5 m 1
 296 699.5 l 1
 54 0 l 1
 23.5 0 l 1
 263.5 699.5 l 1
EndSplineSet
EndChar

StartChar: C
Encoding: 67 67 3
Width: 644
VWidth: 0
Flags: HMW
LayerCount: 2
Fore
SplineSet
143.5 350 m 0
 94 206.5 134 29.5 312.5 26.5 c 0
 403 25 484.5 64.5 557.5 113.5 c 1
 543 69.5 l 1
 470.5 24 392.5 -9 306 -8 c 0
 108.5 -6 54 187.5 108.5 350 c 0
 169.5 533.5 343 706.5 545.5 708.5 c 0
 621 709.5 681.5 684 733.5 630 c 1
 719 586 l 1
 675 647 614 675 539 674.5 c 0
 355.5 673 200.5 514 143.5 350 c 0
EndSplineSet
EndChar

StartChar: E
Encoding: 69 69 4
Width: 490
VWidth: 0
Flags: HMW
LayerCount: 2
Fore
SplineSet
42 0 m 1
 52 31 l 1
 376 31 l 1
 366 0 l 1
 42 0 l 1
271 669 m 1
 281 700 l 1
 604 700 l 1
 594 669 l 1
 271 669 l 1
168.5 371 m 1
 179.5 402 l 1
 483.5 402 l 1
 473.5 371 l 1
 168.5 371 l 1
266 699.5 m 1
 299.5 699.5 l 1
 58.5 0 l 1
 27 0 l 1
 266 699.5 l 1
EndSplineSet
EndChar

StartChar: F
Encoding: 70 70 6
Width: 437
VWidth: 0
Flags: HMW
LayerCount: 2
Fore
SplineSet
271 668.5 m 1
 281.5 700 l 1
 567 700 l 1
 556 668.5 l 1
 271 668.5 l 1
166.5 363.5 m 1
 177.5 394 l 1
 453 394 l 1
 442.5 363 l 1
 166.5 363.5 l 1
266 699.5 m 1
 299.5 699.5 l 1
 58.5 0 l 1
 27 0 l 1
 266 699.5 l 1
EndSplineSet
EndChar

StartChar: G
Encoding: 71 71 7
Width: 722
VWidth: 0
Flags: HMW
LayerCount: 2
Fore
SplineSet
443 313.5 m 1
 454 344 l 1
 737 343.5 l 1
 668 169.5 516.5 -8 313.5 -8 c 0
 115 -8 54 185.5 108.5 350 c 0
 170 535 349.5 709 553.5 708.5 c 0
 658 709 732 652 770.5 557 c 1
 741 537 l 1
 711 625 641.5 675.5 547.5 675 c 0
 362 675.5 201 517 143 350 c 0
 92.5 203.5 139 26 320 25.5 c 0
 493.5 25 621 170.5 691.5 313 c 1
 443 313.5 l 1
EndSplineSet
EndChar

StartChar: T
Encoding: 84 84 8
Width: 414
VWidth: 0
Flags: HMW
LayerCount: 2
Fore
SplineSet
189 668.5 m 1
 200 700 l 1
 585 700 l 1
 573.5 668.5 l 1
 397.5 668.5 l 1
 168.5 0 l 1
 136 0 l 1
 365 668.5 l 1
 189 668.5 l 1
EndSplineSet
EndChar

StartChar: L
Encoding: 76 76 9
Width: 409
VWidth: 0
Flags: HMW
LayerCount: 2
Fore
SplineSet
266.5 699.5 m 1
 299 699.5 l 1
 69 31 l 1
 351 31 l 1
 340.5 0 l 1
 26.5 0 l 1
 266.5 699.5 l 1
EndSplineSet
EndChar

StartChar: D
Encoding: 68 68 10
Width: 609
VWidth: 0
Flags: HMW
LayerCount: 2
Fore
SplineSet
266 699 m 1
 299.5 699.5 l 1
 58.5 0 l 1
 27 0 l 1
 266 699 l 1
195 0 m 2
 43.5 0 l 1
 55 33 l 1
 201.5 33 l 2
 387 33 540.5 179 599.5 350 c 0
 653 503.5 601.5 667 422 667 c 2
 271 667 l 1
 282.5 700 l 1
 428.5 700 l 2
 626 700 689 520 632 350 c 0
 569.5 162 399 0 195 0 c 2
EndSplineSet
EndChar

StartChar: Q
Encoding: 81 81 11
Width: 730
VWidth: 0
Flags: HMW
LayerCount: 2
Fore
SplineSet
143 350 m 0
 92.5 203.5 137 26.5 318 25 c 0
 503 23.5 663.5 185 720.5 350 c 0
 771 496.5 726.5 673.5 545.5 675 c 0
 360.5 676.5 200 515 143 350 c 0
108.5 350 m 0
 169.5 534 348 709.5 551 708.5 c 0
 749.5 707.5 809.5 514.5 755 350 c 0
 694 166 515.5 -9.5 312.5 -8.5 c 0
 114 -7.5 54 185.5 108.5 350 c 0
419 300 m 1
 458 300 l 1
 653 0 l 1
 613 0 l 1
 419 300 l 1
EndSplineSet
EndChar

StartChar: A
Encoding: 65 65 12
Width: 580
VWidth: 0
Flags: HMW
LayerCount: 2
Fore
SplineSet
159 253.5 m 1
 177 284 l 1
 491.5 284 l 1
 490 253.5 l 1
 159 253.5 l 1
459.5 644 m 1
 190 273 l 1
 184.5 265 l 1
 -8.5 0 l 1
 -46 0 l 1
 483 722 l 1
 515.5 0 l 1
 480.5 0 l 1
 472.5 263 l 1
 472.5 271 l 1
 459.5 644 l 1
EndSplineSet
EndChar

StartChar: R
Encoding: 82 82 13
Width: 465
VWidth: 0
Flags: HMW
LayerCount: 2
Fore
SplineSet
245.5 325.5 m 1
 279.5 325.5 l 1
 385.5 0 l 1
 349 0 l 1
 245.5 325.5 l 1
266 699.5 m 1
 299.5 699.5 l 1
 58.5 0 l 1
 27 0 l 1
 266 699.5 l 1
269.5 670 m 1
 280.5 700 l 1
 394 700 l 2
 509 700 591 621 551.5 501.5 c 0
 511 378 388 307 263 304 c 1
 144.5 304 l 1
 155.5 333.5 l 1
 268 333.5 l 1
 376 336.5 483 396 520 502 c 0
 555.5 604.5 486.5 666.5 388 670 c 1
 269.5 670 l 1
EndSplineSet
EndChar

StartChar: V
Encoding: 86 86 14
Width: 580
VWidth: 0
Flags: HMW
LayerCount: 2
Fore
SplineSet
272 58 m 1
 716 699 l 1
 753.5 699 l 1
 249 -22 l 1
 193.5 700 l 1
 227.5 700 l 1
 272 58 l 1
EndSplineSet
EndChar

StartChar: M
Encoding: 77 77 15
Width: 774
VWidth: 0
Flags: HMW
LayerCount: 2
Fore
SplineSet
301 613.5 m 1
 27 0 l 1
 -5.5 0 l 1
 317 721.5 l 1
 386.5 161.5 l 1
 846 724 l 1
 669.5 0 l 1
 637.5 0 l 1
 788 609.5 l 1
 365.5 91.5 l 1
 301 613.5 l 1
EndSplineSet
EndChar

StartChar: W
Encoding: 87 87 16
Width: 904
VWidth: 0
Flags: HMW
LayerCount: 2
Fore
SplineSet
641.5 73 m 1
 1036.5 699 l 1
 1073 699 l 1
 615 -23 l 1
 612.5 624.5 l 1
 207 -23 l 1
 197.5 700 l 1
 231.5 700 l 1
 235.5 73 l 1
 641.5 723 l 1
 641.5 73 l 1
EndSplineSet
EndChar

StartChar: N
Encoding: 78 78 17
Width: 656
VWidth: 0
Flags: HMW
LayerCount: 2
Fore
SplineSet
742 699.5 m 1
 774.5 699.5 l 1
 526.5 -20.5 l 1
 250 631 l 1
 32 0 l 1
 -1 0 l 1
 247 720.5 l 1
 523.5 65.5 l 1
 742 699.5 l 1
EndSplineSet
EndChar

StartChar: a
Encoding: 97 97 18
Width: 423
VWidth: 0
Flags: HMW
LayerCount: 2
Fore
SplineSet
56 135 m 0
 34.5 72 69 20 135.5 19.5 c 0
 227.5 18.5 294 89.5 335 164.5 c 1
 338 149 l 1
 297 66 224.5 -9.5 125 -9 c 0
 42.5 -8.5 0 58 25.5 135 c 0
 56 226.5 156.5 282 249.5 281.5 c 0
 298 281 335.5 265 369 231.5 c 1
 361.5 212 l 1
 328.5 241.5 291.5 256.5 246 256 c 0
 169 255.5 82.5 211.5 56 135 c 0
163 383 m 1
 154.5 408.5 l 1
 206.5 440 264.5 470.5 327 469 c 0
 413 466.5 440 397.5 417 323 c 2
 305.5 0 l 1
 274.5 0 l 1
 388 323 l 2
 406 380 393 438 322 440.5 c 0
 264.5 443 210 411.5 163 383 c 1
EndSplineSet
Substitution2: "alt a" a.alt
EndChar

StartChar: X
Encoding: 88 88 19
Width: 485
VWidth: 0
Flags: HMW
LayerCount: 2
Fore
SplineSet
599 698.5 m 1
 639.5 698.5 l 1
 340 365 l 1
 435.5 0 l 1
 399.5 0 l 1
 316.5 335.5 l 1
 19.5 0 l 1
 -21 0 l 1
 309 369 l 1
 221 700 l 1
 257.5 700 l 1
 332 398 l 1
 599 698.5 l 1
EndSplineSet
EndChar

StartChar: K
Encoding: 75 75 20
Width: 458
VWidth: 0
Flags: HMW
LayerCount: 2
Fore
SplineSet
263.5 699.5 m 1
 296 699.5 l 1
 55 0 l 1
 23.5 0 l 1
 263.5 699.5 l 1
576.5 698.5 m 1
 620.5 698.5 l 1
 211 370 l 1
 391 0 l 1
 354 0 l 1
 173.5 373.5 l 1
 576.5 698.5 l 1
EndSplineSet
EndChar

StartChar: Y
Encoding: 89 89 21
Width: 492
VWidth: 0
Flags: HMW
LayerCount: 2
Fore
SplineSet
629.5 698.5 m 1
 668 698.5 l 1
 299 275.5 l 1
 204 0 l 1
 171 0 l 1
 268.5 279 l 1
 196.5 700 l 1
 231 700 l 1
 292.5 311 l 1
 629.5 698.5 l 1
EndSplineSet
EndChar

StartChar: B
Encoding: 66 66 22
Width: 483
VWidth: 0
Flags: HMW
LayerCount: 2
Fore
SplineSet
181.5 381.5 m 1
 187 400.5 l 1
 285.5 401 l 1
 372 404 460.5 447.5 490.5 534 c 0
 520 618.5 461.5 669 381.5 669.5 c 2
 288 670 l 1
 68.5 30 l 1
 168 30.5 l 2
 276.5 31 378 97 413.5 203 c 0
 445 297.5 383 371 289 371.5 c 2
 177.5 372 l 1
 184 391 l 1
 298 391.5 l 2
 404 390.5 479 309 445.5 201 c 0
 407 77 288 0 162.5 0 c 2
 26 0 l 1
 266.5 700 l 1
 387.5 700 l 2
 484 700 558 638 523.5 534.5 c 0
 490 434.5 389.5 385 289.5 381.5 c 1
 181.5 381.5 l 1
EndSplineSet
EndChar

StartChar: Z
Encoding: 90 90 23
Width: 505
VWidth: 0
Flags: HMW
LayerCount: 2
Fore
SplineSet
209 668.5 m 1
 220.5 700 l 1
 677.5 699.5 l 1
 30.5 32.5 l 1
 436.5 32.5 l 1
 425 0 l 1
 -39.5 0 l 1
 608.5 668 l 1
 209 668.5 l 1
EndSplineSet
EndChar

StartChar: o
Encoding: 111 111 24
Width: 520
VWidth: 0
Flags: HMW
LayerCount: 2
Fore
SplineSet
75 230 m 0
 111.5 354.5 233.5 469.5 368.5 469 c 0
 500.5 468.5 552.5 344 518.5 230 c 0
 482 105.5 360 -9.5 225 -9 c 0
 93 -8.5 41 116 75 230 c 0
105.5 230 m 0
 75 133 114.5 21.5 229.5 20.5 c 0
 347.5 19.5 454.5 122.5 488 230 c 0
 518.5 327 478.5 438.5 363.5 439.5 c 0
 245.5 440.5 139 337.5 105.5 230 c 0
EndSplineSet
EndChar

StartChar: J
Encoding: 74 74 25
Width: 197
VWidth: 0
Flags: HMW
LayerCount: 2
Fore
SplineSet
-207.5 -143 m 1
 -186.5 -168 -164.5 -187.5 -129 -187.5 c 0
 -51 -188.5 -9 -114 14 -50 c 2
 271 699.5 l 1
 302.5 699.5 l 1
 42.5 -60.5 l 2
 13.5 -139.5 -41.5 -221.5 -135.5 -219 c 0
 -178 -218 -206.5 -197 -231.5 -166 c 1
 -207.5 -143 l 1
EndSplineSet
EndChar

StartChar: t
Encoding: 116 116 26
Width: 192
VWidth: 0
Flags: HMW
LayerCount: 2
Fore
SplineSet
117.5 460 m 1
 289 460 l 1
 278 430.5 l 1
 106.5 430.5 l 1
 117.5 460 l 1
239 619 m 1
 270.5 619.5 l 1
 56 0 l 1
 27 0 l 1
 239 619 l 1
EndSplineSet
EndChar

StartChar: d
Encoding: 100 100 27
Width: 517
VWidth: 0
Flags: HMW
LayerCount: 2
Fore
SplineSet
627 779 m 1
 658.5 779.5 l 1
 389.5 0 l 1
 360.5 0 l 1
 627 779 l 1
62.5 230 m 0
 101.5 348 214.5 472 348 469.5 c 0
 476 467 486 325 454.5 230 c 0
 418 119 317 -8 189 -9 c 0
 55.5 -10 28 125.5 62.5 230 c 0
93.5 230 m 0
 62.5 140 81.5 19 198.5 20.5 c 0
 309.5 22 406 133 440 230 c 0
 468 312 455.5 435.5 347 439.5 c 0
 230 444 129 332.5 93.5 230 c 0
EndSplineSet
EndChar

StartChar: l
Encoding: 108 108 28
Width: 183
VWidth: 0
Flags: HMW
LayerCount: 2
Fore
SplineSet
289 779 m 1
 320.5 779.5 l 1
 51 0 l 1
 22 0 l 1
 289 779 l 1
EndSplineSet
EndChar

StartChar: i
Encoding: 105 105 29
Width: 197
VWidth: 0
Flags: HMW
LayerCount: 2
Fore
SplineSet
255 681.5 m 0
 255 694.5 265 704.5 278 704.5 c 0
 291 704.5 301.5 694.5 301.5 681.5 c 0
 301.5 668.5 291 658.5 278 658.5 c 0
 265 658.5 255 668.5 255 681.5 c 0
187.5 459 m 1
 219 459 l 1
 60 0 l 1
 29.5 0 l 1
 187.5 459 l 1
EndSplineSet
EndChar

StartChar: r
Encoding: 114 114 30
Width: 287
VWidth: 0
Flags: HMW
LayerCount: 2
Fore
SplineSet
211 459.5 m 1
 51.5 0 l 1
 20.5 0 l 1
 180.5 459.5 l 1
 211 459.5 l 1
352 420 m 1
 337 429.5 322.5 439 304 440 c 0
 221.5 444 174 343 146.5 281.5 c 1
 132 281.5 l 1
 163.5 355.5 218.5 473.5 315 469 c 0
 338.5 468.5 356 456.5 375 443.5 c 1
 352 420 l 1
EndSplineSet
EndChar

StartChar: c
Encoding: 99 99 31
Width: 456
VWidth: 0
Flags: HMW
LayerCount: 2
Fore
SplineSet
100.5 230 m 0
 70 132.5 110.5 22 225.5 20.5 c 0
 289 20 346 50 396 85.5 c 1
 384.5 47.5 l 1
 335 15 281 -9 220.5 -9 c 0
 88.5 -8.5 36.5 116 70.5 230 c 0
 107 355 228 469.5 363.5 469 c 0
 416.5 469 460 449.5 496 411.5 c 1
 484.5 373.5 l 1
 455 417 413.5 440 359 439.5 c 0
 241 439 135 338 100.5 230 c 0
EndSplineSet
EndChar

StartChar: b
Encoding: 98 98 32
Width: 517
VWidth: 0
Flags: HMW
LayerCount: 2
Fore
SplineSet
315.5 779.5 m 1
 46.5 0 l 1
 16.5 0 l 1
 284.5 779.5 l 1
 315.5 779.5 l 1
503 230 m 0
 464 112 351.5 -12 218 -9.5 c 0
 90 -7 80.5 135 112 230 c 0
 148.5 341 248.5 468 376.5 469 c 0
 510 470 537.5 334.5 503 230 c 0
472.5 230 m 0
 503.5 320 483.5 441 366.5 439.5 c 0
 255.5 438 160 327 126 230 c 0
 98 148 109.5 24.5 218 20.5 c 0
 335 16 437 127.5 472.5 230 c 0
EndSplineSet
EndChar

StartChar: p
Encoding: 112 112 33
Width: 517
VWidth: 0
Flags: HMW
LayerCount: 2
Fore
SplineSet
-27.5 -219 m 1
 -59.5 -219.5 l 1
 176 459.5 l 1
 205 459 l 1
 -27.5 -219 l 1
503 230 m 0
 464 112 351.5 -12 218 -9.5 c 0
 90 -7 80.5 135 112 230 c 0
 148.5 341 248.5 468 376.5 469 c 0
 510 470 537.5 334.5 503 230 c 0
472.5 230 m 0
 503.5 320 483.5 441 366.5 439.5 c 0
 255.5 438 160 327 126 230 c 0
 98 148 109.5 24.5 218 20.5 c 0
 335 16 437 127.5 472.5 230 c 0
EndSplineSet
EndChar

StartChar: q
Encoding: 113 113 34
Width: 517
VWidth: 0
Flags: HMW
LayerCount: 2
Fore
SplineSet
284.5 -219.5 m 1
 518.5 459.5 l 1
 549.5 459.5 l 1
 314.5 -219.5 l 1
 284.5 -219.5 l 1
62.5 230 m 0
 101.5 348 214.5 472 348 469.5 c 0
 476 467 486 325 454.5 230 c 0
 418 119 317 -8 189 -9 c 0
 55.5 -10 28 125.5 62.5 230 c 0
93.5 230 m 0
 62.5 140 81.5 19 198.5 20.5 c 0
 309.5 22 406 133 440 230 c 0
 468 312 455.5 435.5 347 439.5 c 0
 230 444 129 332.5 93.5 230 c 0
EndSplineSet
EndChar

StartChar: h
Encoding: 104 104 35
Width: 460
VWidth: 0
Flags: HMW
LayerCount: 2
Fore
SplineSet
320.5 779.5 m 1
 51.5 0 l 1
 21 0 l 1
 289.5 779.5 l 1
 320.5 779.5 l 1
406 308 m 2
 424 367.5 423 437 345 439.5 c 0
 252.5 442 185 355 146.5 282 c 1
 135 282 l 1
 175 369.5 248 469.5 355.5 469 c 0
 449.5 468.5 459 384 437 311 c 1
 328.5 0 l 1
 299.5 0 l 1
 406 308 l 2
EndSplineSet
EndChar

StartChar: n
Encoding: 110 110 36
Width: 460
VWidth: 0
Flags: HMW
LayerCount: 2
Fore
SplineSet
211 459.5 m 1
 51.5 0 l 1
 20.5 0 l 1
 180.5 459.5 l 1
 211 459.5 l 1
406 308 m 2
 424 367.5 423 437 345 439.5 c 0
 252.5 442 185 355 146.5 282 c 1
 135 282 l 1
 175 369.5 248 469.5 355.5 469 c 0
 449.5 468.5 459 384 437 311 c 1
 328.5 0 l 1
 299.5 0 l 1
 406 308 l 2
EndSplineSet
EndChar

StartChar: m
Encoding: 109 109 37
Width: 674
VWidth: 0
Flags: HMW
LayerCount: 2
Fore
SplineSet
374 308 m 2
 389.5 358 402 436 329 439 c 0
 242.5 443 180.5 348.5 146.5 282 c 1
 135 282 l 1
 171.5 361.5 238 471.5 339.5 469 c 0
 429 467 424 375 404.5 311 c 2
 297 0 l 1
 267.5 0 l 1
 374 308 l 2
211 459.5 m 1
 51.5 0 l 1
 20.5 0 l 1
 180.5 459.5 l 1
 211 459.5 l 1
650 311 m 2
 543 0 l 1
 512 0 l 1
 619.5 308 l 2
 635 358 647 436 574 439 c 0
 487.5 443 426.5 348.5 392.5 282 c 1
 375 282 l 1
 412.5 363 482.5 472 585 469 c 0
 674.5 467 669.5 375 650 311 c 2
EndSplineSet
EndChar

StartChar: k
Encoding: 107 107 38
Width: 368
VWidth: 0
Flags: HMW
LayerCount: 2
Fore
SplineSet
284 779 m 1
 315.5 779.5 l 1
 46.5 0 l 1
 17.5 0 l 1
 284 779 l 1
407.5 458.5 m 1
 450 458.5 l 1
 164 265.5 l 1
 307.5 0 l 1
 273 0 l 1
 130 272 l 1
 407.5 458.5 l 1
EndSplineSet
EndChar

StartChar: u
Encoding: 117 117 39
Width: 460
VWidth: 0
Flags: HMW
LayerCount: 2
Fore
SplineSet
298.5 0 m 1
 457.5 459.5 l 1
 488.5 459.5 l 1
 329.5 0 l 1
 298.5 0 l 1
106 159 m 2
 87.5 99.5 83.5 22 165 20.5 c 0
 257.5 18 324 104 362.5 178 c 1
 374.5 178 l 1
 334.5 90.5 261 -10.5 153.5 -9 c 0
 55.5 -8.5 52.5 82.5 75 156 c 1
 181 459.5 l 1
 210 459 l 1
 106 159 l 2
EndSplineSet
EndChar

StartChar: e
Encoding: 101 101 40
Width: 475
VWidth: 0
Flags: HMW
LayerCount: 2
Fore
SplineSet
93 222.5 m 1
 101 250 l 1
 445.5 250 l 1
 475.5 326.5 455.5 438.5 346.5 440.5 c 0
 231.5 442.5 144.5 336.5 109 242 c 1
 106 232 l 1
 82.5 143 94.001 22.04834 208.5 20.5 c 0
 285.997 19.29834 353 70 408 123 c 1
 429.5 104.5 l 1
 367.5 43 292.5095 -9.85164 201 -9 c 0
 72 -7.5 46 128.5 75.5 231.5 c 0
 82.5 255 92 278 104 299.5 c 0
 151.5 387.5 244 470 350 469 c 0
 471 467.5 507 349 479 248 c 0
 476.5 239.5 472.5 230.5 470 222.5 c 1
 93 222.5 l 1
EndSplineSet
EndChar

StartChar: g
Encoding: 103 103 41
Width: 517
VWidth: 0
Flags: HMW
LayerCount: 2
Fore
SplineSet
-12.5 -30 m 1
 17.5 -30.5 l 1
 -1.5 -114 16 -197.5 118 -199.5 c 0
 237 -201.5 328.198 -92.9135 363.5 10 c 2
 518.5 459.5 l 1
 549.5 459.5 l 1
 395.5 10 l 2
 354.2845 -109.4405 257 -229.5 117 -229 c 0
 -2 -228.5 -36 -130.5 -12.5 -30 c 1
62.5 230 m 0
 101.5 348 214.5 472 348 469.5 c 0
 476 467 486 325 454.5 230 c 0
 418 119 317 -8 189 -9 c 0
 55.5 -10 28 125.5 62.5 230 c 0
93.5 230 m 0
 61.5 139.5 81.5 20 198.5 20.5 c 0
 311 21 407.5 135.5 440.5 233.5 c 0
 468 315 453.5 435.5 347 439.5 c 0
 230 444 129 332.5 93.5 230 c 0
EndSplineSet
EndChar

StartChar: f
Encoding: 102 102 42
Width: 263
VWidth: 0
Flags: HMW
LayerCount: 2
Fore
SplineSet
146.5 460 m 1
 341 460 l 1
 330.5 430.5 l 1
 136 430.5 l 1
 146.5 460 l 1
452.5 718.5 m 1
 440 737.5 426.5 755.5 401 757 c 0
 339 759.5 301 690 281.5 641 c 2
 61.5 0 l 1
 30.5 0 l 1
 250.5 644.5 l 2
 275 710 327.5 792 408.5 787.5 c 0
 441 786 459 766.5 476.5 742 c 1
 452.5 718.5 l 1
EndSplineSet
EndChar

StartChar: s
Encoding: 115 115 43
Width: 379
VWidth: 0
Flags: HMW
LayerCount: 2
Fore
SplineSet
69 151 m 1
 70.5 90.5 85.5 21.5 161 20 c 0
 218.5 19 280.5 63 296.5 118.5 c 0
 313.5 177 265 205 219 225 c 0
 160.5 250.5 111.5 284.5 133.5 356.5 c 0
 154 424 223.5 468 295 467.5 c 0
 358.5 467 389 427 403 371 c 1
 375 357.5 l 1
 364 403.5 343.5 437.5 290.5 438.5 c 0
 238.5 439.5085 180 406 163.5 355.5 c 0
 143 294 196.5 269 244 249 c 0
 299.5 225 345.5 185 328 119 c 0
 308.5 45 235.5 -10 156 -9.5 c 0
 68.5 -9 44.5 65 41.5 138.5 c 1
 69 151 l 1
EndSplineSet
EndChar

StartChar: y
Encoding: 121 121 44
Width: 403
VWidth: 0
Flags: HMW
LayerCount: 2
Fore
SplineSet
503 459 m 1
 -14 -219 l 1
 -49 -218.5 l 1
 146 35.5 l 1
 109.5 460 l 1
 140.5 460 l 1
 175 44 l 1
 157 46 l 1
 468 459 l 1
 503 459 l 1
EndSplineSet
EndChar

StartChar: w
Encoding: 119 119 45
Width: 599
VWidth: 0
Flags: HMW
LayerCount: 2
Fore
SplineSet
115.5 460 m 1
 146.5 460 l 1
 131 64 l 1
 406.5 483 l 1
 398.5 62.5 l 1
 660 459 l 1
 694.5 459 l 1
 373 -23 l 1
 379.5 397 l 1
 101.5 -23 l 1
 115.5 460 l 1
EndSplineSet
EndChar

StartChar: v
Encoding: 118 118 46
Width: 400
VWidth: 0
Flags: HMW
LayerCount: 2
Fore
SplineSet
114.5 460 m 1
 147 460 l 1
 179.5 50 l 1
 468.5 459 l 1
 504.5 459 l 1
 159 -22 l 1
 114.5 460 l 1
EndSplineSet
EndChar

StartChar: x
Encoding: 120 120 47
Width: 368
VWidth: 0
Flags: HMW
LayerCount: 2
Fore
SplineSet
424.5 458.5 m 1
 462.5 458.5 l 1
 241 234 l 1
 327.5 0 l 1
 295 0 l 1
 217 213.5 l 1
 8.5 0 l 1
 -30 0 l 1
 207.5 240.5 l 1
 123.5 460 l 1
 156.5 460 l 1
 231 261 l 1
 424.5 458.5 l 1
EndSplineSet
EndChar

StartChar: z
Encoding: 122 122 48
Width: 412
VWidth: 0
Flags: HMW
LayerCount: 2
Fore
SplineSet
425 430 m 1
 131 430 l 1
 141 459.5 l 1
 494 459.5 l 1
 29.5 30 l 1
 346.5 30 l 1
 336.5 0 l 1
 -39.5 0 l 1
 425 430 l 1
EndSplineSet
EndChar

StartChar: j
Encoding: 106 106 49
Width: 188
VWidth: 0
Flags: HMW
LayerCount: 2
Fore
SplineSet
245 681.5 m 0
 245 694.5 255 704.5 268 704.5 c 0
 281 704.5 291.5 694.5 291.5 681.5 c 0
 291.5 668.5 281 658.5 268 658.5 c 0
 255 658.5 245 668.5 245 681.5 c 0
-175.5 -150 m 1
 -165.5 -167 -148.5 -188 -125.5 -188.5 c 0
 -62.6343 -189.5 -22 -118 -4.5 -72.5 c 2
 178.5 459.5 l 1
 209 459.5 l 1
 26 -75.5 l 2
 1.5 -141 -47.5 -220 -128.5 -219 c 0
 -161.031 -218.5 -182 -198 -200 -173.5 c 1
 -175.5 -150 l 1
EndSplineSet
EndChar

StartChar: P
Encoding: 80 80 50
Width: 470
VWidth: 0
Flags: HMW
LayerCount: 2
Fore
SplineSet
266 699 m 1
 299.5 699.5 l 1
 58.5 0 l 1
 27 0 l 1
 266 699 l 1
272.5 669 m 1
 284 700 l 1
 400 700 l 2
 517 700 580 607 542.5 494.5 c 0
 503.5 375 388 290 264.5 290 c 2
 143.5 290 l 1
 154 321 l 1
 271 321 l 1
 378 322 474.5 393 510 495 c 0
 543.5 591 494.5 668 394 668.5 c 2
 272.5 669 l 1
EndSplineSet
EndChar

StartChar: U
Encoding: 85 85 51
Width: 555
VWidth: 0
Flags: HMW
LayerCount: 2
Fore
SplineSet
262.5 699.5 m 1
 294.5 699.5 l 1
 130 223 l 2
 102 133.5 112.5 23 229 22.5 c 0
 352 22 432 122 468.5 223 c 2
 633 699.5 l 1
 665.5 699.5 l 1
 502.5 223 l 2
 460 103.5 369.5 -9.5 224 -9 c 0
 89 -8.5 64.5 115 99 223 c 2
 262.5 699.5 l 1
EndSplineSet
EndChar

StartChar: S
Encoding: 83 83 52
Width: 475
VWidth: 0
Flags: HMW
LayerCount: 2
Fore
SplineSet
80 205.5 m 1
 81.5 123.5 100 25.5 202 24 c 0
 295.5 22.5 379 90.5 408 177.5 c 0
 436 262 385 316 314.5 352.5 c 0
 237 392 174 449 204.5 544.5 c 0
 234.5 636.5 333 708 430 707.5 c 0
 523.5 707 557.5 634.5 563 552.5 c 1
 532.5 538 l 1
 528.5 607.5 503 674.5 422 675.5 c 0
 344 676.5 263 617 237.5 543.5 c 0
 207.5 457.5 277.5 411 344 376.5 c 0
 423 336 470.5 270.5 442 179 c 0
 409.5 74 307.5 -9 195 -7.5 c 0
 81.5 -6 51.5 95 48.5 190.5 c 1
 80 205.5 l 1
EndSplineSet
EndChar

StartChar: at
Encoding: 64 64 53
Width: 724
VWidth: 0
Flags: HMW
LayerCount: 2
Fore
SplineSet
272 320 m 0
 254.5 266.5 259.5 195.5 329 192 c 0
 420 187.5 501.5 293 527 370 c 0
 543.5 420 542 494 474.5 499 c 0
 381 505.5 297.5 399 272 320 c 0
242 319.5 m 0
 271.5 414.5 369.5 533.5 480 527.5 c 0
 564.5 523 563 428.5 543 367.5 c 0
 513.5 277.5 425.5 161.5 319.5 163 c 0
 233 164.5 221 252.5 242 319.5 c 0
86.5 320 m 0
 154 521.5 353.5 711 575.5 708.5 c 0
 751.5 706.5 824 544 771.5 390 c 0
 739 294.5 641 140 522 152 c 0
 447 159 473.5 237 491.5 284.5 c 1
 488 285 l 1
 606 519 l 1
 637.5 519 l 1
 517 289 l 2
 512.5 278.5 507 267.5 503.5 256.5 c 0
 494.5 225.5 489.5 187.5 530 180 c 0
 628 161.5 716.5 316 743 390 c 0
 793 529 733 678 571 681 c 0
 363.5 684.5 179.5 506.5 115 320 c 0
 64.5 172.5 112 23 286.5 19.5 c 0
 369 17.5 448 43 523 74 c 1
 530.5 49 l 1
 452 16 368 -8.5 282 -7.5 c 0
 91.5 -4.5 31.5 156 86.5 320 c 0
EndSplineSet
EndChar

StartChar: period
Encoding: 46 46 54
Width: 255
VWidth: 0
Flags: HMW
LayerCount: 2
Fore
SplineSet
53.5 12.5 m 0
 53.5 25.5 64.5 36.5 77.5 36.5 c 0
 90.5 36.5 101.5 25.5 101.5 12.5 c 0
 101.5 -0.5 90.5 -11 77.5 -11 c 0
 64.5 -11 53.5 -0.5 53.5 12.5 c 0
EndSplineSet
EndChar

StartChar: comma
Encoding: 44 44 55
Width: 268
VWidth: 0
Flags: HMW
LayerCount: 2
Fore
SplineSet
136.5 97 m 1
 164.5 83.5 l 1
 -26.5 -161.5 l 1
 -47 -154 l 1
 136.5 97 l 1
EndSplineSet
EndChar

StartChar: colon
Encoding: 58 58 56
Width: 282
VWidth: 0
Flags: HMW
LayerCount: 2
Fore
SplineSet
53.5 12.5 m 0
 53.5 25.5 64.5 36.5 77.5 36.5 c 0
 90.5 36.5 101.5 25.5 101.5 12.5 c 0
 101.5 -0.5 90.5 -11 77.5 -11 c 0
 64.5 -11 53.5 -0.5 53.5 12.5 c 0
176 370.5 m 0
 176 383.5 187 394 200 394 c 0
 213 394 224 383.5 224 370.5 c 0
 224 357.5 213 346.5 200 346.5 c 0
 187 346.5 176 357.5 176 370.5 c 0
EndSplineSet
EndChar

StartChar: semicolon
Encoding: 59 59 57
Width: 274
VWidth: 0
Flags: HMW
LayerCount: 2
Fore
SplineSet
204.5 370.5 m 0
 204.5 383.5 215 394 228 394 c 0
 241 394 252 383.5 252 370.5 c 0
 252 357.5 241 346.5 228 346.5 c 0
 215 346.5 204.5 357.5 204.5 370.5 c 0
136.5 97 m 1
 164.5 83.5 l 1
 -26.5 -161.5 l 1
 -47 -154 l 1
 136.5 97 l 1
EndSplineSet
EndChar

StartChar: quotedbl
Encoding: 34 34 58
Width: 396
VWidth: 0
Flags: HMW
LayerCount: 2
Fore
SplineSet
310 699 m 1
 348.5 699 l 1
 195 415.5 l 1
 173.5 415 l 1
 310 699 l 1
480 699 m 1
 518 699 l 1
 364 415.5 l 1
 342.5 415 l 1
 480 699 l 1
EndSplineSet
EndChar

StartChar: exclam
Encoding: 33 33 59
Width: 256
VWidth: 0
Flags: HMW
LayerCount: 2
Fore
SplineSet
294 699.5 m 1
 334 699.5 l 1
 154 201 l 1
 132 201 l 1
 294 699.5 l 1
53.5 12.5 m 0
 53.5 26.5 65 37 78 37 c 0
 91 37 102 26.5 102 12.5 c 0
 102 -1.5 91 -11.5 78 -11.5 c 0
 65 -11.5 53.5 -1.5 53.5 12.5 c 0
EndSplineSet
EndChar

StartChar: quotesingle
Encoding: 39 39 60
Width: 226
VWidth: 0
Flags: HMW
LayerCount: 2
Fore
SplineSet
310 699 m 1
 348.5 699 l 1
 195 415.5 l 1
 173.5 415 l 1
 310 699 l 1
EndSplineSet
EndChar

StartChar: numbersign
Encoding: 35 35 61
Width: 546
VWidth: 0
Flags: HMW
LayerCount: 2
Fore
SplineSet
169.5 450 m 1
 178.5 476.5 l 1
 623 476.5 l 1
 613.5 450 l 1
 499.5 450 l 1
 493 450 l 1
 302 450 l 1
 296 450 l 1
 169.5 450 l 1
56 228.5 m 1
 65 255 l 1
 179.5 255 l 1
 187.5 255 l 1
 377.5 255 l 1
 387.5 255 l 1
 509 255 l 1
 501 228.5 l 1
 56 228.5 l 1
622.5 699 m 1
 653.5 699 l 1
 251.5 0 l 1
 221 0 l 1
 358.5 239 l 1
 363 246 l 1
 484 459 l 1
 488 467 l 1
 622.5 699 l 1
424.5 699 m 1
 455.5 699 l 1
 322 468 l 1
 318 460.5 l 1
 194.5 244 l 1
 191.5 238 l 1
 54.5 0.5 l 1
 25 0 l 1
 424.5 699 l 1
EndSplineSet
EndChar

StartChar: hyphen
Encoding: 45 45 62
Width: 197
VWidth: 0
Flags: HMW
LayerCount: 2
Fore
SplineSet
34.5 246 m 1
 44 275 l 1
 234 275 l 1
 223.5 246 l 1
 34.5 246 l 1
EndSplineSet
EndChar

StartChar: dollar
Encoding: 36 36 63
Width: 545
VWidth: 0
Flags: HMW
LayerCount: 2
Fore
SplineSet
454.5 817 m 1
 483 817 l 1
 441.5 691.5 l 1
 413.5 691.5 l 1
 454.5 817 l 1
208.5 12.5 m 1
 236 12.5 l 1
 196 -111.5 l 1
 167.5 -111.5 l 1
 208.5 12.5 l 1
539 538 m 1
 533 608 506 674 425.5 675.5 c 0
 348 677 267.5 619.5 243.5 545 c 0
 215.5 457.5 288.5 411 355.5 376.5 c 0
 435 336 486 271.5 460 179 c 0
 430.5 73.5 331.5 -9 219.5 -7.5 c 0
 106 -6 72 94.5 66 190.5 c 1
 97.5 205.5 l 1
 101.5 121.5 124.5 25.5 226.5 24 c 0
 319 22.5 400.5 90.5 426.5 177.5 c 0
 452 263 397.5 316.5 327 352.5 c 0
 249 392 182.5 452.5 211 547.5 c 0
 238 638 336.5 708.5 431 707.5 c 0
 524 706.5 562 634.5 569 552.5 c 1
 539 538 l 1
EndSplineSet
EndChar

StartChar: bar
Encoding: 124 124 64
Width: 215
VWidth: 0
Flags: HMW
LayerCount: 2
Fore
SplineSet
301.5 784.5 m 1
 330 784.5 l 1
 21 -214.5 l 1
 -7.5 -214.5 l 1
 301.5 784.5 l 1
EndSplineSet
EndChar

StartChar: zero
Encoding: 48 48 65
Width: 531
VWidth: 0
Flags: HMW
LayerCount: 2
Fore
SplineSet
145 350 m 0
 113.5 259 56.5 24 216 21.5 c 0
 374.5 19 474.5 224 517.5 350 c 0
 549 441 605.5 675.5 446 678 c 0
 287.5 680.5 188 476 145 350 c 0
112 350 m 0
 160 493.5 274 710.5 451.5 709 c 0
 633 707.5 587 460.5 550 350 c 0
 502 206.5 388 -10.5 210.5 -9 c 0
 29 -7.5 75 239.5 112 350 c 0
EndSplineSet
Substitution2: "Tabular Numbers lookup" uniFF10
EndChar

StartChar: one
Encoding: 49 49 66
Width: 396
VWidth: 0
Flags: HMW
LayerCount: 2
Fore
SplineSet
243.5 627 m 1
 256 662 l 1
 460 707 l 1
 216 0 l 1
 185 0 l 1
 413.5 664.5 l 1
 243.5 627 l 1
EndSplineSet
Substitution2: "Tabular Numbers lookup" uniFF11
EndChar

StartChar: two
Encoding: 50 50 67
Width: 498
VWidth: 0
Flags: HMW
LayerCount: 2
Fore
SplineSet
-12.5 0 m 1
 394.5 339.5 l 2
 451 387.5 511.5 441.5 534 515 c 0
 559.5 595 523 677.5 431.5 679 c 0
 308.5 681.5 232 561 190.5 461 c 1
 159 461 l 1
 205 579 294.5 711.5 436.5 710 c 0
 544 708.5 595 613.5 566.5 516 c 0
 543 436.5 479.5 374 418 321.5 c 2
 65.5 32 l 1
 437 31 l 1
 427.5 0 l 1
 -12.5 0 l 1
EndSplineSet
Substitution2: "Tabular Numbers lookup" uniFF12
EndChar

StartChar: four
Encoding: 52 52 68
Width: 528
VWidth: 0
Flags: HMW
LayerCount: 2
Fore
SplineSet
16 141.5 m 1
 568 698.5 l 1
 580.5 699 l 1
 339 0 l 1
 307.5 0 l 1
 360.5 152 l 1
 362.5 159 l 1
 520 614 l 1
 79.5 170.5 l 1
 376.5 169.5 l 1
 383.5 169.5 l 1
 501.5 169.5 l 1
 492 140 l 1
 16 141.5 l 1
EndSplineSet
Substitution2: "Tabular Numbers lookup" uniFF14
EndChar

StartChar: slash
Encoding: 47 47 69
Width: 457
VWidth: 0
Flags: HMW
LayerCount: 2
Fore
SplineSet
597.5 699 m 5
 631.5 698.5 l 5
 -61 -149 l 5
 -92.5 -148 l 5
 597.5 699 l 5
EndSplineSet
EndChar

StartChar: backslash
Encoding: 92 92 70
Width: 431
VWidth: 0
Flags: HMW
LayerCount: 2
Fore
SplineSet
198.5 700.5 m 1
 231 700 l 1
 363 0 l 1
 332.5 0 l 1
 198.5 700.5 l 1
EndSplineSet
EndChar

StartChar: eight
Encoding: 56 56 71
Width: 493
VWidth: 0
Flags: HMW
LayerCount: 2
Fore
SplineSet
207.5 538.5 m 0
 237 629 335 710 432.5 709 c 0
 526.5 708 573.5 621.5 546 537 c 0
 516.5 446 417.5 364.5 319.5 365 c 0
 224.5 365.5 180 453.5 207.5 538.5 c 0
236 535 m 0
 214 469.5 244 388.5 321.5 386.5 c 0
 402.5 384.5 488.5 462 514.5 535 c 0
 539 603.5 507.5 678 428 679.5 c 0
 346 681 262 610.5 236 535 c 0
66.5 187 m 0
 101 288.5 209.5 377.5 319 376.5 c 0
 424.5 376 476.5 282 446 186 c 0
 412.5 80 304.5 -10 191.5 -9 c 0
 81 -8 34 89.5 66.5 187 c 0
98 189.5 m 0
 68.5 108 101 22 196.5 20.5 c 0
 293.5 19 387 100 417 189.5 c 0
 443 266.5 406 353.5 316.5 355 c 0
 223.5 356.5 128.5 274 98 189.5 c 0
EndSplineSet
Substitution2: "Tabular Numbers lookup" uniFF18
EndChar

StartChar: nine
Encoding: 57 57 72
Width: 515
VWidth: 0
Flags: HMW
LayerCount: 2
Fore
SplineSet
552 477 m 0
 582 570 546.5 678 435 679 c 0
 321.5 680 221 581 189 477 c 0
 162 389.5 197 286 301 283.5 c 0
 413.5 281 518.5 374.5 552 477 c 0
171.5 0 m 1
 130 0 l 1
 453.5 328 l 1
 458 325 l 1
 408.5 288 353 256 289 257.5 c 0
 171.5 260.5 130 376.5 159 477 c 0
 193.5 598.5 307.5 709.5 439.5 709 c 0
 570 708.5 616 588.5 582 477 c 0
 564 419 527.5 366.5 486 322 c 2
 171.5 0 l 1
EndSplineSet
Substitution2: "Tabular Numbers lookup" uniFF19
EndChar

StartChar: three
Encoding: 51 51 73
Width: 516
VWidth: 0
Flags: HMW
LayerCount: 2
Fore
SplineSet
310 358 m 1
 316 379.5 l 1
 408 391 509 434 540.5 529.5 c 0
 565 604 527 677 444.5 679 c 0
 349 681 283.5 605 245 527 c 1
 214 527.5 l 1
 255.5 624 335.5 710 449 709 c 0
 548 708 601 622 572.5 530 c 0
 537.5 416.5 419 367.5 310 358 c 1
227.5 -9 m 0
 109.5 -9 62.5 77.5 82.5 185 c 1
 113.5 184.5 l 1
 97.5 93.5 131 23 232.5 22 c 0
 327.5 21 424.5 89.5 452 181 c 0
 483.5 286 398.5 337.5 307 349 c 1
 313.5 370.5 l 1
 421 360.5 519 299 483.5 177.5 c 0
 452 69 339.5 -9 227.5 -9 c 0
EndSplineSet
Substitution2: "Tabular Numbers lookup" uniFF13
EndChar

StartChar: five
Encoding: 53 53 74
Width: 525
VWidth: 0
Flags: HMW
LayerCount: 2
Fore
SplineSet
507 230 m 0
 470.5 103 355 -9.5 217.5 -9 c 0
 122.5 -9 72 50.5 52.5 137.5 c 1
 83 155 l 1
 99 79 138 23 222.5 22 c 0
 341.5 21 442 121 475.5 230 c 0
 502.5 317.5 471.5 417.5 367.5 421 c 0
 285.5 423.5 212.5 376 150 329 c 1
 351.5 700 l 1
 663 700 l 1
 653.5 670.5 l 1
 368 670 l 1
 209 384 l 1
 259 421.5 318 452.5 382.5 451 c 0
 503.5 448.5 536.5 330 507 230 c 0
EndSplineSet
Substitution2: "Tabular Numbers lookup" uniFF15
EndChar

StartChar: six
Encoding: 54 54 75
Width: 515
VWidth: 0
Flags: HMW
LayerCount: 2
Fore
SplineSet
111 223 m 0
 81 130 116 22 227.5 21 c 0
 341 20 442 119 474 223 c 0
 501 310.5 466 414 362 416.5 c 0
 249.5 419 144.5 325.5 111 223 c 0
491 698.5 m 1
 533 698.5 l 1
 208.5 371.5 l 1
 204.5 375 l 1
 254 412 309.5 444 373.5 442.5 c 0
 491 439.5 532.5 323.5 503.5 223 c 0
 469 101.5 355 -9.5 223 -9 c 0
 92.5 -8.5 46.5 111.5 80.5 223 c 0
 98.5 281 135 333.5 176.5 378 c 2
 491 698.5 l 1
EndSplineSet
Substitution2: "Tabular Numbers lookup" uniFF16
EndChar

StartChar: seven
Encoding: 55 55 76
Width: 486
VWidth: 0
Flags: HMW
LayerCount: 2
Fore
SplineSet
202.5 669 m 1
 212 700 l 1
 663 699 l 1
 107 0 l 1
 72 0 l 1
 603.5 668 l 1
 202.5 669 l 1
EndSplineSet
Substitution2: "Tabular Numbers lookup" uniFF17
EndChar

StartChar: plus
Encoding: 43 43 77
Width: 535
VWidth: 0
Flags: HMW
LayerCount: 2
Fore
SplineSet
88.5 240 m 1
 98.5 270.5 l 1
 507.5 270.5 l 1
 496.5 239.5 l 1
 88.5 240 l 1
361 485 m 1
 393.5 485.5 l 1
 233 24.5 l 1
 202.5 25 l 1
 361 485 l 1
EndSplineSet
EndChar

StartChar: equal
Encoding: 61 61 78
Width: 578
VWidth: 0
Flags: HMW
LayerCount: 2
Fore
SplineSet
66 172 m 1
 75 201 l 1
 533 201 l 1
 523 171.5 l 1
 66 172 l 1
111 304.5 m 1
 120.5 333.5 l 1
 578.5 333.5 l 1
 568 304 l 1
 111 304.5 l 1
EndSplineSet
EndChar

StartChar: percent
Encoding: 37 37 79
Width: 673
VWidth: 0
Flags: HMW
LayerCount: 2
Fore
SplineSet
168 558 m 0
 194 637 274 709.5 360.5 709 c 0
 446 708.5 478 630 454 556 c 0
 428 477 347.5 404.5 261 405 c 0
 175.5 405.5 144 484 168 558 c 0
195 557 m 0
 174.5 499.5 196 432.5 265.5 431 c 0
 336 429.5 404 493 426.5 557 c 0
 447 615 425.5 681 356.5 682.5 c 0
 286 684 217.5 621 195 557 c 0
350.5 144 m 0
 376.5 223 456.5 295.5 543 295 c 0
 628.5 294.5 660.5 216 636.5 142 c 0
 610.5 63 530 -9.5 443.5 -9 c 0
 358 -8.5 326.5 70 350.5 144 c 0
377.5 143 m 0
 357 85.5 377.5 18.5 447 17 c 0
 517.5 15.5 586.5 79 609 143 c 0
 629.5 201 607.5 267 538.5 268.5 c 0
 468 270 400 207 377.5 143 c 0
720 698.5 m 1
 752.5 698.5 l 1
 84 0 l 1
 52.5 0 l 1
 720 698.5 l 1
EndSplineSet
EndChar

StartChar: ampersand
Encoding: 38 38 80
Width: 635
VWidth: 0
Flags: HMW
LayerCount: 2
Fore
SplineSet
277 414 m 2
 252 463.5 233 515.5 250 571 c 0
 274.5 650.5 356 712.5 440.5 710 c 0
 519 708.5 559.5 640.5 537.5 567.5 c 0
 512 481.5 420.5 430.5 347 391 c 0
 250 338.5 125 293.5 89 177.5 c 0
 61.5 88.5 116 21.5 207 20 c 0
 383 16.5 517 204 629.5 314.5 c 1
 650 298.5 l 1
 529 179.5 389.5 -11 201 -9 c 0
 95.5 -7.5 26 71 56.5 176 c 0
 93.5 302.5 222 354.5 328.5 410 c 0
 395 445 482.5 491 507 568 c 0
 525 624.5 498.5 679 436 681.5 c 0
 369 684 301.5 632 281 570 c 0
 265 521.5 282 475.5 303.5 432 c 2
 527 0 l 1
 493 0 l 1
 277 414 l 2
EndSplineSet
EndChar

StartChar: question
Encoding: 63 63 81
Width: 513
VWidth: 0
Flags: HMW
LayerCount: 2
Fore
SplineSet
536.5 514 m 0
 567.5 599.5 525 678.5 430 679.5 c 0
 349.5 680.5 284 629.5 227.5 578 c 1
 206.5 595.5 l 1
 270.5 655 346 710.5 438 709 c 0
 548.5 707 601 614 567 513.5 c 0
 527.5 397.5 407 339 293 323 c 1
 237 171 l 1
 214 171 l 1
 264.5 345 l 1
 272 345 l 0
 379 355 497.5 406 536.5 514 c 0
145 12.5 m 0
 145 25 155.5 36.5 169 36.5 c 0
 183 36.5 192.5 24.5 192.5 12.5 c 0
 192.5 -0.561555 181.5 -11 168.5 -11 c 0
 154.5 -11 145 -1.04951 145 12.5 c 0
EndSplineSet
EndChar

StartChar: parenleft
Encoding: 40 40 82
Width: 244
VWidth: 0
Flags: HMW
LayerCount: 2
Fore
SplineSet
399 778.5 m 1
 424.5 778.5 l 1
 314 631 226.5 466.5 172 290 c 0
 123 131 103.5 -34.5 122 -200.5 c 1
 97.5 -200.5 l 1
 71 -35.5 90 131 138.5 290 c 0
 192.5 468 281.5 634.5 399 778.5 c 1
EndSplineSet
EndChar

StartChar: parenright
Encoding: 41 41 83
Width: 244
VWidth: 0
Flags: HMW
LayerCount: 2
Fore
SplineSet
-43 -198.5 m 1
 -68.5 -198.5 l 1
 42 -51 128.5 113.5 183 290 c 0
 232 449 252 614.5 233.5 780.5 c 1
 258 780.5 l 1
 284.5 615.5 265.5 449 217 290 c 0
 163 112 74.5 -54.5 -43 -198.5 c 1
EndSplineSet
EndChar

StartChar: asterisk
Encoding: 42 42 84
Width: 557
VWidth: 0
Flags: HMW
LayerCount: 2
Fore
SplineSet
583 588 m 1
 582 559.5 l 1
 401 510.5 l 1
 400.5 529.5 l 1
 583 588 l 1
466 380.5 m 1
 438.5 364 l 1
 391.5 513 l 1
 408.5 525 l 1
 466 380.5 l 1
260 366 m 1
 241 384 l 1
 394.5 524.5 l 1
 406.5 511 l 1
 260 366 l 1
248.5 561.5 m 1
 266 588 l 1
 409 528 l 1
 397.5 511 l 1
 248.5 561.5 l 1
450.5 699 m 1
 479 699 l 1
 410 520 l 1
 391 520 l 1
 450.5 699 l 1
EndSplineSet
EndChar

StartChar: less
Encoding: 60 60 85
Width: 602
VWidth: 0
Flags: HMW
LayerCount: 2
Fore
SplineSet
144 255.5 m 1
 510.5 64.5 l 1
 500.5 37.5 l 1
 91 248.5 l 1
 97 266 l 1
 651.5 479 l 1
 640.5 446 l 1
 144 255.5 l 1
EndSplineSet
EndChar

StartChar: greater
Encoding: 62 62 86
Width: 602
VWidth: 0
Flags: HMW
LayerCount: 2
Fore
SplineSet
525.5 258.5 m 1
 159 450.5 l 1
 169.5 477.5 l 1
 578 266.5 l 1
 572.5 249 l 1
 18 36 l 1
 28.5 69 l 1
 525.5 258.5 l 1
EndSplineSet
EndChar

StartChar: bracketleft
Encoding: 91 91 87
Width: 255
VWidth: 0
Flags: HMW
LayerCount: 2
Fore
SplineSet
322 750 m 1
 31.5 -190 l 1
 145 -190 l 1
 135.5 -220 l 1
 -9.5 -220 l 1
 299.5 780 l 1
 444 780 l 1
 435 750 l 1
 322 750 l 1
EndSplineSet
EndChar

StartChar: bracketright
Encoding: 93 93 88
Width: 255
VWidth: 0
Flags: HMW
LayerCount: 2
Fore
SplineSet
38.5 -190 m 1
 328 750 l 1
 214.5 750 l 1
 224.5 780 l 1
 368.5 780 l 1
 59.5 -220 l 1
 -84 -220 l 1
 -75 -190 l 1
 38.5 -190 l 1
EndSplineSet
EndChar

StartChar: asciicircum
Encoding: 94 94 89
Width: 479
VWidth: 0
Flags: HMW
LayerCount: 2
Fore
SplineSet
416.5 669 m 1
 197 461.5 l 1
 161 461.5 l 1
 420.5 708.5 l 1
 431.5 708.5 l 1
 522.5 459.5 l 1
 492.5 459.5 l 1
 416.5 669 l 1
EndSplineSet
EndChar

StartChar: underscore
Encoding: 95 95 90
Width: 470
VWidth: 0
Flags: HMW
LayerCount: 2
Fore
SplineSet
-94.5 -116 m 1
 -86.5 -92.5 l 1
 385 -92.5 l 1
 377 -116 l 1
 -94.5 -116 l 1
EndSplineSet
EndChar

StartChar: grave
Encoding: 96 96 91
Width: 338
VWidth: 0
Flags: HMW
LayerCount: 2
Fore
SplineSet
262 683 m 1
 292.5 699.5 l 1
 400.5 539.5 l 1
 382.5 528.5 l 1
 262 683 l 1
EndSplineSet
EndChar

StartChar: braceleft
Encoding: 123 123 92
Width: 272
VWidth: 0
Flags: HMW
LayerCount: 2
Fore
SplineSet
313 646 m 2
 252.5 448 l 2
 229.5 377 198.5 312.5 124 286.5 c 1
 127 294.5 l 1
 191 260.5 172 192 154.5 132 c 2
 92.5 -66.5 l 2
 79.5 -111.5 68 -171 128 -171.5 c 2
 152.5 -171.5 l 1
 144.5 -200 l 1
 114.5 -200 l 2
 37 -200.5 48.5 -116 65.5 -60 c 2
 130.5 150 l 2
 144 197.5 151 238.5 117 277.5 c 1
 124.5 302.5 l 1
 172.5 333.5 198 376.5 216 430 c 2
 280 640.5 l 2
 302 706.5 337.5 779 413.5 779 c 2
 445.5 779 l 1
 437.5 752 l 1
 414.5 752 l 2
 354 752 330 698.5 313 646 c 2
EndSplineSet
EndChar

StartChar: braceright
Encoding: 125 125 93
Width: 272
VWidth: 0
Flags: HMW
LayerCount: 2
Fore
SplineSet
72.5 -66 m 2
 132.5 132 l 2
 156 203 186.5 267.5 261 293.5 c 1
 258.5 285.5 l 1
 194.5 319.5 213.5 388 231 448 c 2
 292.5 646.5 l 2
 305.5 691.5 317 751 257 751.5 c 2
 233.5 752 l 1
 241.5 780 l 1
 270.5 780 l 2
 348 780 336.5 696 319.5 640 c 2
 254.5 430 l 2
 241 382.5 235 341.5 269 302.5 c 1
 261.5 277.5 l 1
 213.5 246.5 188 203.5 170 150 c 2
 106 -60.5 l 2
 84 -126.5 47.5 -199.5 -28.5 -199.5 c 2
 -60 -199.5 l 1
 -51.5 -172.5 l 1
 -29.5 -172.5 l 2
 31 -172.5 55.5 -118.5 72.5 -66 c 2
EndSplineSet
EndChar

StartChar: asciitilde
Encoding: 126 126 94
Width: 541
VWidth: 0
Flags: HMW
LayerCount: 2
Fore
SplineSet
118.5 178 m 1
 91.5 181.5 l 1
 92.5 189.5 93 198 95 206 c 0
 104.5 235 122.5 264.5 144.5 285.5 c 0
 169.5 309 206 326 240.5 326 c 0
 285.5 325.5 309.5 292 332 258.5 c 0
 347.5 233 367 203 401.5 202.5 c 0
 449 201.5 487 250 501 291 c 0
 504.5 300.5 505 311.5 505.5 321 c 1
 534.5 317.5 l 1
 533.5 308.5 532.5 298 529.5 289 c 0
 521 261 505.5 231 484.5 210.5 c 0
 463 189.5 429 172 398.5 173 c 0
 357 174 333.5 205.5 312.5 236 c 0
 294 264.5 275.0205 296.6855 236 297 c 0
 177.5 297.5 137.5 246.5 122 200 c 0
 119.5 193 119.5 185 118.5 178 c 1
EndSplineSet
EndChar

StartChar: exclamdown
Encoding: 161 161 95
Width: 282
VWidth: 0
Flags: HMW
LayerCount: 2
Fore
SplineSet
35 -244.5 m 1
 -5 -244.5 l 1
 176 254 l 1
 198 254 l 1
 35 -244.5 l 1
273.5 441.5 m 0
 271 431.5 254 417.5 243 418.5 c 0
 231.5 419.5 224.5 431.5 227 443 c 0
 229.5 453 246.5 467 257.5 466 c 0
 269 465 276 453 273.5 441.5 c 0
EndSplineSet
EndChar

StartChar: cent
Encoding: 162 162 96
Width: 545
VWidth: 0
Flags: HMW
LayerCount: 2
Fore
SplineSet
236.5 7.5 m 1
 258 7.5 l 1
 218 -111 l 1
 190.5 -111 l 1
 236.5 7.5 l 1
133 230 m 0
 99.5 134.5 135.5 22 250.5 20.5 c 0
 315 20 372 50 423 85.5 c 1
 411 47.5 l 1
 361 15 305.5 -9 245 -9 c 0
 112 -8.5 66 117.5 103 230 c 0
 144.5 355 267.5 468.5 404 469 c 0
 456 469 499 450 534 411.5 c 1
 522 373.5 l 1
 494.5 418 452.5 440 399 439.5 c 0
 280 439 171 338 133 230 c 0
427.5 577 m 1
 456 577 l 1
 407.5 453.5 l 1
 386 453.5 l 1
 427.5 577 l 1
EndSplineSet
EndChar

StartChar: sterling
Encoding: 163 163 97
Width: 545
VWidth: 0
Flags: HMW
LayerCount: 2
Fore
SplineSet
132 324.5 m 1
 439.5 324.5 l 1
 428.5 295 l 1
 121.5 295 l 1
 132 324.5 l 1
557 492.5 m 1
 574 567 578 674.5 475.5 677 c 0
 391.5 679.5 308 609 280.5 532.5 c 0
 248 440.5 326.5 356 297.5 263.5 c 0
 262.5 153.5 151 83 64.5 16.5 c 1
 67.5 31.5 l 1
 430.5 31 l 1
 419.5 0 l 1
 25.5 0 l 1
 109 76.5 228.5 146 265.5 259.5 c 0
 295.5 353 218 438.5 248 532.5 c 0
 279 627.5 378.5 710.5 481 709 c 0
 598 707.5 605.5 589.5 587 501 c 1
 557 492.5 l 1
EndSplineSet
EndChar

StartChar: currency
Encoding: 164 164 98
Width: 531
VWidth: 0
Flags: HMW
LayerCount: 2
Fore
SplineSet
169 518 m 1
 197 538.5 l 1
 242 465 l 1
 215.5 445.5 l 1
 169 518 l 1
35.5 62 m 1
 21 85.5 l 1
 115 154 l 1
 129.5 131.5 l 1
 35.5 62 l 1
521 446 m 1
 505.5 468.5 l 1
 599.5 538 l 1
 613.5 514.5 l 1
 521 446 l 1
392.5 135 m 1
 419.5 154.5 l 1
 465 82 l 1
 439 61.5 l 1
 392.5 135 l 1
95.5 300 m 0
 135.5 422 259 539.5 393.5 539 c 0
 525 538.5 569.5 410.5 533 300 c 0
 493 178 369.5 60.5 235 61 c 0
 103.5 61.5 59 189.5 95.5 300 c 0
126.5 300 m 0
 94 206.5 125 91.5 240 90.5 c 0
 357.5 89.5 466 194.5 502.5 300 c 0
 535 393.5 503.5 508.5 388.5 509.5 c 0
 271 510.5 163 405.5 126.5 300 c 0
EndSplineSet
EndChar

StartChar: yen
Encoding: 165 165 99
Width: 535
VWidth: 0
Flags: HMW
LayerCount: 2
Fore
SplineSet
72.5 276.5 m 1
 82 305.5 l 1
 534 305.5 l 1
 524.5 276 l 1
 72.5 276.5 l 1
27 144 m 1
 37 173 l 1
 489.5 173 l 1
 480 143.5 l 1
 27 144 l 1
642.5 698.5 m 1
 680.5 698.5 l 1
 312 275 l 1
 217 0 l 1
 183.5 0 l 1
 282 280.5 l 1
 209.5 700 l 1
 243.5 700 l 1
 305.5 311 l 1
 642.5 698.5 l 1
EndSplineSet
EndChar

StartChar: brokenbar
Encoding: 166 166 100
Width: 215
VWidth: 0
Flags: HMW
LayerCount: 2
Fore
SplineSet
278 694 m 1
 306.5 694 l 1
 222 456 l 1
 193.5 456 l 1
 278 694 l 1
152.5 244 m 1
 68 6 l 1
 39.5 6 l 1
 124 244 l 1
 152.5 244 l 1
EndSplineSet
EndChar

StartChar: section
Encoding: 167 167 101
Width: 376
VWidth: 0
Flags: HMW
LayerCount: 2
Fore
SplineSet
477 605 m 1
 459.5 652.5 425.5 679 373 679 c 0
 321.5 679 250.5 649.5 234 595.5 c 0
 215.5 535 288 511 329.5 490 c 0
 380 464.5 438.5 428 420 362 c 0
 394.5 271 301 248 222 241.5 c 1
 225 251 l 1
 286.5 272.5 369.5 291.5 388.5 361.5 c 0
 404 419 346 448 303.5 468.5 c 0
 251 494 181.5 525 204 596.5 c 0
 226 667 308 708.5 378 709 c 0
 441 709.5 485 679 503 619.5 c 1
 477 605 l 1
44 137 m 1
 47 70 81.5 21.5 152.5 20 c 0
 210 18.5 280.5 48.5 301.5 107 c 0
 324.5 171.5 264 202.5 216.5 227.5 c 0
 165.5 255 102 292 122.5 360 c 0
 149 449.5 243.5 470.5 321 478.5 c 1
 319 471 l 1
 258 449 173.5 430.5 153.5 361.5 c 0
 135.5 300 198 271.5 242.5 248.5 c 0
 298 219.5 355.5 180 333 108.5 c 0
 309.5 31.5 221.5 -10.5 145.5 -9 c 0
 64 -7.5 18 45.5 15.5 123.5 c 1
 44 137 l 1
EndSplineSet
EndChar

StartChar: dieresis
Encoding: 168 168 102
Width: 410
VWidth: 0
Flags: HMW
LayerCount: 2
Fore
SplineSet
451.5 681 m 0
 453.5 691 470 705 481 704 c 0
 492.5 703 500 691 498 679.5 c 0
 496 669.5 478.5 655.5 467.5 656.5 c 0
 456 657.5 449.5 669.5 451.5 681 c 0
263.5 681 m 0
 265.5 691 282 705 293 704 c 0
 304.5 703 312 691 310 679.5 c 0
 308 669.5 290.5 655.5 279.5 656.5 c 0
 268 657.5 261.5 669.5 263.5 681 c 0
EndSplineSet
EndChar

StartChar: copyright
Encoding: 169 169 103
Width: 752
VWidth: 0
Flags: HMW
LayerCount: 2
Fore
SplineSet
271.5 350 m 0
 243.5 262.5 272.5 158 379.5 156 c 0
 433.5 154.5 481.5 179.5 525.5 207 c 1
 517.5 181 l 1
 474 155.5 428.5 134.5 377 135.5 c 0
 259.5 137 220 250.5 250 350 c 0
 282.5 460 386 563 505.5 564.5 c 0
 552 565.5 587.5 548.5 621 518.5 c 1
 613 492 l 1
 583.5 526 550.5 544 504 544 c 0
 395 543.5 302.5 448.5 271.5 350 c 0
134 350 m 0
 83.5 189.5 158 13.5 343.5 12.5 c 0
 535.5 11.5 710.5 173.5 766 350 c 0
 816.5 510.5 742 686.5 556.5 687.5 c 0
 364.5 688.5 189.5 526.5 134 350 c 0
110.5 350 m 0
 168 540.5 352.5 711 558 710 c 0
 756.5 709 842 524.5 789.5 350 c 0
 732 159.5 547 -11 341.5 -10 c 0
 143 -9 58 175.5 110.5 350 c 0
EndSplineSet
EndChar

StartChar: registered
Encoding: 174 174 104
Width: 752
VWidth: 0
Flags: HMW
LayerCount: 2
Fore
SplineSet
409.5 345.5 m 1
 431 345.5 l 1
 503.5 149.5 l 1
 479.5 149.5 l 1
 409.5 345.5 l 1
417 569.5 m 1
 437 569.5 l 1
 305.5 150.5 l 1
 286 150.5 l 1
 417 569.5 l 1
418.5 551.5 m 1
 424 569.5 l 1
 492.5 570 l 1
 560.5 566 613.5 523 592 450 c 0
 570.5 375.5 494 337 421.5 333 c 1
 351 332.5 l 1
 356 349.5 l 1
 424.5 349.5 l 1
 487 353.5 553 386.5 572 451 c 0
 591 513 547 546 489.5 550.5 c 1
 418.5 551.5 l 1
134 350 m 0
 83.5 189.5 158 13.5 343.5 12.5 c 0
 535.5 11.5 710.5 173.5 766 350 c 0
 816.5 510.5 742 686.5 556.5 687.5 c 0
 364.5 688.5 189.5 526.5 134 350 c 0
110.5 350 m 0
 168 540 352.5 711 558 710 c 0
 756.5 709 842 524.5 789.5 350 c 0
 732 160 547 -11 341.5 -10 c 0
 143 -9 58 175.5 110.5 350 c 0
EndSplineSet
EndChar

StartChar: ordfeminine
Encoding: 170 170 105
Width: 223
VWidth: 0
Flags: HMW
LayerCount: 2
Fore
SplineSet
163 529 m 0
 154 499 171 472.5 202 470.5 c 0
 247.5 468 279 509.5 302.5 542 c 1
 305 533.5 l 1
 281 496 247.5 454 197.5 456 c 0
 157 458 135.5 492.5 148.5 530.5 c 0
 163 573.5 217.5 603.5 260.5 603 c 0
 284.5 602.5 301 592 320.5 579 c 1
 317 568 l 1
 298.5 580 282 591 259.5 591.5 c 0
 223.5 592.5 174 565.5 163 529 c 0
219.5 658 m 1
 214.5 670.5 l 1
 239.5 684 270.5 703.5 301 701 c 0
 342.5 697 354.5 664.5 346.5 627.5 c 1
 287.5 461 l 1
 272 461 l 1
 331.5 628 l 1
 335.5 655.5 333.5 682.5 299.5 686 c 0
 271.5 689 242 671 219.5 658 c 1
EndSplineSet
EndChar

StartChar: ordmasculine
Encoding: 186 186 106
Width: 261
VWidth: 0
Flags: HMW
LayerCount: 2
Fore
SplineSet
161.5 581 m 0
 181 642 247.5 700 314 699 c 0
 380 698 406 636.5 387.5 579 c 0
 368 518 301.5 460 235 461 c 0
 169 462 143 523.5 161.5 581 c 0
179.5 580 m 0
 163 534 182 481 237 479.5 c 0
 293 478 351.5 529.5 369.5 580 c 0
 386 626 367 679 312 680.5 c 0
 256 682 197.5 630.5 179.5 580 c 0
EndSplineSet
EndChar

StartChar: guillemotleft
Encoding: 171 171 107
Width: 462
VWidth: 0
Flags: HMW
LayerCount: 2
Fore
SplineSet
253 256 m 1
 357 38 l 1
 333 20 l 1
 220.5 258 l 1
 491 488.5 l 1
 505.5 469.5 l 1
 253 256 l 1
102 256 m 1
 206.5 38 l 1
 182.5 20 l 1
 70 258 l 1
 340.5 488.5 l 1
 355.5 469.5 l 1
 102 256 l 1
EndSplineSet
EndChar

StartChar: guillemotright
Encoding: 187 187 108
Width: 462
VWidth: 0
Flags: HMW
LayerCount: 2
Fore
SplineSet
276 254 m 1
 172 472 l 1
 195.5 490 l 1
 309 252 l 1
 37.5 21.5 l 1
 23.5 40.5 l 1
 276 254 l 1
427 254 m 1
 323 472 l 1
 346.5 490 l 1
 459 252 l 1
 188 21.5 l 1
 174 40.5 l 1
 427 254 l 1
EndSplineSet
EndChar

StartChar: uni00AD
Encoding: 173 173 109
Width: 197
VWidth: 0
Flags: HMW
LayerCount: 2
Fore
SplineSet
34.5 246 m 1
 44 275 l 1
 234 275 l 1
 223.5 246 l 1
 34.5 246 l 1
EndSplineSet
EndChar

StartChar: logicalnot
Encoding: 172 172 110
Width: 583
VWidth: 0
Flags: HMW
LayerCount: 2
Fore
SplineSet
124 345.5 m 1
 134.5 375 l 1
 597.5 375 l 1
 526.5 176 l 1
 497.5 176 l 1
 558.5 345.5 l 1
 124 345.5 l 1
EndSplineSet
EndChar

StartChar: macron
Encoding: 175 175 111
Width: 479
VWidth: 0
Flags: HMW
LayerCount: 2
Fore
SplineSet
240 645.5 m 1
 249 675 l 1
 579 675 l 1
 570 645.5 l 1
 240 645.5 l 1
EndSplineSet
EndChar

StartChar: degree
Encoding: 176 176 112
Width: 261
VWidth: 0
Flags: HMW
LayerCount: 2
Fore
SplineSet
168 601 m 0
 187.5 662 254.5 720 321 719 c 0
 387 718 413 656.5 394.5 599 c 0
 375 538 308.5 480 242 481 c 0
 176 482 149.5 543.5 168 601 c 0
186.5 600 m 0
 170 554 189 501 244 499.5 c 0
 300 498 357.5 549.5 375.5 600 c 0
 392 646 373 699 318 700.5 c 0
 262 702 204.5 650.5 186.5 600 c 0
EndSplineSet
EndChar

StartChar: plusminus
Encoding: 177 177 113
Width: 574
VWidth: 0
Flags: HMW
LayerCount: 2
Fore
SplineSet
27.5 0 m 1
 36.5 31 l 1
 490.5 31 l 1
 481 0 l 1
 27.5 0 l 1
141 369.5 m 1
 150.5 400.5 l 1
 604.5 400.5 l 1
 595 369.5 l 1
 141 369.5 l 1
429 620 m 1
 461.5 620 l 1
 314.5 150 l 1
 283.5 150.5 l 1
 429 620 l 1
EndSplineSet
EndChar

StartChar: uni00B2
Encoding: 178 178 114
Width: 315
VWidth: 0
Flags: HMW
LayerCount: 2
Fore
SplineSet
68.5 283.5 m 1
 318.5 486.5 l 2
 352.5 514.5 392 548 407 591.5 c 0
 423 637.5 405 687 351 689.5 c 0
 276.5 693.5 228 617.5 199 560 c 1
 179.5 560 l 1
 212 628 266.5 710.5 353 708 c 0
 418.5 706.5 444 647.5 425.5 590 c 0
 410.5 543 371 506 334 475 c 2
 116.5 301.5 l 1
 338 300.5 l 1
 331.5 282.5 l 1
 68.5 283.5 l 1
EndSplineSet
EndChar

StartChar: uni00B3
Encoding: 179 179 115
Width: 290
VWidth: 0
Flags: HMW
LayerCount: 2
Fore
SplineSet
245.5 495.5 m 1
 250 508 l 1
 305 518 367.5 540 388.5 598 c 0
 404.5 641.5 382.5 684.5 335 687 c 0
 277.5 689.5 238 642 210.5 598 c 1
 191.5 598.5 l 1
 222 653.5 268 707 337 705 c 0
 396 703 426.5 651 407.5 597 c 0
 384 528.5 310.5 504.5 245.5 495.5 c 1
190.5 275 m 0
 117 275.5 97 327 106 391 c 1
 125 391 l 1
 118.5 338 129.5 295 192.5 293.5 c 0
 249 292 311 335 328 389 c 0
 348.5 453 298 478.5 244.5 489 c 1
 248.5 502 l 1
 312.5 492 370.5 461 347 386 c 0
 327 322 256.5 274.5 190.5 275 c 0
EndSplineSet
EndChar

StartChar: acute
Encoding: 180 180 116
Width: 338
VWidth: 0
Flags: HMW
LayerCount: 2
Fore
SplineSet
428.5 680 m 1
 215 529.5 l 1
 201 542.5 l 1
 405 698.5 l 1
 428.5 680 l 1
EndSplineSet
EndChar

StartChar: mu
Encoding: 181 181 117
Width: 460
VWidth: 0
Flags: HMW
LayerCount: 2
Fore
SplineSet
298.5 0 m 1
 457.5 459.5 l 1
 488.5 459.5 l 1
 329.5 0 l 1
 298.5 0 l 1
106 159 m 2
 87.5 99.5 83.5 22 165 20.5 c 0
 257.5 18 324 104 362.5 178 c 1
 377.5 178 l 1
 337 90.5 261.5 -10.5 153.5 -9 c 0
 55.5 -8.5 52.5 82.5 75 156 c 1
 181 459.5 l 1
 210 459 l 1
 106 159 l 2
180 459 m 1
 211.5 459.5 l 1
 -58 -319.5 l 1
 -87 -319 l 1
 180 459 l 1
EndSplineSet
EndChar

StartChar: paragraph
Encoding: 182 182 118
Width: 457
VWidth: 0
Flags: HMW
LayerCount: 2
Fore
SplineSet
446.5 674 m 1
 454.5 699.5 l 1
 578 699.5 l 1
 570 674 l 1
 446.5 674 l 1
560 699 m 1
 587.5 699 l 1
 272.5 -219 l 1
 245 -219 l 1
 560 699 l 1
454.5 699.5 m 1
 483.5 699 l 1
 167.5 -219 l 1
 140.5 -219 l 1
 454.5 699.5 l 1
310 270.5 m 1
 190 284 127.0105 366.4965 166.5 485.5 c 0
 209 614 324 700 454.5 699.5 c 1
 310 270.5 l 1
EndSplineSet
EndChar

StartChar: periodcentered
Encoding: 183 183 119
Width: 243
VWidth: 0
Flags: HMW
LayerCount: 2
Fore
SplineSet
121.5 227.5 m 0
 124 237.5 141 251.5 152 250.5 c 0
 163.5 249.5 171.5 237.5 169 226 c 0
 166.5 216 149 202 138 203 c 0
 126.5 204 119 216 121.5 227.5 c 0
EndSplineSet
EndChar

StartChar: uni00B9
Encoding: 185 185 120
Width: 442
VWidth: 0
Flags: HMW
LayerCount: 2
Fore
SplineSet
305 651 m 1
 311 671 l 1
 435.5 698 l 1
 287.5 275 l 1
 268.5 275 l 1
 405 672.5 l 1
 305 651 l 1
EndSplineSet
EndChar

StartChar: cedilla
Encoding: 184 184 121
Width: 329
VWidth: 0
Flags: HMW
LayerCount: 2
Fore
SplineSet
123 17.5 m 1
 149.5 17.5 l 1
 63 -68 l 1
 79 -61 98 -50.5 116 -52.5 c 0
 155 -57.5 172 -90.5 162.5 -127.5 c 0
 149 -180.5 82.5 -220 30 -219 c 0
 -2.5 -219 -21.5 -202.5 -43 -181 c 1
 -25 -166 l 1
 -8 -182 9 -196 34.5 -196 c 0
 74.5 -196 128 -165.5 139.5 -125.5 c 0
 147.5 -98 132 -74 103.5 -71 c 0
 77 -67.5 48 -82.5 24 -92.5 c 1
 123 17.5 l 1
EndSplineSet
EndChar

StartChar: questiondown
Encoding: 191 191 122
Width: 513
VWidth: 0
Flags: HMW
LayerCount: 2
Fore
SplineSet
108.5 185.5 m 0
 74 100.5 121.5 21.5 214 20.5 c 0
 294.5 19.5 360.5 70.5 417 122 c 1
 438.5 104.5 l 1
 374.5 45 298.5 -10.5 206.5 -9 c 0
 96 -7 44 86 78 186.5 c 0
 117.5 302.5 237.5 361 351 377 c 1
 407.5 529.5 l 1
 430 530 l 1
 381.5 355 l 1
 374.5 355.5 l 1
 216 338.5 137 257 108.5 185.5 c 0
499 686.5 m 0
 496.5 676.5 479 662.5 468 663.5 c 0
 456.5 664.5 450 676.5 452.5 688 c 0
 455 698 472 712 483 711 c 0
 494.5 710 501.5 698 499 686.5 c 0
EndSplineSet
EndChar

StartChar: multiply
Encoding: 215 215 123
Width: 548
VWidth: 0
Flags: HMW
LayerCount: 2
Fore
SplineSet
52 40 m 1
 37 63.5 l 1
 290 255.5 l 1
 169.5 450.5 l 1
 195.5 470.5 l 1
 311.5 275 l 1
 563 469 l 1
 577.5 445.5 l 1
 324.5 253 l 1
 444 59 l 1
 418 39 l 1
 302 233.5 l 1
 52 40 l 1
EndSplineSet
EndChar

StartChar: Oslash
Encoding: 216 216 124
Width: 743
VWidth: 0
Flags: HMW
LayerCount: 2
Fore
SplineSet
143 350 m 0
 92.5 203.5 137 26.5 318 25 c 0
 503 23.5 663.5 185 720.5 350 c 0
 771 496.5 726.5 673.5 545.5 675 c 0
 360.5 676.5 200 515 143 350 c 0
108.5 350 m 0
 169.5 534 348 709.5 551 708.5 c 0
 749.5 707.5 809.5 514.5 755 350 c 0
 694 166 515.5 -9.5 312.5 -8.5 c 0
 114 -7.5 54 185.5 108.5 350 c 0
859.5 737 m 1
 880.5 719.5 l 1
 10.5 -37 l 1
 -10 -19.5 l 1
 859.5 737 l 1
EndSplineSet
EndChar

StartChar: Thorn
Encoding: 222 222 125
Width: 497
VWidth: 0
Flags: HMW
LayerCount: 2
Fore
SplineSet
260 699 m 1
 292.5 699.5 l 1
 50.5 0 l 1
 20.5 0 l 1
 260 699 l 1
216 529 m 1
 227.5 560 l 1
 369 560 l 0
 488 555 564 468 524.5 349.5 c 0
 483.5 225 357.5 145 230 140 c 0
 83.5 140 l 1
 95 171 l 1
 236 171 l 0
 345 176.5 455.5 244.5 492.5 350 c 0
 528 451.5 464.5 523 362.5 528.5 c 1
 216 529 l 1
EndSplineSet
EndChar

StartChar: divide
Encoding: 247 247 126
Width: 586
VWidth: 0
Flags: HMW
LayerCount: 2
Fore
SplineSet
368 451.5 m 0
 370.5 461.5 387.5 475.5 398.5 474.5 c 0
 410 473.5 417 461.5 414.5 450 c 0
 412 440 395 426 384 427 c 0
 372.5 428 365.5 440 368 451.5 c 0
228.5 43.5 m 0
 231 53.5 248 67.5 259 66.5 c 0
 270.5 65.5 278 53.5 275.5 42 c 0
 273 32 256 18 245 19 c 0
 233.5 20 226 32 228.5 43.5 c 0
81.5 232.5 m 1
 92 263 l 1
 563 263 l 1
 553 232 l 1
 81.5 232.5 l 1
EndSplineSet
EndChar

StartChar: oslash
Encoding: 248 248 127
Width: 513
VWidth: 0
Flags: HMW
LayerCount: 2
Fore
SplineSet
62.5 230 m 0
 103 353.5 227.5 469.5 363.5 469 c 0
 496.5 468.5 543.5 342.5 506.5 230 c 0
 466 106.5 341 -9.5 205 -9 c 0
 72 -8.5 25.5 117.5 62.5 230 c 0
93.5 230 m 0
 60 134 94 21.5 210 20.5 c 0
 329 19.5 438.5 122.5 475.5 230 c 0
 509 326 475 438.5 359 439.5 c 0
 240 440.5 130.5 337.5 93.5 230 c 0
539.5 494 m 1
 557.5 482.5 l 1
 10.5 -38 l 1
 -6.5 -26.5 l 1
 539.5 494 l 1
EndSplineSet
EndChar

StartChar: circumflex
Encoding: 710 710 128
Width: 451
VWidth: 0
Flags: HMW
LayerCount: 2
Fore
SplineSet
411.5 695 m 1
 236 575 l 1
 221 592.5 l 1
 419 729.5 l 1
 524.5 589.5 l 1
 501.5 573.5 l 1
 411.5 695 l 1
EndSplineSet
EndChar

StartChar: ogonek
Encoding: 731 731 129
Width: 237
VWidth: 0
Flags: HMW
LayerCount: 2
Fore
SplineSet
109 -161 m 1
 118 -181.5 l 1
 87 -201 55.5 -219.5 17.5 -219 c 0
 -33.5 -219 -75 -187.5 -61.5 -133 c 0
 -42 -56 58.5 -16 122.5 13.5 c 1
 136 0 l 1
 81.5 -28 -14.5 -60 -30.5 -128 c 0
 -39 -165.5 -11.5 -189 24 -191 c 0
 54.5 -192.5 83.5 -176 109 -161 c 1
EndSplineSet
EndChar

StartChar: tilde
Encoding: 732 732 130
Width: 498
VWidth: 0
Flags: HMW
LayerCount: 2
Fore
SplineSet
283.5 643.5 m 1
 304.5 673.5 332 707 373 706 c 0
 412.5 705.5 435.5 658.5 476 661 c 0
 504.5 662.5 525.5 688.5 544 707 c 1
 561 691.5 l 1
 537.5 666.5 507.5 634 470 635 c 0
 431.5 636 409.5 680 370.5 680 c 0
 338.5 680 319.5 654.5 303 631 c 1
 283.5 643.5 l 1
EndSplineSet
EndChar

StartChar: ring
Encoding: 730 730 131
Width: 261
VWidth: 0
Flags: HMW
LayerCount: 2
Fore
SplineSet
247.5 786.5 m 0
 264 837 322.5 885 377 884 c 0
 431 883 457 832 441.5 783.5 c 0
 425 733 366.5 685 312 686 c 0
 258 687 232 738 247.5 786.5 c 0
268.5 784.5 m 0
 257 749 275 709.5 315.5 707 c 0
 357 704.5 408 747.5 420.5 785.5 c 0
 432 821 414 860.5 373.5 863 c 0
 332 865.5 281 822.5 268.5 784.5 c 0
EndSplineSet
EndChar

StartChar: dotaccent
Encoding: 729 729 132
Width: 243
VWidth: 0
Flags: HMW
LayerCount: 2
Fore
SplineSet
304.5 763.5 m 0
 307 773.5 324 787.5 335 786.5 c 0
 346.5 785.5 353.5 773.5 351 762 c 0
 348.5 752 332 738 321 739 c 0
 309.5 740 302 752 304.5 763.5 c 0
EndSplineSet
EndChar

StartChar: uni2010
Encoding: 8208 8208 133
Width: 197
VWidth: 0
Flags: HMW
LayerCount: 2
Fore
SplineSet
34.5 246 m 1
 44 275 l 1
 234 275 l 1
 223.5 246 l 1
 34.5 246 l 1
EndSplineSet
EndChar

StartChar: endash
Encoding: 8211 8211 134
Width: 696
VWidth: 0
Flags: HMW
LayerCount: 2
Fore
SplineSet
95.5 246 m 1
 105 275 l 1
 671 275 l 1
 661.5 245.5 l 1
 95.5 246 l 1
EndSplineSet
EndChar

StartChar: figuredash
Encoding: 8210 8210 135
Width: 555
VWidth: 0
Flags: HMW
LayerCount: 2
Fore
SplineSet
95.5 246 m 1
 105 275 l 1
 530 275 l 1
 520.5 245.5 l 1
 95.5 246 l 1
EndSplineSet
EndChar

StartChar: emdash
Encoding: 8212 8212 136
Width: 837
VWidth: 0
Flags: HMW
LayerCount: 2
Fore
SplineSet
95.5 246 m 1
 105 275 l 1
 812 275 l 1
 802.5 245.5 l 1
 95.5 246 l 1
EndSplineSet
EndChar

StartChar: minus
Encoding: 8722 8722 137
Width: 555
VWidth: 0
Flags: HMW
LayerCount: 2
Fore
SplineSet
95.5 246 m 1
 105 275 l 1
 530 275 l 1
 520.5 245.5 l 1
 95.5 246 l 1
EndSplineSet
EndChar

StartChar: quoteright
Encoding: 8217 8217 138
Width: 238
VWidth: 0
Flags: HMW
LayerCount: 2
Fore
SplineSet
330 698.5 m 1
 367.5 698.5 l 1
 194.5 472 l 1
 171 472 l 1
 330 698.5 l 1
EndSplineSet
EndChar

StartChar: quoteleft
Encoding: 8216 8216 139
Width: 225
VWidth: 0
Flags: HMW
LayerCount: 2
Fore
SplineSet
200.5 471.5 m 1
 162 471.5 l 1
 335 698 l 1
 359 698 l 1
 200.5 471.5 l 1
EndSplineSet
EndChar

StartChar: quotesinglbase
Encoding: 8218 8218 140
Width: 238
VWidth: 0
Flags: HMW
LayerCount: 2
Fore
SplineSet
107.5 78.5 m 1
 146 78.5 l 1
 -27 -148 l 1
 -50.5 -148 l 1
 107.5 78.5 l 1
EndSplineSet
EndChar

StartChar: quotedblleft
Encoding: 8220 8220 141
Width: 387
VWidth: 0
Flags: HMW
LayerCount: 2
Fore
SplineSet
213 471.5 m 1
 175 471.5 l 1
 348.5 698 l 1
 372 698 l 1
 213 471.5 l 1
362 471.5 m 1
 324 471.5 l 1
 496.5 698 l 1
 521 698 l 1
 362 471.5 l 1
EndSplineSet
EndChar

StartChar: quotedblright
Encoding: 8221 8221 142
Width: 387
VWidth: 0
Flags: HMW
LayerCount: 2
Fore
SplineSet
316.5 698.5 m 1
 354.5 698.5 l 1
 182 472 l 1
 157.5 472 l 1
 316.5 698.5 l 1
465.5 698.5 m 1
 503.5 698.5 l 1
 330 472 l 1
 306.5 472 l 1
 465.5 698.5 l 1
EndSplineSet
EndChar

StartChar: perthousand
Encoding: 8240 8240 143
Width: 1024
VWidth: 0
Flags: HMW
LayerCount: 2
Fore
SplineSet
701 144 m 0
 727 223 807.5 295.5 894 295 c 0
 979.5 294.5 1011.5 216 987.5 142 c 0
 961.5 63 881 -9.5 794.5 -9 c 0
 709 -8.5 677 70 701 144 c 0
728.5 143 m 0
 708 85.5 729 18.5 798.5 17 c 0
 869 15.5 937 79 959.5 143 c 0
 980 201 958.5 267 889.5 268.5 c 0
 819 270 751 207 728.5 143 c 0
168 558 m 0
 194 637 274 709.5 360.5 709 c 0
 446 708.5 478 630 454 556 c 0
 428 477 347.5 404.5 261 405 c 0
 175.5 405.5 144 484 168 558 c 0
195 557 m 0
 174.5 499.5 196 432.5 265.5 431 c 0
 336 429.5 404 493 426.5 557 c 0
 447 615 425.5 681 356.5 682.5 c 0
 286 684 217.5 621 195 557 c 0
350.5 144 m 0
 376.5 223 456.5 295.5 543 295 c 0
 628.5 294.5 660.5 216 636.5 142 c 0
 610.5 63 530 -9.5 443.5 -9 c 0
 358 -8.5 326.5 70 350.5 144 c 0
377.5 143 m 0
 357 85.5 377.5 18.5 447 17 c 0
 517.5 15.5 586.5 79 609 143 c 0
 629.5 201 607.5 267 538.5 268.5 c 0
 468 270 400 207 377.5 143 c 0
720 698.5 m 1
 752.5 698.5 l 1
 84 0 l 1
 52.5 0 l 1
 720 698.5 l 1
EndSplineSet
EndChar

StartChar: guilsinglleft
Encoding: 8249 8249 144
Width: 312
VWidth: 0
Flags: HMW
LayerCount: 2
Fore
SplineSet
102 256 m 1
 206.5 38 l 1
 182.5 20 l 1
 70 258 l 1
 340.5 488.5 l 1
 355.5 469.5 l 1
 102 256 l 1
EndSplineSet
EndChar

StartChar: guilsinglright
Encoding: 8250 8250 145
Width: 329
VWidth: 0
Flags: HMW
LayerCount: 2
Fore
SplineSet
292.5 254 m 1
 188 472 l 1
 212 490 l 1
 325 252 l 1
 54.5 21.5 l 1
 39.5 40.5 l 1
 292.5 254 l 1
EndSplineSet
EndChar

StartChar: uni2031
Encoding: 8241 8241 146
Width: 1374
VWidth: 0
Flags: HMW
LayerCount: 2
Fore
SplineSet
1052 144 m 0
 1078 223 1159 295.5 1245.5 295 c 0
 1331 294.5 1362.5 216 1338.5 142 c 0
 1312.5 63 1232 -9.5 1145.5 -9 c 0
 1060 -8.5 1028 70 1052 144 c 0
1079.5 143 m 0
 1059 85.5 1080 18.5 1149.5 17 c 0
 1220 15.5 1289 79 1311.5 143 c 0
 1332 201 1309.5 267 1240.5 268.5 c 0
 1170 270 1102 207 1079.5 143 c 0
701 144 m 0
 727 223 807.5 295.5 894 295 c 0
 979.5 294.5 1011.5 216 987.5 142 c 0
 961.5 63 881 -9.5 794.5 -9 c 0
 709 -8.5 677 70 701 144 c 0
728.5 143 m 0
 708 85.5 729 18.5 798.5 17 c 0
 869 15.5 937 79 959.5 143 c 0
 980 201 958.5 267 889.5 268.5 c 0
 819 270 751 207 728.5 143 c 0
168 558 m 0
 194 637 274 709.5 360.5 709 c 0
 446 708.5 478 630 454 556 c 0
 428 477 347.5 404.5 261 405 c 0
 175.5 405.5 144 484 168 558 c 0
195 557 m 0
 174.5 499.5 196 432.5 265.5 431 c 0
 336 429.5 404 493 426.5 557 c 0
 447 615 425.5 681 356.5 682.5 c 0
 286 684 217.5 621 195 557 c 0
350.5 144 m 0
 376.5 223 456.5 295.5 543 295 c 0
 628.5 294.5 660.5 216 636.5 142 c 0
 610.5 63 530 -9.5 443.5 -9 c 0
 358 -8.5 326.5 70 350.5 144 c 0
377.5 143 m 0
 357 85.5 377.5 18.5 447 17 c 0
 517.5 15.5 586.5 79 609 143 c 0
 629.5 201 607.5 267 538.5 268.5 c 0
 468 270 400 207 377.5 143 c 0
720 698.5 m 1
 752.5 698.5 l 1
 84 0 l 1
 52.5 0 l 1
 720 698.5 l 1
EndSplineSet
EndChar

StartChar: uni203D
Encoding: 8253 8253 147
Width: 524
VWidth: 0
Flags: HMW
LayerCount: 2
Fore
SplineSet
536.5 514 m 0
 567.5 599.5 525 678.5 430 679.5 c 0
 349.5 680.5 284 629.5 227.5 578 c 1
 206.5 595.5 l 1
 270.5 655 346 710.5 438 709 c 0
 548.5 707 601 614 567 513.5 c 0
 528.5 401.5 418 338 306 323.5 c 1
 292 346.5 l 1
 394.5 358 499 411.5 536.5 514 c 0
340.5 509.5 m 1
 378.5 509 l 1
 252 171 l 1
 230.5 171 l 1
 340.5 509.5 l 1
165 13.5 m 0
 167.5 23.5 184.5 37.5 195.5 36.5 c 0
 207 35.5 214.5 23.5 212 12 c 0
 209.5 2 192.5 -12 181.5 -11 c 0
 170 -10 162.5 2 165 13.5 c 0
EndSplineSet
EndChar

StartChar: Euro
Encoding: 8364 8364 148
Width: 624
VWidth: 0
Flags: HMW
LayerCount: 2
Fore
SplineSet
147 434 m 1
 154 454.5 l 1
 626 454.5 l 1
 619.5 434 l 1
 147 434 l 1
106 314 m 1
 113 334.5 l 1
 561 334.5 l 1
 553.5 314 l 1
 106 314 l 1
215 350 m 0
 173.5 229.5 162.5 24.5 338 22 c 0
 395.5 21 449 44.5 499.5 70.5 c 1
 486 30.5 l 1
 437.5 9 386 -9.5 332.5 -9 c 0
 137.5 -7.5 136.5 211.5 183 350 c 0
 238 516 380 709.5 573.5 709 c 0
 622 709 663.5 693.5 704 669.5 c 1
 691 629 l 1
 655 660.5 616.5 679 567.5 679 c 0
 391.5 679.5 266 499.5 215 350 c 0
EndSplineSet
EndChar

StartChar: fraction
Encoding: 8260 8260 149
Width: 663
VWidth: 0
Flags: HMW
LayerCount: 2
Fore
SplineSet
764 698 m 1
 792.5 697.5 l 1
 29 0 l 1
 1 0 l 1
 764 698 l 1
EndSplineSet
EndChar

StartChar: onequarter
Encoding: 188 188 150
Width: 709
VWidth: 0
Flags: HMW
LayerCount: 2
Fore
SplineSet
800 698 m 1
 828 697.5 l 1
 65 0 l 1
 37 0 l 1
 800 698 l 1
190 651 m 1
 196 671 l 1
 320.5 698 l 1
 173 275 l 1
 153.5 275 l 1
 290 672.5 l 1
 190 651 l 1
351 84.5 m 1
 371 101 l 1
 567 101.5 l 1
 571.5 101.5 l 1
 642 101.5 l 1
 637 84.5 l 1
 351 84.5 l 1
371 86 m 1
 349.5 86.5 l 1
 682 417.5 l 1
 688.5 419 l 1
 545.5 0 l 1
 526 0 l 1
 558 91.5 l 1
 558.5 95 l 1
 653.5 366.5 l 1
 371 86 l 1
EndSplineSet
EndChar

StartChar: onehalf
Encoding: 189 189 151
Width: 770
VWidth: 0
Flags: HMW
LayerCount: 2
Fore
SplineSet
800 698 m 1
 828 697.5 l 1
 65 0 l 1
 37 0 l 1
 800 698 l 1
190 651 m 1
 196 671 l 1
 320.5 698 l 1
 173 275 l 1
 153.5 275 l 1
 290 672.5 l 1
 190 651 l 1
412 3.5 m 1
 662 205.5 l 2
 696 233.5 735.5 267.5 750.5 311 c 0
 766.5 357 748.5 405.5 694.5 409 c 0
 620 413 571.5 337.5 542.5 280 c 1
 523 280 l 1
 555.5 348 610 430.5 696.5 428 c 0
 762 425.5 788.5 367 770 309.5 c 0
 755 262.5 714 226 677 195 c 2
 460.5 21.5 l 1
 681.5 20.5 l 1
 675.5 2.5 l 1
 412 3.5 l 1
EndSplineSet
EndChar

StartChar: threequarters
Encoding: 190 190 152
Width: 771
VWidth: 0
Flags: HMW
LayerCount: 2
Fore
SplineSet
863 698 m 1
 891.5 697.5 l 1
 128 0 l 1
 100 0 l 1
 863 698 l 1
250.5 495.5 m 1
 255 508 l 1
 310 518 372.5 540 393.5 598 c 0
 409.5 641.5 387 684.5 339.5 687 c 0
 282 689.5 242 642 214.5 598 c 1
 196 598.5 l 1
 226.5 653.5 273 707 342 705 c 0
 401 703 431.5 651 412.5 597 c 0
 389 528.5 315.5 504.5 250.5 495.5 c 1
195 275 m 0
 121.5 275.5 101 327 110 391 c 1
 129 391 l 1
 122.5 338 133.5 295 196.5 293.5 c 0
 253 292 316 335 333 389 c 0
 353.5 453 302.5 478.5 249 489 c 1
 253.5 502 l 1
 317.5 492 375.5 461 352 386 c 0
 332 322 261 274.5 195 275 c 0
414 84.5 m 1
 434 101 l 1
 630 101.5 l 1
 634.5 101.5 l 1
 705 101.5 l 1
 700 84.5 l 1
 414 84.5 l 1
434.5 86 m 1
 412.5 86.5 l 1
 745 417.5 l 1
 751.5 419 l 1
 608.5 0 l 1
 589 0 l 1
 621 91.5 l 1
 622 95 l 1
 716.5 366.5 l 1
 434.5 86 l 1
EndSplineSet
EndChar

StartChar: uni2150
Encoding: 8528 8528 153
Width: 792
VWidth: 0
Flags: HMW
LayerCount: 2
Fore
SplineSet
753 698 m 1
 781 697.5 l 1
 18 0 l 1
 -10 0 l 1
 753 698 l 1
190 651 m 1
 196 671 l 1
 320.5 698 l 1
 173 275 l 1
 153.5 275 l 1
 290 672.5 l 1
 190 651 l 1
573.5 401.5 m 1
 579 419.5 l 1
 851 419 l 1
 503 0 l 1
 481 0 l 1
 813 400.5 l 1
 573.5 401.5 l 1
EndSplineSet
EndChar

StartChar: uni2151
Encoding: 8529 8529 154
Width: 737
VWidth: 0
Flags: HMW
LayerCount: 2
Fore
SplineSet
753 698 m 1
 781 697.5 l 1
 18 0 l 1
 -10 0 l 1
 753 698 l 1
190 651 m 1
 196 671 l 1
 320.5 698 l 1
 173 275 l 1
 153.5 275 l 1
 290 672.5 l 1
 190 651 l 1
723.5 288 m 0
 742.5 343 725.5 407.5 658.5 409 c 0
 591 410.5 525.5 348.5 505 288 c 0
 488 236.5 506.5 175.5 568.5 172.5 c 0
 635 169.5 702.5 228 723.5 288 c 0
485.5 4 m 1
 460.5 5 l 1
 662.5 197 l 1
 665 195.5 l 1
 634 176 599.5 155 561.5 156.5 c 0
 491 158.5 469 230 487.5 289 c 0
 510 360.5 583.5 428.5 660.5 427 c 0
 738.5 425.5 764.5 355 742 288 c 0
 730.5 253 706 222 681 195.5 c 1
 485.5 4 l 1
EndSplineSet
EndChar

StartChar: uni2152
Encoding: 8530 8530 155
Width: 1016
VWidth: 0
Flags: HMW
LayerCount: 2
Fore
SplineSet
753 698 m 1
 781 697.5 l 1
 18 0 l 1
 -10 0 l 1
 753 698 l 1
190 651 m 1
 196 671 l 1
 320.5 698 l 1
 173 275 l 1
 153.5 275 l 1
 290 672.5 l 1
 190 651 l 1
498 378 m 1
 504 398 l 1
 627.5 425 l 1
 480.5 2 l 1
 461 2 l 1
 598 399.5 l 1
 498 378 l 1
734.5 210 m 0
 715.5 155 682 16 776.5 13.5 c 0
 870.5 11 931.5 136 957.5 210 c 0
 976.5 265 1011 404 916.5 406.5 c 0
 822.5 409 760.5 284 734.5 210 c 0
714 210 m 0
 742.5 294.5 812.5 426 918 425 c 0
 1026 423.5 1000.5 276.5 978.5 210 c 0
 950 125.5 880 -6 774.5 -5 c 0
 666.5 -3.5 692 143.5 714 210 c 0
EndSplineSet
EndChar

StartChar: onethird
Encoding: 8531 8531 156
Width: 710
VWidth: 0
Flags: HMW
LayerCount: 2
Fore
SplineSet
753 698 m 1
 781 697.5 l 1
 18 0 l 1
 -10 0 l 1
 753 698 l 1
190 651 m 1
 196 671 l 1
 320.5 698 l 1
 173 275 l 1
 153.5 275 l 1
 290 672.5 l 1
 190 651 l 1
562 215.5 m 1
 567 228 l 1
 622 238 684.5 260 705.5 318 c 0
 721.5 361.5 699 404.5 651.5 407 c 0
 594 409.5 554 362 526.5 318 c 1
 508 318.5 l 1
 538.5 373.5 584 427 653 425 c 0
 712 423 743.5 371 724.5 317 c 0
 701 248.5 627 224.5 562 215.5 c 1
506.5 -5 m 0
 433 -4.5 413 47 422 111 c 1
 441 111 l 1
 434.5 58 445.5 15 508.5 13.5 c 0
 565 12 628 55 645 109 c 0
 665.5 173 614 198.5 560.5 209 c 1
 565.5 222 l 1
 629.5 212 687 181 663.5 106 c 0
 643.5 42 572.5 -5.5 506.5 -5 c 0
EndSplineSet
EndChar

StartChar: twothirds
Encoding: 8532 8532 157
Width: 829
VWidth: 0
Flags: HMW
LayerCount: 2
Fore
SplineSet
873 698 m 1
 901 697.5 l 1
 137 0 l 1
 109 0 l 1
 873 698 l 1
72 283.5 m 1
 322 486.5 l 2
 356 514.5 395.5 548 410.5 591.5 c 0
 426.5 637.5 408.5 686.5 354.5 689 c 0
 280 693 231.5 617.5 202.5 560 c 1
 183 560 l 1
 215.5 628 270 710.5 356.5 708 c 0
 422 706.5 448 647.5 429.5 590 c 0
 414.5 543 373.5 506 336.5 475 c 2
 120.5 301.5 l 1
 341.5 300.5 l 1
 335.5 282.5 l 1
 72 283.5 l 1
681.5 215.5 m 1
 686 228 l 1
 741 238 803.5 260 824.5 318 c 0
 840.5 361.5 818.5 404.5 771 407 c 0
 713.5 409.5 674 362 646.5 318 c 1
 627.5 318.5 l 1
 658 373.5 704 427 773 425 c 0
 832 423 862.5 371 843.5 317 c 0
 820 248.5 746.5 224.5 681.5 215.5 c 1
626.5 -5 m 0
 553 -4.5 533 47 542 111 c 1
 561 111 l 1
 554.5 58 565.5 15 628.5 13.5 c 0
 685 12 747 55 764 109 c 0
 784.5 173 734 198.5 680.5 209 c 1
 684.5 222 l 1
 748.5 212 806.5 181 783 106 c 0
 763 42 692.5 -5.5 626.5 -5 c 0
EndSplineSet
EndChar

StartChar: uni2155
Encoding: 8533 8533 158
Width: 700
VWidth: 0
Flags: HMW
LayerCount: 2
Fore
SplineSet
753 698 m 1
 781 697.5 l 1
 18 0 l 1
 -10 0 l 1
 753 698 l 1
190 651 m 1
 196 671 l 1
 320.5 698 l 1
 173 275 l 1
 153.5 275 l 1
 290 672.5 l 1
 190 651 l 1
645 135 m 0
 621 60.5 547.5 -7.5 466 -7 c 0
 408 -7 382.5 29.5 369 80.5 c 1
 387 91 l 1
 398 46.5 417 12.5 467.5 11.5 c 0
 538.5 10.5 604 72 625 136 c 0
 642.5 187.5 627 246.5 565 250.5 c 0
 515.5 254 470 222.5 431.5 196.5 c 1
 454.5 219.5 l 1
 484.5 247.5 531 270 573 268.5 c 0
 646 266 664.5 194.5 645 135 c 0
571.5 399.5 m 1
 465.5 223.5 l 1
 427.5 193 l 1
 561 417 l 1
 747.5 417.5 l 1
 742 400.5 l 1
 571.5 399.5 l 1
EndSplineSet
EndChar

StartChar: uni2156
Encoding: 8534 8534 159
Width: 819
VWidth: 0
Flags: HMW
LayerCount: 2
Fore
SplineSet
873 698 m 1
 901 697.5 l 1
 137 0 l 1
 109 0 l 1
 873 698 l 1
72 283.5 m 1
 322 486.5 l 2
 356 514.5 395.5 548 410.5 591.5 c 0
 426.5 637.5 408.5 686.5 354.5 689 c 0
 280 693 231.5 617.5 202.5 560 c 1
 183 560 l 1
 215.5 628 270 710.5 356.5 708 c 0
 422 706.5 448 647.5 429.5 590 c 0
 414.5 543 373.5 506 336.5 475 c 2
 120.5 301.5 l 1
 341.5 300.5 l 1
 335.5 282.5 l 1
 72 283.5 l 1
764 135 m 0
 740 60.5 667 -7.5 585.5 -7 c 0
 527.5 -7 502 29.5 488.5 80.5 c 1
 507 91 l 1
 518 46.5 537 12.5 587.5 11.5 c 0
 658.5 10.5 723 72 744 136 c 0
 761.5 187.5 747 246.5 685 250.5 c 0
 635.5 254 590 222.5 551.5 196.5 c 1
 573.5 219.5 l 1
 603.5 247.5 651 270 693 268.5 c 0
 766 266 783.5 194.5 764 135 c 0
690.5 399.5 m 1
 585.5 223.5 l 1
 546.5 193 l 1
 680 417 l 1
 866.5 417.5 l 1
 861 400.5 l 1
 690.5 399.5 l 1
EndSplineSet
EndChar

StartChar: uni2157
Encoding: 8535 8535 160
Width: 781
VWidth: 0
Flags: HMW
LayerCount: 2
Fore
SplineSet
835 698 m 1
 863 697.5 l 1
 100 0 l 1
 71.5 0 l 1
 835 698 l 1
250.5 495.5 m 1
 255 508 l 1
 310 518 372.5 540 393.5 598 c 0
 409.5 641.5 387 684.5 339.5 687 c 0
 282 689.5 242 642 214.5 598 c 1
 196 598.5 l 1
 226.5 653.5 273 707 342 705 c 0
 401 703 431.5 651 412.5 597 c 0
 389 528.5 315.5 504.5 250.5 495.5 c 1
195 275 m 0
 121.5 275.5 101 327 110 391 c 1
 129 391 l 1
 122.5 338 133.5 295 196.5 293.5 c 0
 253 292 316 335 333 389 c 0
 353.5 453 302.5 478.5 249 489 c 1
 253.5 502 l 1
 317.5 492 375.5 461 352 386 c 0
 332 322 261 274.5 195 275 c 0
727 135 m 0
 703 60.5 629.5 -7.5 548 -7 c 0
 490 -7 464.5 29.5 451 80.5 c 1
 469 91 l 1
 480 46.5 499 12.5 549.5 11.5 c 0
 620.5 10.5 686 72 707 136 c 0
 724.5 187.5 709 246.5 647 250.5 c 0
 597.5 254 552 222.5 513.5 196.5 c 1
 536.5 219.5 l 1
 566.5 247.5 613 270 655 268.5 c 0
 728 266 746.5 194.5 727 135 c 0
652.5 399.5 m 1
 547.5 223.5 l 1
 509.5 193 l 1
 642.5 417 l 1
 829.5 417.5 l 1
 823.5 400.5 l 1
 652.5 399.5 l 1
EndSplineSet
EndChar

StartChar: uni2158
Encoding: 8536 8536 161
Width: 814
VWidth: 0
Flags: HMW
LayerCount: 2
Fore
SplineSet
868 698 m 1
 896 697.5 l 1
 133 0 l 1
 104.5 0 l 1
 868 698 l 1
101.5 364.5 m 1
 121.5 381 l 1
 317.5 381.5 l 1
 322 381.5 l 1
 393.5 381.5 l 1
 387.5 364.5 l 1
 101.5 364.5 l 1
122 366 m 1
 100 366.5 l 1
 433 698.5 l 1
 441 699 l 1
 296 281 l 1
 276 281 l 1
 308.5 371.5 l 1
 309 375 l 1
 404 646.5 l 1
 122 366 l 1
760 135 m 0
 736 60.5 662.5 -7.5 581 -7 c 0
 523 -7 497.5 29.5 484 80.5 c 1
 502 91 l 1
 513 46.5 532 12.5 582.5 11.5 c 0
 653.5 10.5 718.5 72 739.5 136 c 0
 757 187.5 742 246.5 680 250.5 c 0
 630.5 254 585 222.5 546.5 196.5 c 1
 568.5 219.5 l 1
 598.5 247.5 646 270 688 268.5 c 0
 761 266 779.5 194.5 760 135 c 0
685.5 399.5 m 1
 580.5 223.5 l 1
 542.5 193 l 1
 675.5 417 l 1
 861.5 417.5 l 1
 856.5 400.5 l 1
 685.5 399.5 l 1
EndSplineSet
EndChar

StartChar: uni2159
Encoding: 8537 8537 162
Width: 690
VWidth: 0
Flags: HMW
LayerCount: 2
Fore
SplineSet
753 698 m 1
 781 697.5 l 1
 18 0 l 1
 -10 0 l 1
 753 698 l 1
190 651 m 1
 196 671 l 1
 320.5 698 l 1
 173 275 l 1
 153.5 275 l 1
 290 672.5 l 1
 190 651 l 1
409.5 132 m 0
 390.5 77 408 12.5 475 11 c 0
 542.5 9.5 607.5 71.5 628 132 c 0
 645 183.5 627.5 244.5 565.5 247.5 c 0
 499 250.5 430.5 192 409.5 132 c 0
647.5 416 m 1
 673.5 415 l 1
 471.5 223 l 1
 469 224.5 l 1
 500 244 533.5 265 572 263.5 c 0
 642.5 261.5 665 190 646.5 131 c 0
 624 59.5 551.5 -8.5 473.5 -7 c 0
 395.5 -5.5 368.5 65 391 132 c 0
 402.5 167 428 198 453 224.5 c 1
 647.5 416 l 1
EndSplineSet
EndChar

StartChar: uni215A
Encoding: 8538 8538 163
Width: 805
VWidth: 0
Flags: HMW
LayerCount: 2
Fore
SplineSet
868 698 m 1
 896 697.5 l 1
 133 0 l 1
 104.5 0 l 1
 868 698 l 1
375 415 m 0
 351 340.5 278 272.5 196.5 273 c 0
 138.5 273 113 309.5 99.5 360.5 c 1
 118 371 l 1
 129 326.5 148 292.5 198.5 291.5 c 0
 269.5 290.5 334 352 355 416 c 0
 372.5 467.5 358 526.5 296 530.5 c 0
 246.5 534 201 502.5 162.5 476.5 c 1
 184.5 499.5 l 1
 214.5 527.5 262 550 304 548.5 c 0
 377 546 394.5 474.5 375 415 c 0
301.5 679.5 m 1
 196.5 503.5 l 1
 157.5 473 l 1
 291 697 l 1
 477.5 697.5 l 1
 472 680.5 l 1
 301.5 679.5 l 1
524.5 132 m 0
 505.5 77 522.5 12.5 589.5 11 c 0
 657 9.5 722.5 71.5 743 132 c 0
 760 183.5 742.5 244.5 680.5 247.5 c 0
 614 250.5 545.5 192 524.5 132 c 0
762.5 416 m 1
 788.5 415 l 1
 586 223 l 1
 583.5 224.5 l 1
 614.5 244 648.5 265 687 263.5 c 0
 757.5 261.5 780 190 761.5 131 c 0
 739 59.5 666 -8.5 588 -7 c 0
 510 -5.5 483.5 65 506 132 c 0
 517.5 167 542 198 567 224.5 c 1
 762.5 416 l 1
EndSplineSet
EndChar

StartChar: oneeighth
Encoding: 8539 8539 164
Width: 715
VWidth: 0
Flags: HMW
LayerCount: 2
Fore
SplineSet
753 698 m 1
 781 697.5 l 1
 18 0 l 1
 -10 0 l 1
 753 698 l 1
190 651 m 1
 196 671 l 1
 320.5 698 l 1
 173 275 l 1
 153.5 275 l 1
 290 672.5 l 1
 190 651 l 1
511 324 m 0
 528.5 377 590 426 646.5 425 c 0
 702 424 731.5 372.5 715.5 322 c 0
 698.5 268.5 636 218 579 219.5 c 0
 523 220.5 495 273.5 511 324 c 0
528.5 322 m 0
 515 283 534 235 579 232.5 c 0
 625 230 682 278.5 696.5 321 c 0
 710 362 690.5 405 644.5 407.5 c 0
 597.5 410 543 365.5 528.5 322 c 0
426.5 113 m 0
 446.5 172.5 514.5 226.5 578.5 225.5 c 0
 641.5 225 672.5 168.5 655.5 111 c 0
 637 49 568 -6.5 502 -5 c 0
 436.5 -3.5 407 54 426.5 113 c 0
445.5 113.5 m 0
 428 65.5 447.5 14.5 504 12.5 c 0
 561 10.5 621 60.5 638 113.5 c 0
 653 159.5 631 210.5 578 212.5 c 0
 523 214.5 463.5 163 445.5 113.5 c 0
EndSplineSet
EndChar

StartChar: threeeighths
Encoding: 8540 8540 165
Width: 796
VWidth: 0
Flags: HMW
LayerCount: 2
Fore
SplineSet
835 698 m 1
 863 697.5 l 1
 100 0 l 1
 71.5 0 l 1
 835 698 l 1
250.5 495.5 m 1
 255 508 l 1
 310 518 372.5 540 393.5 598 c 0
 409.5 641.5 387 684.5 339.5 687 c 0
 282 689.5 242 642 214.5 598 c 1
 196 598.5 l 1
 226.5 653.5 273 707 342 705 c 0
 401 703 431.5 651 412.5 597 c 0
 389 528.5 315.5 504.5 250.5 495.5 c 1
195 275 m 0
 121.5 275.5 101 327 110 391 c 1
 129 391 l 1
 122.5 338 133.5 295 196.5 293.5 c 0
 253 292 316 335 333 389 c 0
 353.5 453 302.5 478.5 249 489 c 1
 253.5 502 l 1
 317.5 492 375.5 461 352 386 c 0
 332 322 261 274.5 195 275 c 0
592.5 324 m 0
 610 377 672 426 728.5 425 c 0
 784 424 813.5 372.5 797.5 322 c 0
 780.5 268.5 718 218 661 219.5 c 0
 605 220.5 576.5 273.5 592.5 324 c 0
610.5 322 m 0
 597 283 616 235 661 232.5 c 0
 707 230 764 278.5 778.5 321 c 0
 792 362 772.5 405 726.5 407.5 c 0
 679.5 410 625 365.5 610.5 322 c 0
508.5 113 m 0
 528.5 172.5 596.5 226.5 660.5 225.5 c 0
 723.5 225 754.5 168.5 737.5 111 c 0
 719 49 650 -6.5 584 -5 c 0
 518.5 -3.5 489 54 508.5 113 c 0
527.5 113.5 m 0
 510 65.5 529.5 14 586 12.5 c 0
 643 10.5 702.5 60.5 719.5 113.5 c 0
 734.5 159.5 713 210.5 660 212.5 c 0
 605 214.5 545.5 163 527.5 113.5 c 0
EndSplineSet
EndChar

StartChar: fiveeighths
Encoding: 8541 8541 166
Width: 829
VWidth: 0
Flags: HMW
LayerCount: 2
Fore
SplineSet
868 698 m 1
 896 697.5 l 1
 133 0 l 1
 104.5 0 l 1
 868 698 l 1
375 415 m 0
 351 340.5 278 272.5 196.5 273 c 0
 138.5 273 113 309.5 99.5 360.5 c 1
 118 371 l 1
 129 326.5 148 292.5 198.5 291.5 c 0
 269.5 290.5 334 352 355 416 c 0
 372.5 467.5 358 526.5 296 530.5 c 0
 246.5 534 201 502.5 162.5 476.5 c 1
 184.5 499.5 l 1
 214.5 527.5 262 550 304 548.5 c 0
 377 546 394.5 474.5 375 415 c 0
301.5 679.5 m 1
 196.5 503.5 l 1
 157.5 473 l 1
 291 697 l 1
 477.5 697.5 l 1
 472 680.5 l 1
 301.5 679.5 l 1
625.5 324 m 0
 643 377 705 426 761.5 425 c 0
 817 424 846.5 372.5 830.5 322 c 0
 813.5 268.5 750.5 218 693.5 219.5 c 0
 637.5 220.5 609.5 273.5 625.5 324 c 0
643.5 322 m 0
 630 283 649 235 694 232.5 c 0
 740 230 797 278.5 811.5 321 c 0
 825 362 805.5 405 759.5 407.5 c 0
 712.5 410 658 365.5 643.5 322 c 0
541.5 113 m 0
 561.5 172.5 628.5 226.5 692.5 225.5 c 0
 755.5 225 787.5 168.5 770.5 111 c 0
 752 49 683 -6.5 617 -5 c 0
 551.5 -3.5 522 54 541.5 113 c 0
560.5 113.5 m 0
 543 65.5 562.5 14 619 12.5 c 0
 676 10.5 735.5 60.5 752.5 113.5 c 0
 767.5 159.5 746 210.5 693 212.5 c 0
 638 214.5 578.5 163 560.5 113.5 c 0
EndSplineSet
EndChar

StartChar: seveneighths
Encoding: 8542 8542 167
Width: 726
VWidth: 0
Flags: HMW
LayerCount: 2
Fore
SplineSet
764 698 m 1
 792.5 697.5 l 1
 29 0 l 1
 1 0 l 1
 764 698 l 1
210 681.5 m 1
 215 699.5 l 1
 487 699 l 1
 139 282 l 1
 118 282 l 1
 449 680.5 l 1
 210 681.5 l 1
522 324 m 0
 539.5 377 601.5 426 658 425 c 0
 713.5 424 742.5 372.5 726.5 322 c 0
 709.5 268.5 647.5 218 590.5 219.5 c 0
 534.5 220.5 506 273.5 522 324 c 0
539.5 322 m 0
 526 283 546 235 591 232.5 c 0
 637 230 693.5 278.5 708 321 c 0
 721.5 362 701.5 405 655.5 407.5 c 0
 608.5 410 554 365.5 539.5 322 c 0
438 113 m 0
 458 172.5 525.5 226.5 589.5 225.5 c 0
 652.5 225 683.5 168.5 666.5 111 c 0
 648 49 580 -6.5 514 -5 c 0
 448.5 -3.5 418.5 54 438 113 c 0
456.5 113.5 m 0
 439 65.5 459 14.5 515.5 12.5 c 0
 572.5 10.5 632 60.5 649 113.5 c 0
 664 159.5 643 210.5 590 212.5 c 0
 535 214.5 474.5 163 456.5 113.5 c 0
EndSplineSet
EndChar

StartChar: uni2074
Encoding: 8308 8308 168
Width: 353
VWidth: 0
Flags: HMW
LayerCount: 2
Fore
SplineSet
101.5 364.5 m 1
 121.5 381 l 1
 317.5 381.5 l 1
 322 381.5 l 1
 393.5 381.5 l 1
 387.5 364.5 l 1
 101.5 364.5 l 1
122 366 m 1
 100 366.5 l 1
 433 698.5 l 1
 441 699 l 1
 296 281 l 1
 276 281 l 1
 308.5 371.5 l 1
 309 375 l 1
 404 646.5 l 1
 122 366 l 1
EndSplineSet
EndChar

StartChar: uni2075
Encoding: 8309 8309 169
Width: 324
VWidth: 0
Flags: HMW
LayerCount: 2
Fore
SplineSet
375 415 m 0
 351 340.5 278 272.5 196.5 273 c 0
 138.5 273 113 309.5 99.5 360.5 c 1
 118 371 l 1
 129 326.5 148 292.5 198.5 291.5 c 0
 269.5 290.5 334 352 355 416 c 0
 372.5 467.5 358 526.5 296 530.5 c 0
 246.5 534 201 502.5 162.5 476.5 c 1
 184.5 499.5 l 1
 214.5 527.5 262 550 304 548.5 c 0
 377 546 394.5 474.5 375 415 c 0
301.5 679.5 m 1
 196.5 503.5 l 1
 157.5 473 l 1
 291 697 l 1
 477.5 697.5 l 1
 472 680.5 l 1
 301.5 679.5 l 1
EndSplineSet
EndChar

StartChar: uni2076
Encoding: 8310 8310 170
Width: 315
VWidth: 0
Flags: HMW
LayerCount: 2
Fore
SplineSet
140.5 412 m 0
 121.5 357 138.5 292.5 205.5 291 c 0
 273 289.5 338.5 351.5 359 412 c 0
 376 463.5 358.5 524.5 296.5 527.5 c 0
 230 530.5 161.5 472 140.5 412 c 0
378.5 696 m 1
 403.5 695 l 1
 201.5 503 l 1
 199 504.5 l 1
 230 524 264 545 302.5 543.5 c 0
 373 541.5 395 470 376.5 411 c 0
 354 339.5 281.5 271.5 203.5 273 c 0
 125.5 274.5 99.5 345 122 412 c 0
 133.5 447 158 478 183 504.5 c 1
 378.5 696 l 1
EndSplineSet
EndChar

StartChar: uni2077
Encoding: 8311 8311 171
Width: 331
VWidth: 0
Flags: HMW
LayerCount: 2
Fore
SplineSet
210 681.5 m 1
 215 699.5 l 1
 487 699 l 1
 139 282 l 1
 118 282 l 1
 449 680.5 l 1
 210 681.5 l 1
EndSplineSet
EndChar

StartChar: uni2078
Encoding: 8312 8312 172
Width: 289
VWidth: 0
Flags: HMW
LayerCount: 2
Fore
SplineSet
194.5 604 m 0
 212 657 274 706 330.5 705 c 0
 386 704 414.5 652.5 398.5 602 c 0
 381.5 548.5 319.5 498 262.5 499.5 c 0
 206.5 500.5 178.5 553.5 194.5 604 c 0
211.5 602 m 0
 198 563 218 515 263 512.5 c 0
 309 510 365.5 558.5 380 601 c 0
 393.5 642 373.5 685 327.5 687.5 c 0
 280.5 690 226 645.5 211.5 602 c 0
110 393 m 0
 130 452.5 197.5 506.5 261.5 505.5 c 0
 324.5 505 356 448.5 339 391 c 0
 320.5 329 252 273.5 186 275 c 0
 120.5 276.5 90.5 334 110 393 c 0
129 393.5 m 0
 111.5 345.5 131 294 187.5 292.5 c 0
 244.5 290.5 304 340.5 321 393.5 c 0
 336 439.5 315 490.5 262 492.5 c 0
 207 494.5 147 443 129 393.5 c 0
EndSplineSet
EndChar

StartChar: uni2079
Encoding: 8313 8313 173
Width: 315
VWidth: 0
Flags: HMW
LayerCount: 2
Fore
SplineSet
407.5 568 m 0
 426.5 623 409 687.5 342 689 c 0
 274.5 690.5 209.5 628.5 189 568 c 0
 172 516.5 189.5 455.5 251.5 452.5 c 0
 318 449.5 386.5 508 407.5 568 c 0
169.5 284 m 1
 144.5 285 l 1
 345.5 477 l 1
 348 475.5 l 1
 317 456 283.5 435 245.5 436.5 c 0
 175 438.5 152 510 170.5 569 c 0
 193 640.5 266.5 708.5 343.5 707 c 0
 421.5 705.5 448.5 635 426 568 c 0
 414.5 533 389 502 364 475.5 c 1
 169.5 284 l 1
EndSplineSet
EndChar

StartChar: uni2070
Encoding: 8304 8304 174
Width: 317
VWidth: 0
Flags: HMW
LayerCount: 2
Fore
SplineSet
163.5 490 m 0
 144.5 435 111 296 205.5 293.5 c 0
 299.5 291 361.5 416 387.5 490 c 0
 406.5 545 440 684 345.5 686.5 c 0
 251.5 689 189.5 564 163.5 490 c 0
143 490 m 0
 171.5 574.5 241.5 706 347 705 c 0
 455 703.5 429.5 556.5 407.5 490 c 0
 379 405.5 309.5 274 204 275 c 0
 96 276.5 121 423.5 143 490 c 0
EndSplineSet
EndChar

StartChar: uni2080
Encoding: 8320 8320 175
Width: 324
VWidth: 0
Flags: HMW
LayerCount: 2
Fore
SplineSet
68 210 m 0
 49 155 15 16 109.5 13.5 c 0
 203.5 11 265.5 136 291.5 210 c 0
 310.5 265 345 404 250.5 406.5 c 0
 156.5 409 94 284 68 210 c 0
48 210 m 0
 76.5 294.5 145.5 426 251 425 c 0
 359 423.5 333.5 276.5 311.5 210 c 0
 283 125.5 214 -6 108.5 -5 c 0
 0.5 -3.5 26 143.5 48 210 c 0
EndSplineSet
EndChar

StartChar: uni2084
Encoding: 8324 8324 176
Width: 353
VWidth: 0
Flags: HMW
LayerCount: 2
Fore
SplineSet
5.5 84.5 m 1
 25.5 101 l 1
 222 101.5 l 1
 226.5 101.5 l 1
 297.5 101.5 l 1
 291.5 84.5 l 1
 5.5 84.5 l 1
26 86 m 1
 5 86.5 l 1
 337.5 418.5 l 1
 346 419 l 1
 200.5 0 l 1
 181 0 l 1
 212.5 91.5 l 1
 214 95 l 1
 309 366.5 l 1
 26 86 l 1
EndSplineSet
EndChar

StartChar: uni2085
Encoding: 8325 8325 177
Width: 324
VWidth: 0
Flags: HMW
LayerCount: 2
Fore
SplineSet
280 135 m 0
 256 60.5 182.5 -7.5 101 -7 c 0
 43 -7 17.5 29.5 4 80.5 c 1
 22 91 l 1
 33 46.5 52 12.5 102.5 11.5 c 0
 173.5 10.5 239 72 260 136 c 0
 277.5 187.5 262 246.5 200 250.5 c 0
 150.5 254 105 222.5 66.5 196.5 c 1
 89.5 219.5 l 1
 119.5 247.5 166 270 208 268.5 c 0
 281 266 299.5 194.5 280 135 c 0
205.5 399.5 m 1
 100.5 223.5 l 1
 62.5 193 l 1
 195.5 417 l 1
 382.5 417.5 l 1
 376.5 400.5 l 1
 205.5 399.5 l 1
EndSplineSet
EndChar

StartChar: uni2086
Encoding: 8326 8326 178
Width: 315
VWidth: 0
Flags: HMW
LayerCount: 2
Fore
SplineSet
44.5 132 m 0
 25.5 77 42 12.5 109 11 c 0
 176.5 9.5 242 71.5 262.5 132 c 0
 279.5 183.5 262 244.5 200 247.5 c 0
 133.5 250.5 65.5 192 44.5 132 c 0
282.5 416 m 1
 308.5 415 l 1
 105.5 223 l 1
 103 224.5 l 1
 134 244 168 265 206.5 263.5 c 0
 277 261.5 299.5 190 281 131 c 0
 258.5 59.5 185.5 -8.5 107.5 -7 c 0
 29.5 -5.5 3.5 65 26 132 c 0
 37.5 167 62.5 198 87.5 224.5 c 1
 282.5 416 l 1
EndSplineSet
EndChar

StartChar: uni2087
Encoding: 8327 8327 179
Width: 331
VWidth: 0
Flags: HMW
LayerCount: 2
Fore
SplineSet
114 401.5 m 1
 120 419.5 l 1
 392 419 l 1
 43 0 l 1
 22 0 l 1
 353 400.5 l 1
 114 401.5 l 1
EndSplineSet
EndChar

StartChar: uni2088
Encoding: 8328 8328 180
Width: 289
VWidth: 0
Flags: HMW
LayerCount: 2
Fore
SplineSet
98.5 324 m 0
 116 377 178 426 234.5 425 c 0
 290 424 319.5 372.5 303.5 322 c 0
 286.5 268.5 224 218 167 219.5 c 0
 111 220.5 82.5 273.5 98.5 324 c 0
116.5 322 m 0
 103 283 122 235 167 232.5 c 0
 213 230 270 278.5 284.5 321 c 0
 298 362 278.5 405 232.5 407.5 c 0
 185.5 410 131 365.5 116.5 322 c 0
14.5 113 m 0
 34.5 172.5 102.5 226.5 166.5 225.5 c 0
 229.5 225 260.5 168.5 243.5 111 c 0
 225 49 156 -6.5 90 -5 c 0
 24.5 -3.5 -5 54 14.5 113 c 0
33.5 113.5 m 0
 16 65.5 35.5 14 92 12.5 c 0
 149 10.5 209 60.5 226 113.5 c 0
 241 159.5 219 210.5 166 212.5 c 0
 111 214.5 51.5 163 33.5 113.5 c 0
EndSplineSet
EndChar

StartChar: uni2089
Encoding: 8329 8329 181
Width: 315
VWidth: 0
Flags: HMW
LayerCount: 2
Fore
SplineSet
306.5 288 m 0
 325.5 343 309 407.5 242 409 c 0
 174.5 410.5 108.5 348.5 88 288 c 0
 71 236.5 89.5 175.5 151.5 172.5 c 0
 218 169.5 285.5 228 306.5 288 c 0
69 4 m 1
 43.5 5 l 1
 245.5 197 l 1
 248 195.5 l 1
 217 176 183 155 145 156.5 c 0
 74.5 158.5 51.5 230 70 289 c 0
 92.5 360.5 166.5 428.5 243.5 427 c 0
 321.5 425.5 347.5 355 325 288 c 0
 313.5 253 289.5 222 264.5 195.5 c 1
 69 4 l 1
EndSplineSet
EndChar

StartChar: uni2081
Encoding: 8321 8321 182
Width: 277
VWidth: 0
Flags: HMW
LayerCount: 2
Fore
SplineSet
163 378 m 1
 169 398 l 1
 293 425 l 1
 145.5 2 l 1
 126.5 2 l 1
 263 399.5 l 1
 163 378 l 1
EndSplineSet
EndChar

StartChar: uni2082
Encoding: 8322 8322 183
Width: 315
VWidth: 0
Flags: HMW
LayerCount: 2
Fore
SplineSet
-27 3.5 m 1
 223.5 206.5 l 2
 257.5 234.5 297 268 312 311.5 c 0
 328 357.5 309.5 407 255.5 409.5 c 0
 181 413.5 133 337.5 104 280 c 1
 84.5 280 l 1
 117 348 170.5 430.5 257 428 c 0
 322.5 426.5 349 367.5 330.5 310 c 0
 315.5 263 275 226 238 195 c 2
 21.5 21.5 l 1
 242.5 20.5 l 1
 236.5 2.5 l 1
 -27 3.5 l 1
EndSplineSet
EndChar

StartChar: uni2083
Encoding: 8323 8323 184
Width: 297
VWidth: 0
Flags: HMW
LayerCount: 2
Fore
SplineSet
150 215.5 m 1
 154 228 l 1
 209 238 272.5 260 293.5 318 c 0
 309.5 361.5 287 404.5 239.5 407 c 0
 182 409.5 142 362 114.5 318 c 1
 96 318.5 l 1
 126.5 373.5 172 427 241 425 c 0
 300 423 331.5 371 312.5 317 c 0
 289 248.5 215 224.5 150 215.5 c 1
94.5 -5 m 0
 21 -4.5 1 47 10 111 c 1
 29 111 l 1
 22.5 58 33.5 15 96.5 13.5 c 0
 153 12 216 55 233 109 c 0
 253.5 173 202 198.5 148.5 209 c 1
 153.5 222 l 1
 217.5 212 275 181 251.5 106 c 0
 231.5 42 160.5 -5.5 94.5 -5 c 0
EndSplineSet
EndChar

StartChar: Agrave
Encoding: 192 192 185
Width: 580
VWidth: 0
Flags: HMW
LayerCount: 2
Fore
SplineSet
157.5 254 m 1
 175.5 284 l 1
 491.5 284.5 l 1
 490 253.5 l 1
 157.5 254 l 1
459.5 644 m 1
 190 273 l 1
 184.5 265 l 1
 -8.5 0 l 1
 -46 0 l 1
 483 722 l 1
 515.5 0 l 1
 480.5 0 l 1
 472.5 263 l 1
 472.5 271 l 1
 459.5 644 l 1
428.5 936.5 m 1
 460.5 953 l 1
 563 793 l 1
 544.5 781.5 l 1
 428.5 936.5 l 1
EndSplineSet
EndChar

StartChar: Aacute
Encoding: 193 193 186
Width: 580
VWidth: 0
Flags: HMW
LayerCount: 2
Fore
SplineSet
157.5 254 m 1
 175.5 284 l 1
 491.5 284.5 l 1
 490 253.5 l 1
 157.5 254 l 1
459.5 644 m 1
 190 273 l 1
 184.5 265 l 1
 -8.5 0 l 1
 -46 0 l 1
 483 722 l 1
 515.5 0 l 1
 480.5 0 l 1
 472.5 263 l 1
 472.5 271 l 1
 459.5 644 l 1
683.5 933 m 1
 464.5 783 l 1
 452 796 l 1
 661 952 l 1
 683.5 933 l 1
EndSplineSet
EndChar

StartChar: Acircumflex
Encoding: 194 194 187
Width: 580
VWidth: 0
Flags: HMW
LayerCount: 2
Fore
SplineSet
157.5 254 m 1
 175.5 284 l 1
 491.5 284.5 l 1
 490 253.5 l 1
 157.5 254 l 1
459.5 644 m 1
 190 273 l 1
 184.5 265 l 1
 -8.5 0 l 1
 -46 0 l 1
 483 722 l 1
 515.5 0 l 1
 480.5 0 l 1
 472.5 263 l 1
 472.5 271 l 1
 459.5 644 l 1
543.5 891 m 1
 368 770.5 l 1
 352.5 788 l 1
 551 925 l 1
 656 785.5 l 1
 633 769.5 l 1
 543.5 891 l 1
EndSplineSet
EndChar

StartChar: Atilde
Encoding: 195 195 188
Width: 580
VWidth: 0
Flags: HMW
LayerCount: 2
Fore
SplineSet
157.5 254 m 1
 175.5 284 l 1
 491.5 284.5 l 1
 490 253.5 l 1
 157.5 254 l 1
459.5 644 m 1
 190 273 l 1
 184.5 265 l 1
 -8.5 0 l 1
 -46 0 l 1
 483 722 l 1
 515.5 0 l 1
 480.5 0 l 1
 472.5 263 l 1
 472.5 271 l 1
 459.5 644 l 1
379 802.5 m 1
 401 832 429 866 470.5 865 c 0
 517 864.5 531.5 817.5 571 820 c 0
 599.5 821.5 622.5 847.5 641.5 866 c 1
 658.5 850.5 l 1
 635 826 603 793 565.5 794 c 0
 520 795 506 840.5 467 839 c 0
 435.5 837.5 416 812.5 398.5 790 c 1
 379 802.5 l 1
EndSplineSet
EndChar

StartChar: Adieresis
Encoding: 196 196 189
Width: 580
VWidth: 0
Flags: HMW
LayerCount: 2
Fore
SplineSet
157.5 254 m 1
 175.5 284 l 1
 491.5 284.5 l 1
 490 253.5 l 1
 157.5 254 l 1
459.5 644 m 1
 190 273 l 1
 184.5 265 l 1
 -8.5 0 l 1
 -46 0 l 1
 483 722 l 1
 515.5 0 l 1
 480.5 0 l 1
 472.5 263 l 1
 472.5 271 l 1
 459.5 644 l 1
587.5 820 m 0
 590 830 607 844 618 843 c 0
 629.5 842 636 830 633.5 818.5 c 0
 631 808.5 614 794.5 603 795.5 c 0
 591.5 796.5 585 808.5 587.5 820 c 0
398.5 820 m 0
 401 830 418 844 429 843 c 0
 440.5 842 448 830 445.5 818.5 c 0
 443 808.5 426 794.5 415 795.5 c 0
 403.5 796.5 396 808.5 398.5 820 c 0
EndSplineSet
EndChar

StartChar: Aring
Encoding: 197 197 190
Width: 580
VWidth: 0
Flags: HMW
LayerCount: 2
Fore
SplineSet
157.5 254 m 1
 175.5 284 l 1
 491.5 284.5 l 1
 490 253.5 l 1
 157.5 254 l 1
459.5 644 m 1
 190 273 l 1
 184.5 265 l 1
 -8.5 0 l 1
 -46 0 l 1
 483 722 l 1
 515.5 0 l 1
 480.5 0 l 1
 472.5 263 l 1
 472.5 271 l 1
 459.5 644 l 1
414 806.5 m 0
 430.5 857 490 905 544.5 904 c 0
 598.5 903 624 852 608.5 803.5 c 0
 592 753 533 705 478.5 706 c 0
 424.5 707 398.5 758 414 806.5 c 0
436 804.5 m 0
 424.5 769 442 729.5 482.5 727 c 0
 524 724.5 574.5 767.5 587 805.5 c 0
 598.5 841 580.5 880.5 540 883 c 0
 498.5 885.5 448.5 842.5 436 804.5 c 0
EndSplineSet
EndChar

StartChar: AE
Encoding: 198 198 191
Width: 861
VWidth: 0
Flags: HMW
LayerCount: 2
Fore
SplineSet
232 259.5 m 1
 242 290 l 1
 519.5 290 l 1
 508.5 259 l 1
 232 259.5 l 1
628 700 m 1
 652.5 685 l 1
 -13.5 0 l 1
 -50.5 0 l 1
 628 700 l 1
424.5 0 m 1
 435.5 31 l 1
 746 31 l 1
 735.5 0 l 1
 424.5 0 l 1
660 669 m 1
 628 700 l 1
 974.5 700 l 1
 963.5 669 l 1
 660 669 l 1
551 371 m 1
 562 402 l 1
 853.5 402 l 1
 843.5 371 l 1
 551 371 l 1
646 699 m 1
 679.5 699.5 l 1
 437.5 0 l 1
 405.5 0 l 1
 646 699 l 1
EndSplineSet
EndChar

StartChar: Ccedilla
Encoding: 199 199 192
Width: 644
VWidth: 0
Flags: HMW
LayerCount: 2
Fore
SplineSet
143.5 350 m 0
 94 206.5 134 29.5 312.5 26.5 c 0
 403 25 484.5 64.5 557.5 113.5 c 1
 543 69.5 l 1
 470.5 24 392.5 -9 306 -8 c 0
 108.5 -6 54 187.5 108.5 350 c 0
 169.5 533.5 343 706.5 545.5 708.5 c 0
 621 709.5 681.5 684 733.5 630 c 1
 719 586 l 1
 675 647 614 675 539 674.5 c 0
 355.5 673 200.5 514 143.5 350 c 0
304.5 15.5 m 1
 331.5 15.5 l 1
 244.5 -69 l 1
 260.5 -62 280 -51.5 298 -53.5 c 0
 336.5 -58.5 354 -92 344 -128.5 c 0
 330 -181 265 -220.5 212.5 -220 c 0
 180 -220 160.5 -203.5 139 -182 c 1
 157 -167 l 1
 174 -183 191 -197 216.5 -197 c 0
 256.5 -197 309 -166.5 320.5 -126.5 c 0
 328.5 -99 314 -75 285.5 -72 c 0
 259 -68.5 230 -83.5 206 -93.5 c 1
 304.5 15.5 l 1
EndSplineSet
EndChar

StartChar: Egrave
Encoding: 200 200 193
Width: 490
VWidth: 0
Flags: HMW
LayerCount: 2
Fore
SplineSet
42 0 m 1
 52 31 l 1
 376 31 l 1
 366 0 l 1
 42 0 l 1
271 669.5 m 1
 281 700 l 1
 604 700 l 1
 594 669 l 1
 271 669.5 l 1
168.5 371 m 1
 179.5 402 l 1
 483.5 402 l 1
 473.5 371 l 1
 168.5 371 l 1
266 699 m 1
 299.5 699.5 l 1
 58.5 0 l 1
 27 0 l 1
 266 699 l 1
371 924 m 1
 402 940.5 l 1
 505 780.5 l 1
 487 769.5 l 1
 371 924 l 1
EndSplineSet
EndChar

StartChar: Eacute
Encoding: 201 201 194
Width: 490
VWidth: 0
Flags: HMW
LayerCount: 2
Fore
SplineSet
42 0 m 1
 52 31 l 1
 376 31 l 1
 366 0 l 1
 42 0 l 1
271 669.5 m 1
 281 700 l 1
 604 700 l 1
 594 669 l 1
 271 669.5 l 1
168.5 371 m 1
 179.5 402 l 1
 483.5 402 l 1
 473.5 371 l 1
 168.5 371 l 1
266 699 m 1
 299.5 699.5 l 1
 58.5 0 l 1
 27 0 l 1
 266 699 l 1
652 920.5 m 1
 433 770.5 l 1
 419.5 783.5 l 1
 630 939.5 l 1
 652 920.5 l 1
EndSplineSet
EndChar

StartChar: Ecircumflex
Encoding: 202 202 195
Width: 490
VWidth: 0
Flags: HMW
LayerCount: 2
Fore
SplineSet
42 0 m 1
 52 31 l 1
 376 31 l 1
 366 0 l 1
 42 0 l 1
271 669.5 m 1
 281 700 l 1
 604 700 l 1
 594 669 l 1
 271 669.5 l 1
168.5 371 m 1
 179.5 402 l 1
 483.5 402 l 1
 473.5 371 l 1
 168.5 371 l 1
266 699 m 1
 299.5 699.5 l 1
 58.5 0 l 1
 27 0 l 1
 266 699 l 1
505.5 890.5 m 1
 330 770.5 l 1
 315 788 l 1
 513 925 l 1
 618.5 785 l 1
 595.5 769 l 1
 505.5 890.5 l 1
EndSplineSet
EndChar

StartChar: Edieresis
Encoding: 203 203 196
Width: 490
VWidth: 0
Flags: HMW
LayerCount: 2
Fore
SplineSet
42 0 m 1
 52 31 l 1
 376 31 l 1
 366 0 l 1
 42 0 l 1
271 669.5 m 1
 281 700 l 1
 604 700 l 1
 594 669 l 1
 271 669.5 l 1
168.5 371 m 1
 179.5 402 l 1
 483.5 402 l 1
 473.5 371 l 1
 168.5 371 l 1
266 699 m 1
 299.5 699.5 l 1
 58.5 0 l 1
 27 0 l 1
 266 699 l 1
547.5 813.5 m 0
 550 823.5 567 837.5 578 836.5 c 0
 589.5 835.5 596.5 823.5 594 812 c 0
 591.5 802 574.5 788 563.5 789 c 0
 552 790 545 802 547.5 813.5 c 0
358.5 813.5 m 0
 361 823.5 378 837.5 389 836.5 c 0
 400.5 835.5 408.5 823.5 406 812 c 0
 403.5 802 386.5 788 375.5 789 c 0
 364 790 356 802 358.5 813.5 c 0
EndSplineSet
EndChar

StartChar: Igrave
Encoding: 204 204 197
Width: 187
VWidth: 0
Flags: HMW
LayerCount: 2
Fore
SplineSet
263.5 699 m 1
 296 699.5 l 1
 54 0 l 1
 23.5 0 l 1
 263.5 699 l 1
214.5 924 m 1
 246 940.5 l 1
 348.5 780.5 l 1
 330 769.5 l 1
 214.5 924 l 1
EndSplineSet
EndChar

StartChar: Iacute
Encoding: 205 205 198
Width: 187
VWidth: 0
Flags: HMW
LayerCount: 2
Fore
SplineSet
263.5 699 m 1
 296 699.5 l 1
 54 0 l 1
 23.5 0 l 1
 263.5 699 l 1
495 920.5 m 1
 276.5 770.5 l 1
 263.5 783.5 l 1
 473.5 939.5 l 1
 495 920.5 l 1
EndSplineSet
EndChar

StartChar: Icircumflex
Encoding: 206 206 199
Width: 187
VWidth: 0
Flags: HMW
LayerCount: 2
Fore
SplineSet
263.5 699 m 1
 296 699.5 l 1
 54 0 l 1
 23.5 0 l 1
 263.5 699 l 1
346.5 890.5 m 1
 170.5 770.5 l 1
 155.5 788 l 1
 353.5 925 l 1
 459 785 l 1
 436 769 l 1
 346.5 890.5 l 1
EndSplineSet
EndChar

StartChar: Idieresis
Encoding: 207 207 200
Width: 187
VWidth: 0
Flags: HMW
LayerCount: 2
Fore
SplineSet
263.5 699 m 1
 296 699.5 l 1
 54 0 l 1
 23.5 0 l 1
 263.5 699 l 1
366 807.5 m 0
 368.5 817 385.5 831.5 396.5 830.5 c 0
 408 829.5 415.5 817.5 413 806 c 0
 410.5 796 393 782 382 783 c 0
 370 784 363.5 796.5 366 807.5 c 0
217.5 807.5 m 0
 220 817 237 831.5 248 830.5 c 0
 259.5 829.5 266.5 817.5 264 806 c 0
 261.5 796 244.5 782 233.5 783 c 0
 221.5 784 215 796.5 217.5 807.5 c 0
EndSplineSet
EndChar

StartChar: Ntilde
Encoding: 209 209 201
Width: 656
VWidth: 0
Flags: HMW
LayerCount: 2
Fore
SplineSet
742 699.5 m 1
 774.5 699.5 l 1
 526.5 -20.5 l 1
 250 631 l 1
 32 0 l 1
 -1 0 l 1
 247 720.5 l 1
 523.5 65.5 l 1
 742 699.5 l 1
401.5 768.5 m 1
 423.5 798 451.5 832 493 831 c 0
 532.5 830.5 554.5 783.5 594 786 c 0
 622.5 787.5 645 813.5 664 832 c 1
 680.5 816.5 l 1
 657 792 625.5 759 587.5 760 c 0
 549 761 528.5 805 489.5 805 c 0
 457.5 805 437.5 779 420.5 756 c 1
 401.5 768.5 l 1
EndSplineSet
EndChar

StartChar: Eth
Encoding: 208 208 202
Width: 639
VWidth: 0
Flags: HMW
LayerCount: 2
Fore
SplineSet
64.5 335 m 1
 74.5 364 l 1
 358 364 l 1
 348.5 334.5 l 1
 64.5 335 l 1
266 699 m 1
 299.5 699.5 l 1
 58.5 0 l 1
 27 0 l 1
 266 699 l 1
195 0 m 0
 43.5 0 l 1
 55 33 l 1
 201.5 33 l 0
 386.5 39.5 540.5 179.5 599.5 350 c 0
 653 502.5 601.5 659.5 422 667 c 0
 271 667 l 1
 282.5 700 l 1
 428.5 700 l 0
 626 693 689 520 632 350 c 0
 569.5 162 399 6 195 0 c 0
EndSplineSet
EndChar

StartChar: Ograve
Encoding: 210 210 203
Width: 732
VWidth: 0
Flags: HMW
LayerCount: 2
Fore
SplineSet
143 350 m 0
 92.5 203.5 137 26.5 318 25 c 0
 503 23.5 663.5 185 720.5 350 c 0
 771 496.5 726.5 673.5 545.5 675 c 0
 360.5 676.5 200 515 143 350 c 0
108.5 350 m 0
 169.5 534 348 709.5 551 708.5 c 0
 749.5 707.5 809.5 514.5 755 350 c 0
 694 166 515.5 -9.5 312.5 -8.5 c 0
 114 -7.5 54 185.5 108.5 350 c 0
503.5 924 m 1
 535.5 940.5 l 1
 638 780.5 l 1
 618 769.5 l 1
 503.5 924 l 1
EndSplineSet
EndChar

StartChar: Oacute
Encoding: 211 211 204
Width: 732
VWidth: 0
Flags: HMW
LayerCount: 2
Fore
SplineSet
143 350 m 0
 92.5 203.5 137 26.5 318 25 c 0
 503 23.5 663.5 185 720.5 350 c 0
 771 496.5 726.5 673.5 545.5 675 c 0
 360.5 676.5 200 515 143 350 c 0
108.5 350 m 0
 169.5 534 348 709.5 551 708.5 c 0
 749.5 707.5 809.5 514.5 755 350 c 0
 694 166 515.5 -9.5 312.5 -8.5 c 0
 114 -7.5 54 185.5 108.5 350 c 0
751.5 920.5 m 1
 534.5 770.5 l 1
 519.5 783.5 l 1
 728.5 939.5 l 1
 751.5 920.5 l 1
EndSplineSet
EndChar

StartChar: Ocircumflex
Encoding: 212 212 205
Width: 732
VWidth: 0
Flags: HMW
LayerCount: 2
Fore
SplineSet
143 350 m 0
 92.5 203.5 137 26.5 318 25 c 0
 503 23.5 663.5 185 720.5 350 c 0
 771 496.5 726.5 673.5 545.5 675 c 0
 360.5 676.5 200 515 143 350 c 0
108.5 350 m 0
 169.5 534 348 709.5 551 708.5 c 0
 749.5 707.5 809.5 514.5 755 350 c 0
 694 166 515.5 -9.5 312.5 -8.5 c 0
 114 -7.5 54 185.5 108.5 350 c 0
618.5 890.5 m 1
 443.5 770.5 l 1
 428.5 788 l 1
 627 925 l 1
 732 785 l 1
 708.5 769 l 1
 618.5 890.5 l 1
EndSplineSet
EndChar

StartChar: Otilde
Encoding: 213 213 206
Width: 732
VWidth: 0
Flags: HMW
LayerCount: 2
Fore
SplineSet
143 350 m 0
 92.5 203.5 137 26.5 318 25 c 0
 503 23.5 663.5 185 720.5 350 c 0
 771 496.5 726.5 673.5 545.5 675 c 0
 360.5 676.5 200 515 143 350 c 0
108.5 350 m 0
 169.5 534 348 709.5 551 708.5 c 0
 749.5 707.5 809.5 514.5 755 350 c 0
 694 166 515.5 -9.5 312.5 -8.5 c 0
 114 -7.5 54 185.5 108.5 350 c 0
453 796 m 1
 463 826 509.5 859 544.5 858.5 c 0
 584.006 858 605 811 645 813.5 c 0
 673.5 815 697 841 716 859.5 c 1
 731 844 l 1
 707.5 819.5 677 786.5 639 787.5 c 0
 600.5 788.5 580 832.5 541.5 832.5 c 0
 508.5 832.5 488.5 806.5 471 783.5 c 1
 453 796 l 1
EndSplineSet
EndChar

StartChar: Odieresis
Encoding: 214 214 207
Width: 732
VWidth: 0
Flags: HMW
LayerCount: 2
Fore
SplineSet
143 350 m 0
 92.5 203.5 137 26.5 318 25 c 0
 503 23.5 663.5 185 720.5 350 c 0
 771 496.5 726.5 673.5 545.5 675 c 0
 360.5 676.5 200 515 143 350 c 0
108.5 350 m 0
 169.5 534 348 709.5 551 708.5 c 0
 749.5 707.5 809.5 514.5 755 350 c 0
 694 166 515.5 -9.5 312.5 -8.5 c 0
 114 -7.5 54 185.5 108.5 350 c 0
667.5 814.5 m 0
 670 824.5 687 838.5 698 837.5 c 0
 709.5 836.5 716.5 824.5 714 813 c 0
 711.5 803 694.5 789 683.5 790 c 0
 672 791 665 803 667.5 814.5 c 0
466 814.5 m 0
 468.5 824.5 485.5 838.5 496.5 837.5 c 0
 508 836.5 515 824.5 512.5 813 c 0
 510 803 493 789 482 790 c 0
 470.5 791 463.5 803 466 814.5 c 0
EndSplineSet
EndChar

StartChar: Ugrave
Encoding: 217 217 208
Width: 555
VWidth: 0
Flags: HMW
LayerCount: 2
Fore
SplineSet
262.5 699.5 m 1
 294.5 699.5 l 1
 130 223 l 2
 102 133.5 112.5 24 229 22.5 c 0
 346 21 430.5 122.5 468.5 223 c 1
 633 699.5 l 1
 665.5 699.5 l 1
 502.5 223 l 2
 459.5 104 360 -9.5 223.5 -9 c 0
 88.5 -8.5 66 114.5 99 223 c 1
 262.5 699.5 l 1
412 924 m 1
 443 940.5 l 1
 546 780.5 l 1
 527.5 769.5 l 1
 412 924 l 1
EndSplineSet
EndChar

StartChar: Uacute
Encoding: 218 218 209
Width: 555
VWidth: 0
Flags: HMW
LayerCount: 2
Fore
SplineSet
262.5 699.5 m 1
 294.5 699.5 l 1
 130 223 l 2
 102 133.5 112.5 24 229 22.5 c 0
 346 21 430.5 122.5 468.5 223 c 1
 633 699.5 l 1
 665.5 699.5 l 1
 502.5 223 l 2
 459.5 104 360 -9.5 223.5 -9 c 0
 88.5 -8.5 66 114.5 99 223 c 1
 262.5 699.5 l 1
667 920.5 m 1
 448 770.5 l 1
 434.5 783.5 l 1
 644 939.5 l 1
 667 920.5 l 1
EndSplineSet
EndChar

StartChar: Ucircumflex
Encoding: 219 219 210
Width: 555
VWidth: 0
Flags: HMW
LayerCount: 2
Fore
SplineSet
262.5 699.5 m 1
 294.5 699.5 l 1
 130 223 l 2
 102 133.5 112.5 24 229 22.5 c 0
 346 21 430.5 122.5 468.5 223 c 1
 633 699.5 l 1
 665.5 699.5 l 1
 502.5 223 l 2
 459.5 104 360 -9.5 223.5 -9 c 0
 88.5 -8.5 66 114.5 99 223 c 1
 262.5 699.5 l 1
530.5 890.5 m 1
 354.5 770.5 l 1
 340.5 788 l 1
 538.5 925 l 1
 644 785 l 1
 620 769 l 1
 530.5 890.5 l 1
EndSplineSet
EndChar

StartChar: Udieresis
Encoding: 220 220 211
Width: 555
VWidth: 0
Flags: HMW
LayerCount: 2
Fore
SplineSet
262.5 699.5 m 1
 294.5 699.5 l 1
 130 223 l 2
 102 133.5 112.5 24 229 22.5 c 0
 346 21 430.5 122.5 468.5 223 c 1
 633 699.5 l 1
 665.5 699.5 l 1
 502.5 223 l 2
 459.5 104 360 -9.5 223.5 -9 c 0
 88.5 -8.5 66 114.5 99 223 c 1
 262.5 699.5 l 1
559 793.5 m 0
 561.5 803.5 578.5 817.5 589.5 816.5 c 0
 601 815.5 608 803.5 605.5 792 c 0
 603 782 586 768 575 769 c 0
 563.5 770 556.5 782 559 793.5 c 0
383.5 793.5 m 0
 386 803.5 403 817.5 414 816.5 c 0
 425.5 815.5 433 803.5 430.5 792 c 0
 428 782 411 768 400 769 c 0
 388.5 770 381 782 383.5 793.5 c 0
EndSplineSet
EndChar

StartChar: Yacute
Encoding: 221 221 212
Width: 492
VWidth: 0
Flags: HMW
LayerCount: 2
Fore
SplineSet
647.5 920.5 m 1
 429 770.5 l 1
 416 783.5 l 1
 625 939.5 l 1
 647.5 920.5 l 1
629.5 698.5 m 1
 668 698.5 l 1
 299 275.5 l 1
 204 0 l 1
 171 0 l 1
 268.5 279 l 1
 196.5 700 l 1
 231 700 l 1
 292.5 311 l 1
 629.5 698.5 l 1
EndSplineSet
EndChar

StartChar: agrave
Encoding: 224 224 213
Width: 423
VWidth: 0
Flags: HMW
LayerCount: 2
Fore
SplineSet
56 135 m 0
 33.5 71.5 68.5 20 135.5 19.5 c 0
 228 18.5 294 89.5 335 164.5 c 1
 338 149 l 1
 297 66 224.5 -9.5 125 -9 c 0
 43 -8.5 -0.5 56 25 133 c 0
 55.5 225 156 282 249.5 281.5 c 0
 298 281.5 335.5 265 369 231.5 c 1
 361.5 212 l 1
 328.5 241.5 291.5 256.5 246 256 c 0
 169 255.5 83 211 56 135 c 0
163 383 m 1
 154.5 408.5 l 1
 206.5 440 264.5 470.5 327 469 c 0
 413 466.5 438 398 417 323 c 1
 305.5 0 l 1
 274.5 0 l 1
 388 323 l 1
 401.5 381 393 438 322 440.5 c 0
 264.5 443 210 411.5 163 383 c 1
272.5 699.5 m 1
 304 716 l 1
 407 556 l 1
 387 544.5 l 1
 272.5 699.5 l 1
EndSplineSet
Substitution2: "alt a" agrave.alt
EndChar

StartChar: aacute
Encoding: 225 225 214
Width: 423
VWidth: 0
Flags: HMW
LayerCount: 2
Fore
SplineSet
56 135 m 0
 33.5 71.5 68.5 20 135.5 19.5 c 0
 228 18.5 294 89.5 335 164.5 c 1
 338 149 l 1
 297 66 224.5 -9.5 125 -9 c 0
 43 -8.5 -0.5 56 25 133 c 0
 55.5 225 156 282 249.5 281.5 c 0
 298 281.5 335.5 265 369 231.5 c 1
 361.5 212 l 1
 328.5 241.5 291.5 256.5 246 256 c 0
 169 255.5 83 211 56 135 c 0
163 383 m 1
 154.5 408.5 l 1
 206.5 440 264.5 470.5 327 469 c 0
 413 466.5 438 398 417 323 c 1
 305.5 0 l 1
 274.5 0 l 1
 388 323 l 1
 401.5 381 393 438 322 440.5 c 0
 264.5 443 210 411.5 163 383 c 1
530 696 m 1
 313 546 l 1
 298 559 l 1
 507.5 715 l 1
 530 696 l 1
EndSplineSet
Substitution2: "alt a" aacute.alt
EndChar

StartChar: acircumflex
Encoding: 226 226 215
Width: 423
VWidth: 0
Flags: HMW
LayerCount: 2
Fore
SplineSet
56 135 m 0
 33.5 71.5 68.5 20 135.5 19.5 c 0
 228 18.5 294 89.5 335 164.5 c 1
 338 149 l 1
 297 66 224.5 -9.5 125 -9 c 0
 43 -8.5 -0.5 56 25 133 c 0
 55.5 225 156 282 249.5 281.5 c 0
 298 281.5 335.5 265 369 231.5 c 1
 361.5 212 l 1
 328.5 241.5 291.5 256.5 246 256 c 0
 169 255.5 83 211 56 135 c 0
163 383 m 1
 154.5 408.5 l 1
 206.5 440 264.5 470.5 327 469 c 0
 413 466.5 438 398 417 323 c 1
 305.5 0 l 1
 274.5 0 l 1
 388 323 l 1
 401.5 381 393 438 322 440.5 c 0
 264.5 443 210 411.5 163 383 c 1
397.5 659 m 1
 221.5 538.5 l 1
 206.5 556 l 1
 404.5 693 l 1
 510 553.5 l 1
 487 537.5 l 1
 397.5 659 l 1
EndSplineSet
Substitution2: "alt a" acircumflex.alt
EndChar

StartChar: atilde
Encoding: 227 227 216
Width: 423
VWidth: 0
Flags: HMW
LayerCount: 2
Fore
SplineSet
56 135 m 0
 33.5 71.5 68.5 20 135.5 19.5 c 0
 228 18.5 294 89.5 335 164.5 c 1
 338 149 l 1
 297 66 224.5 -9.5 125 -9 c 0
 43 -8.5 -0.5 56 25 133 c 0
 55.5 225 156 282 249.5 281.5 c 0
 298 281.5 335.5 265 369 231.5 c 1
 361.5 212 l 1
 328.5 241.5 291.5 256.5 246 256 c 0
 169 255.5 83 211 56 135 c 0
163 383 m 1
 154.5 408.5 l 1
 206.5 440 264.5 470.5 327 469 c 0
 413 466.5 438 398 417 323 c 1
 305.5 0 l 1
 274.5 0 l 1
 388 323 l 1
 401.5 381 393 438 322 440.5 c 0
 264.5 443 210 411.5 163 383 c 1
229.5 578.5 m 1
 251.5 608 279 642 320.5 641 c 0
 360 640.5 382 593.5 421.5 596 c 0
 450 597.5 473 623.5 492 642 c 1
 507.5 626.5 l 1
 484 602 453 569 415 570 c 0
 376.5 571 356.5 615 318 615 c 0
 285 615 265 589 247.5 566 c 1
 229.5 578.5 l 1
EndSplineSet
Substitution2: "alt a" atilde.alt
EndChar

StartChar: adieresis
Encoding: 228 228 217
Width: 423
VWidth: 0
Flags: HMW
LayerCount: 2
Fore
SplineSet
56 135 m 0
 33.5 71.5 68.5 20 135.5 19.5 c 0
 228 18.5 294 89.5 335 164.5 c 1
 338 149 l 1
 297 66 224.5 -9.5 125 -9 c 0
 43 -8.5 -0.5 56 25 133 c 0
 55.5 225 156 282 249.5 281.5 c 0
 298 281.5 335.5 265 369 231.5 c 1
 361.5 212 l 1
 328.5 241.5 291.5 256.5 246 256 c 0
 169 255.5 83 211 56 135 c 0
163 383 m 1
 154.5 408.5 l 1
 206.5 440 264.5 470.5 327 469 c 0
 413 466.5 438 398 417 323 c 1
 305.5 0 l 1
 274.5 0 l 1
 388 323 l 1
 401.5 381 393 438 322 440.5 c 0
 264.5 443 210 411.5 163 383 c 1
414.5 569 m 0
 417 579 434 593 445 592 c 0
 456.5 591 463.5 579 461 567.5 c 0
 458.5 557.5 441 543.5 430 544.5 c 0
 418.5 545.5 412 557.5 414.5 569 c 0
252.5 569 m 0
 255 579 272 593 283 592 c 0
 294.5 591 301 579 298.5 567.5 c 0
 296 557.5 279 543.5 268 544.5 c 0
 256.5 545.5 250 557.5 252.5 569 c 0
EndSplineSet
Substitution2: "alt a" adieresis.alt
EndChar

StartChar: aring
Encoding: 229 229 218
Width: 423
VWidth: 0
Flags: HMW
LayerCount: 2
Fore
SplineSet
56 135 m 0
 33.5 71.5 68.5 20 135.5 19.5 c 0
 228 18.5 294 89.5 335 164.5 c 1
 338 149 l 1
 297 66 224.5 -9.5 125 -9 c 0
 43 -8.5 -0.5 56 25 133 c 0
 55.5 225 156 282 249.5 281.5 c 0
 298 281.5 335.5 265 369 231.5 c 1
 361.5 212 l 1
 328.5 241.5 291.5 256.5 246 256 c 0
 169 255.5 83 211 56 135 c 0
163 383 m 1
 154.5 408.5 l 1
 206.5 440 264.5 470.5 327 469 c 0
 413 466.5 438 398 417 323 c 1
 305.5 0 l 1
 274.5 0 l 1
 388 323 l 1
 401.5 381 393 438 322 440.5 c 0
 264.5 443 210 411.5 163 383 c 1
287 631.5 m 0
 303.5 682 362.5 730 417 729 c 0
 471 728 497 677 481.5 628.5 c 0
 465 578 406 530 351.5 531 c 0
 297.5 532 271.5 583 287 631.5 c 0
309 629.5 m 0
 297.5 594 314.5 554.5 355 552 c 0
 396.5 549.5 447.5 592.5 460 630.5 c 0
 471.5 666 453.5 705.5 413 708 c 0
 371.5 710.5 321.5 667.5 309 629.5 c 0
EndSplineSet
Substitution2: "alt a" aring.alt
EndChar

StartChar: germandbls
Encoding: 223 223 219
Width: 509
VWidth: 0
Flags: HMW
LayerCount: 2
Fore
SplineSet
194 19.5 m 1
 314 35.5 421.5 110 462 228 c 0
 502 345 428.5 418 317 431.5 c 1
 323.5 451.5 l 1
 450.5 440 535 356.5 491.5 224.5 c 0
 447 89.5 322.5 4.5 184.5 -9 c 1
 194 19.5 l 1
319.5 440 m 1
 326 461 l 1
 422.5 469.5 516 505.5 552 603 c 0
 582 684.5 548.5 759 455.5 759.5 c 0
 364.5 760 287.5 686 257.5 606 c 2
 49.5 0 l 1
 19.5 0 l 1
 226.5 606.5 l 2
 263 703.5 348.5 788.5 460 789 c 0
 570 789.5 617 704.5 583.5 605 c 0
 543 487 434 447.5 319.5 440 c 1
EndSplineSet
EndChar

StartChar: ae
Encoding: 230 230 220
Width: 776
VWidth: 0
Flags: HMW
LayerCount: 2
Fore
SplineSet
54.5 133 m 0
 32 69.5 69.5 20 136 19.5 c 0
 229 18.5 305.5 94 335.5 169 c 1
 350 153 l 1
 318 69.5 232.5 -9 131.5 -9 c 0
 50 -9 -1.5 51 24 131 c 0
 54.5 225 156.5 282.5 251.5 281.5 c 0
 298.5 281.5 336.5 265 369 231.5 c 1
 361.5 212 l 1
 329 241.5 294 256.5 249 256 c 0
 170 255.5 81.5 211 54.5 133 c 0
164 383 m 1
 154.5 408.5 l 1
 206.5 440.5 267 472 330.5 469 c 0
 411.5 465 432 400 412 330 c 1
 354 154 l 1
 331 155 l 1
 387.5 320 l 1
 404.8005 376.203 394 437 324 440.5 c 0
 266.5 444 211.5 411.5 164 383 c 1
374.5 223 m 1
 383 249.5 l 1
 761 250 l 1
 761.5 222.5 l 1
 374.5 223 l 1
740 250 m 2
 770 334 748 439 642.5 441.5 c 0
 523.5 444 435 341 390.5 242.5 c 1
 387 233.5 l 1
 361.5 145.5 363.5 24 482 20.5 c 0
 566.5 18 637 68.5 697 122 c 1
 718 104.5 l 1
 650.5 42 570 -12 474.5 -9 c 0
 348 -5 319.5 129 357.5 230 c 0
 364 247 373 263 381.5 279 c 0
 436.5 376.5 531.5 471.5 652.5 469 c 0
 772 466.5 802.5 344.5 771.5 247.5 c 0
 769 239.5 766 231 762.5 223 c 1
 733 231 l 1
 740 250 l 2
EndSplineSet
EndChar

StartChar: ccedilla
Encoding: 231 231 221
Width: 456
VWidth: 0
Flags: HMW
LayerCount: 2
Fore
SplineSet
88.5 230 m 0
 55 134.5 90 22 206 20.5 c 0
 269.5 20 327.5 50 378.5 85.5 c 1
 366.5 47.5 l 1
 316.5 15 260.5 -9 200 -9 c 0
 67 -8.5 21 117.5 58 230 c 0
 98.5 355 223 469.5 359.5 469 c 0
 411.5 469 454.5 450 489.5 411.5 c 1
 477.5 373.5 l 1
 449.5 417.5 408 440 354.5 439.5 c 0
 235.5 439 126.5 338 88.5 230 c 0
199 14.5 m 1
 226 14.5 l 1
 139.5 -70.5 l 1
 155.5 -63.5 175 -53 193 -55 c 0
 231.5 -60 249 -93 239 -129.5 c 0
 225 -182 159.5 -222 107 -221.5 c 0
 74.5 -221.5 55 -205 33.5 -183.5 c 1
 52 -168.5 l 1
 69 -184.5 86 -198.5 111.5 -198.5 c 0
 151.5 -198.5 204 -168 215.5 -128 c 0
 223.5 -100.5 208.5 -76.5 180 -73.5 c 0
 153.5 -70 125 -85 101 -95 c 1
 199 14.5 l 1
EndSplineSet
EndChar

StartChar: egrave
Encoding: 232 232 222
Width: 475
VWidth: 0
Flags: HMW
LayerCount: 2
Fore
SplineSet
89 223 m 1
 97.5 249.5 l 1
 442.5 250 l 1
 470.5 326.5 454 438.5 345 440.5 c 0
 229.5 442.5 141.5 336.5 105.5 242 c 1
 102.5 232 l 1
 78.5 143 88.501 23.04834 203 20.5 c 0
 280.497 18.79834 348.5 70 403.5 122.5 c 1
 424.5 104.5 l 1
 361.5 43 286.51 -9.85156 195 -9 c 0
 66 -7.5 42 129 72 231.5 c 0
 79 255 89 278 101 299.5 c 0
 149.5 387 242.5 470 348.5 469 c 0
 470 467.5 504.5 348 475.5 248 c 0
 473 239.5 469.5 231 466.5 223 c 1
 89 223 l 1
256.3355 687.005 m 1
 287.3355 703.505 l 1
 393.8355 543.505 l 1
 375.8355 532.505 l 1
 256.3355 687.005 l 1
EndSplineSet
EndChar

StartChar: eacute
Encoding: 233 233 223
Width: 475
VWidth: 0
Flags: HMW
LayerCount: 2
Fore
SplineSet
89 223 m 1
 97.5 249.5 l 1
 442.5 250 l 1
 470.5 326.5 454 438.5 345 440.5 c 0
 229.5 442.5 141.5 336.5 105.5 242 c 1
 102.5 232 l 1
 78.5 143 88.501 23.04834 203 20.5 c 0
 280.497 18.79834 348.5 70 403.5 122.5 c 1
 424.5 104.5 l 1
 361.5 43 286.51 -9.85156 195 -9 c 0
 66 -7.5 42 129 72 231.5 c 0
 79 255 89 278 101 299.5 c 0
 149.5 387 242.5 470 348.5 469 c 0
 470 467.5 504.5 348 475.5 248 c 0
 473 239.5 469.5 231 466.5 223 c 1
 89 223 l 1
576.13 683.005 m 1
 361.63 533.005 l 1
 347.63 545.505 l 1
 553.13 701.505 l 1
 576.13 683.005 l 1
EndSplineSet
EndChar

StartChar: ecircumflex
Encoding: 234 234 224
Width: 475
VWidth: 0
Flags: HMW
LayerCount: 2
Fore
SplineSet
89 223 m 1
 97.5 249.5 l 1
 442.5 250 l 1
 470.5 326.5 454 438.5 345 440.5 c 0
 229.5 442.5 141.5 336.5 105.5 242 c 1
 102.5 232 l 1
 78.5 143 88.501 23.04834 203 20.5 c 0
 280.497 18.79834 348.5 70 403.5 122.5 c 1
 424.5 104.5 l 1
 361.5 43 286.51 -9.85156 195 -9 c 0
 66 -7.5 42 129 72 231.5 c 0
 79 255 89 278 101 299.5 c 0
 149.5 387 242.5 470 348.5 469 c 0
 470 467.5 504.5 348 475.5 248 c 0
 473 239.5 469.5 231 466.5 223 c 1
 89 223 l 1
407.3645 651.505 m 1
 231.8645 531.005 l 1
 216.8645 548.505 l 1
 414.8645 685.505 l 1
 520.3645 545.505 l 1
 497.3645 529.505 l 1
 407.3645 651.505 l 1
EndSplineSet
EndChar

StartChar: edieresis
Encoding: 235 235 225
Width: 475
VWidth: 0
Flags: HMW
LayerCount: 2
Fore
SplineSet
89 223 m 1
 97.5 249.5 l 1
 442.5 250 l 1
 470.5 326.5 454 438.5 345 440.5 c 0
 229.5 442.5 141.5 336.5 105.5 242 c 1
 102.5 232 l 1
 78.5 143 88.501 23.04834 203 20.5 c 0
 280.497 18.79834 348.5 70 403.5 122.5 c 1
 424.5 104.5 l 1
 361.5 43 286.51 -9.85156 195 -9 c 0
 66 -7.5 42 129 72 231.5 c 0
 79 255 89 278 101 299.5 c 0
 149.5 387 242.5 470 348.5 469 c 0
 470 467.5 504.5 348 475.5 248 c 0
 473 239.5 469.5 231 466.5 223 c 1
 89 223 l 1
441.129 554.005 m 0
 443.629 564.005 460.129 578.505 471.129 577.505 c 0
 482.629 576.505 490.129 564.505 487.629 553.005 c 0
 485.129 543.005 468.129 528.505 457.129 529.505 c 0
 445.629 530.505 438.629 542.505 441.129 554.005 c 0
253.129 554.005 m 0
 255.629 564.005 272.129 578.505 283.129 577.505 c 0
 294.629 576.505 302.129 564.505 299.629 553.005 c 0
 297.129 543.005 280.129 528.505 269.129 529.505 c 0
 257.629 530.505 250.629 542.505 253.129 554.005 c 0
EndSplineSet
EndChar

StartChar: igrave
Encoding: 236 236 226
Width: 197
VWidth: 0
Flags: HMW
LayerCount: 2
Fore
SplineSet
187.5 459 m 1
 218.5 459.5 l 1
 59 0 l 1
 29.5 0 l 1
 187.5 459 l 1
132.5 691.5 m 1
 164.5 708 l 1
 266.5 548 l 1
 247 536.5 l 1
 132.5 691.5 l 1
EndSplineSet
EndChar

StartChar: dotlessi
Encoding: 305 305 227
Width: 197
VWidth: 0
Flags: HMW
LayerCount: 2
Fore
SplineSet
187.5 459 m 1
 218.5 459.5 l 1
 59 0 l 1
 29.5 0 l 1
 187.5 459 l 1
EndSplineSet
EndChar

StartChar: kgreenlandic
Encoding: 312 312 228
Width: 368
VWidth: 0
Flags: HMW
LayerCount: 2
Fore
SplineSet
175 459 m 1
 206.5 459.5 l 1
 46.5 0 l 1
 17 0 l 1
 175 459 l 1
407.5 458.5 m 1
 450 458.5 l 1
 166.5 269 l 1
 308 0 l 1
 272 0 l 1
 129.5 272 l 1
 407.5 458.5 l 1
EndSplineSet
EndChar

StartChar: iacute
Encoding: 237 237 229
Width: 197
VWidth: 0
Flags: HMW
LayerCount: 2
Fore
SplineSet
187.5 459 m 1
 218.5 459.5 l 1
 59 0 l 1
 29.5 0 l 1
 187.5 459 l 1
429.5 688 m 1
 212.5 538 l 1
 197.5 551 l 1
 407 707 l 1
 429.5 688 l 1
EndSplineSet
EndChar

StartChar: icircumflex
Encoding: 238 238 230
Width: 197
VWidth: 0
Flags: HMW
LayerCount: 2
Fore
SplineSet
187.5 459 m 1
 218.5 459.5 l 1
 59 0 l 1
 29.5 0 l 1
 187.5 459 l 1
271 655 m 1
 96 534.5 l 1
 81 552 l 1
 279 689 l 1
 384.5 549.5 l 1
 361 533.5 l 1
 271 655 l 1
EndSplineSet
EndChar

StartChar: idieresis
Encoding: 239 239 231
Width: 197
VWidth: 0
Flags: HMW
LayerCount: 2
Fore
SplineSet
187.5 459 m 1
 218.5 459.5 l 1
 59 0 l 1
 29.5 0 l 1
 187.5 459 l 1
295 564 m 0
 297.5 574 314 588 325 587 c 0
 336.5 586 344 574 341.5 562.5 c 0
 339 552.5 322 538.5 311 539.5 c 0
 299.5 540.5 292.5 552.5 295 564 c 0
133 564 m 0
 135.5 574 152.5 588 163.5 587 c 0
 175 586 182 574 179.5 562.5 c 0
 177 552.5 160 538.5 149 539.5 c 0
 137.5 540.5 130.5 552.5 133 564 c 0
EndSplineSet
EndChar

StartChar: ntilde
Encoding: 241 241 232
Width: 460
VWidth: 0
Flags: HMW
LayerCount: 2
Fore
SplineSet
211 459.5 m 1
 51.5 0 l 1
 20.5 0 l 1
 180.5 459.5 l 1
 211 459.5 l 1
406 308 m 2
 424 367.5 423 437 345 439.5 c 0
 252.5 442 185 355 146.5 282 c 1
 132.5 282 l 1
 173 369.5 247.5 469.5 355.5 469 c 0
 449.5 468.5 459 384 437 311 c 1
 328.5 0 l 1
 299.5 0 l 1
 406 308 l 2
235.5 557.5 m 1
 257.5 587 285.5 621 327 620 c 0
 366.5 619.5 388.5 572.5 428 575 c 0
 456.5 576.5 479 602.5 498 621 c 1
 514.5 605.5 l 1
 491 581 459.5 548 421.5 549 c 0
 383 550 362.5 594 323.5 594 c 0
 291.5 594 271.5 568 254.5 545 c 1
 235.5 557.5 l 1
EndSplineSet
EndChar

StartChar: ograve
Encoding: 242 242 233
Width: 520
VWidth: 0
Flags: HMW
LayerCount: 2
Fore
SplineSet
62.5 230 m 0
 103 353.5 227.5 469.5 363.5 469 c 0
 496.5 468.5 543.5 342.5 506.5 230 c 0
 466 106.5 341 -9.5 205 -9 c 0
 72 -8.5 25.5 117.5 62.5 230 c 0
93.5 230 m 0
 60 134 94 21.5 210 20.5 c 0
 329 19.5 438.5 122.5 475.5 230 c 0
 509 326 475 438.5 359 439.5 c 0
 240 440.5 130.5 337.5 93.5 230 c 0
306 691.5 m 1
 337.5 708 l 1
 440 548 l 1
 421.5 536.5 l 1
 306 691.5 l 1
EndSplineSet
EndChar

StartChar: oacute
Encoding: 243 243 234
Width: 520
VWidth: 0
Flags: HMW
LayerCount: 2
Fore
SplineSet
62.5 230 m 0
 103 353.5 227.5 469.5 363.5 469 c 0
 496.5 468.5 543.5 342.5 506.5 230 c 0
 466 106.5 341 -9.5 205 -9 c 0
 72 -8.5 25.5 117.5 62.5 230 c 0
93.5 230 m 0
 60 134 94 21.5 210 20.5 c 0
 329 19.5 438.5 122.5 475.5 230 c 0
 509 326 475 438.5 359 439.5 c 0
 240 440.5 130.5 337.5 93.5 230 c 0
577.5 688 m 1
 359 538 l 1
 345.5 551 l 1
 555.5 707 l 1
 577.5 688 l 1
EndSplineSet
EndChar

StartChar: ocircumflex
Encoding: 244 244 235
Width: 520
VWidth: 0
Flags: HMW
LayerCount: 2
Fore
SplineSet
62.5 230 m 0
 103 353.5 227.5 469.5 363.5 469 c 0
 496.5 468.5 543.5 342.5 506.5 230 c 0
 466 106.5 341 -9.5 205 -9 c 0
 72 -8.5 25.5 117.5 62.5 230 c 0
93.5 230 m 0
 60 134 94 21.5 210 20.5 c 0
 329 19.5 438.5 122.5 475.5 230 c 0
 509 326 475 438.5 359 439.5 c 0
 240 440.5 130.5 337.5 93.5 230 c 0
438 672 m 1
 262.5 551.5 l 1
 248 569 l 1
 446 706 l 1
 551 566.5 l 1
 527.5 550.5 l 1
 438 672 l 1
EndSplineSet
EndChar

StartChar: otilde
Encoding: 245 245 236
Width: 520
VWidth: 0
Flags: HMW
LayerCount: 2
Fore
SplineSet
62.5 230 m 0
 103 353.5 227.5 469.5 363.5 469 c 0
 496.5 468.5 543.5 342.5 506.5 230 c 0
 466 106.5 341 -9.5 205 -9 c 0
 72 -8.5 25.5 117.5 62.5 230 c 0
93.5 230 m 0
 60 134 94 21.5 210 20.5 c 0
 329 19.5 438.5 122.5 475.5 230 c 0
 509 326 475 438.5 359 439.5 c 0
 240 440.5 130.5 337.5 93.5 230 c 0
264 557.5 m 1
 251.5 586.5 336.5 620.5 356 620 c 0
 395.5 620 417 572.5 457 575 c 0
 485.5 576.5 508.5 602.5 527.5 621 c 1
 544 605.5 l 1
 520.5 581 489 548 451.5 549 c 0
 413 550 392 595.5 353 594 c 0
 321.5 592.5 301.5 567.5 284 545 c 1
 264 557.5 l 1
EndSplineSet
EndChar

StartChar: odieresis
Encoding: 246 246 237
Width: 520
VWidth: 0
Flags: HMW
LayerCount: 2
Fore
SplineSet
62.5 230 m 0
 103 353.5 227.5 469.5 363.5 469 c 0
 496.5 468.5 543.5 342.5 506.5 230 c 0
 466 106.5 341 -9.5 205 -9 c 0
 72 -8.5 25.5 117.5 62.5 230 c 0
93.5 230 m 0
 60 134 94 21.5 210 20.5 c 0
 329 19.5 438.5 122.5 475.5 230 c 0
 509 326 475 438.5 359 439.5 c 0
 240 440.5 130.5 337.5 93.5 230 c 0
473.5 578 m 0
 476 588 493 602 504 601 c 0
 515.5 600 522.5 588 520 576.5 c 0
 517.5 566.5 501 552.5 490 553.5 c 0
 478.5 554.5 471 566.5 473.5 578 c 0
285.5 578 m 0
 288 588 305 602 316 601 c 0
 327.5 600 334.5 588 332 576.5 c 0
 329.5 566.5 312.5 552.5 301.5 553.5 c 0
 290 554.5 283 566.5 285.5 578 c 0
EndSplineSet
EndChar

StartChar: ugrave
Encoding: 249 249 238
Width: 460
VWidth: 0
Flags: HMW
LayerCount: 2
Fore
SplineSet
298.5 0 m 1
 457.5 459.5 l 1
 488.5 459.5 l 1
 329.5 0 l 1
 298.5 0 l 1
106 159 m 2
 87.5 99.5 83.5 22 165 20.5 c 0
 257.5 18 324 104 362.5 178 c 1
 377.5 178 l 1
 337 90.5 261.5 -10.5 153.5 -9 c 0
 55.5 -8.5 52.5 82.5 75 156 c 1
 181 459.5 l 1
 210 459 l 1
 106 159 l 2
277 698.5 m 1
 309 715 l 1
 411 555 l 1
 392 543.5 l 1
 277 698.5 l 1
EndSplineSet
EndChar

StartChar: uacute
Encoding: 250 250 239
Width: 460
VWidth: 0
Flags: HMW
LayerCount: 2
Fore
SplineSet
298.5 0 m 1
 457.5 459.5 l 1
 488.5 459.5 l 1
 329.5 0 l 1
 298.5 0 l 1
106 159 m 2
 87.5 99.5 83.5 22 165 20.5 c 0
 257.5 18 324 104 362.5 178 c 1
 377.5 178 l 1
 337 90.5 261.5 -10.5 153.5 -9 c 0
 55.5 -8.5 52.5 82.5 75 156 c 1
 181 459.5 l 1
 210 459 l 1
 106 159 l 2
552 695 m 1
 334.5 544.5 l 1
 320.5 558 l 1
 529.5 714 l 1
 552 695 l 1
EndSplineSet
EndChar

StartChar: ucircumflex
Encoding: 251 251 240
Width: 460
VWidth: 0
Flags: HMW
LayerCount: 2
Fore
SplineSet
298.5 0 m 1
 457.5 459.5 l 1
 488.5 459.5 l 1
 329.5 0 l 1
 298.5 0 l 1
106 159 m 2
 87.5 99.5 83.5 22 165 20.5 c 0
 257.5 18 324 104 362.5 178 c 1
 377.5 178 l 1
 337 90.5 261.5 -10.5 153.5 -9 c 0
 55.5 -8.5 52.5 82.5 75 156 c 1
 181 459.5 l 1
 210 459 l 1
 106 159 l 2
406 665 m 1
 230.5 544.5 l 1
 216 562 l 1
 414 699 l 1
 519.5 559.5 l 1
 495 543.5 l 1
 406 665 l 1
EndSplineSet
EndChar

StartChar: udieresis
Encoding: 252 252 241
Width: 460
VWidth: 0
Flags: HMW
LayerCount: 2
Fore
SplineSet
298.5 0 m 1
 457.5 459.5 l 1
 488.5 459.5 l 1
 329.5 0 l 1
 298.5 0 l 1
106 159 m 2
 87.5 99.5 83.5 22 165 20.5 c 0
 257.5 18 324 104 362.5 178 c 1
 377.5 178 l 1
 337 90.5 261.5 -10.5 153.5 -9 c 0
 55.5 -8.5 52.5 82.5 75 156 c 1
 181 459.5 l 1
 210 459 l 1
 106 159 l 2
430 575.5 m 0
 432.5 585 449.5 599 460.5 598 c 0
 472 596.5 479 585 476.5 573.5 c 0
 474 563.5 457 549.5 446 550.5 c 0
 434 551.5 427.5 564.5 430 575.5 c 0
267.5 575.5 m 0
 270 585 287.5 599 298.5 598 c 0
 310 596.5 317 585 314.5 573.5 c 0
 312 563.5 295.5 549.5 284.5 550.5 c 0
 272.5 551.5 265 564.5 267.5 575.5 c 0
EndSplineSet
EndChar

StartChar: yacute
Encoding: 253 253 242
Width: 403
VWidth: 0
Flags: HMW
LayerCount: 2
Fore
SplineSet
503 459 m 1
 -14 -219 l 1
 -49 -218.5 l 1
 146 35.5 l 1
 109.5 460 l 1
 144.5 460 l 1
 174 44 l 1
 157 46 l 1
 468 459 l 1
 503 459 l 1
524 688 m 1
 306 538 l 1
 292 551 l 1
 501.5 707 l 1
 524 688 l 1
EndSplineSet
EndChar

StartChar: thorn
Encoding: 254 254 243
Width: 517
VWidth: 0
Flags: HMW
LayerCount: 2
Fore
SplineSet
-27.5 -219 m 1
 -58.5 -219.5 l 1
 285 779.5 l 1
 314.5 779 l 1
 -27.5 -219 l 1
503 230 m 0
 464 112 351.5 -12 218 -9.5 c 0
 90 -7 80.5 135 112 230 c 0
 148.5 341 248.5 468 376.5 469 c 0
 510 470 537.5 334.5 503 230 c 0
472.5 230 m 0
 503.5 320 483.5 441 366.5 439.5 c 0
 255.5 438 160 327 126 230 c 0
 98 148 109.5 24.5 218 20.5 c 0
 335 16 437 127.5 472.5 230 c 0
EndSplineSet
EndChar

StartChar: ydieresis
Encoding: 255 255 244
Width: 403
VWidth: 0
Flags: HMW
LayerCount: 2
Fore
SplineSet
503 459 m 1
 -14 -219 l 1
 -49 -218.5 l 1
 146 35.5 l 1
 109.5 460 l 1
 144.5 460 l 1
 174 44 l 1
 157 46 l 1
 468 459 l 1
 503 459 l 1
399.5 569 m 0
 402 579 418.5 593 429.5 592 c 0
 441 591 448.5 578.5 446 567 c 0
 443.5 557 426.5 543.5 415.5 544.5 c 0
 404 546 397 557.5 399.5 569 c 0
238 569 m 0
 240.5 579 257 593 268 592 c 0
 279.5 591 287 578.5 284.5 567 c 0
 282 557 264 543.5 253 544.5 c 0
 241.5 546 235.5 557.5 238 569 c 0
EndSplineSet
EndChar

StartChar: Amacron
Encoding: 256 256 245
Width: 580
VWidth: 0
Flags: HMW
LayerCount: 2
Fore
SplineSet
157.5 254 m 1
 175.5 284 l 1
 491.5 284.5 l 1
 490 253.5 l 1
 157.5 254 l 1
459.5 644 m 1
 190 273 l 1
 184.5 265 l 1
 -8.5 0 l 1
 -46 0 l 1
 483 722 l 1
 515.5 0 l 1
 480.5 0 l 1
 472.5 263 l 1
 472.5 271 l 1
 459.5 644 l 1
343.5 795.5 m 1
 353 824.5 l 1
 684 824.5 l 1
 673.5 795 l 1
 343.5 795.5 l 1
EndSplineSet
EndChar

StartChar: amacron
Encoding: 257 257 246
Width: 423
VWidth: 0
Flags: HMW
LayerCount: 2
Fore
SplineSet
56 135 m 0
 33.5 71.5 68.5 20 135.5 19.5 c 0
 228 18.5 294 89.5 335 164.5 c 1
 338 149 l 1
 297 66 224.5 -9.5 125 -9 c 0
 43 -8.5 -0.5 56 25 133 c 0
 55.5 225 156 282 249.5 281.5 c 0
 298 281.5 335.5 265 369 231.5 c 1
 361.5 212 l 1
 328.5 241.5 291.5 256.5 246 256 c 0
 169 255.5 83 211 56 135 c 0
163 383 m 1
 154.5 408.5 l 1
 206.5 440 264.5 470.5 327 469 c 0
 413 466.5 438 398 417 323 c 1
 305.5 0 l 1
 274.5 0 l 1
 388 323 l 1
 401.5 381 393 438 322 440.5 c 0
 264.5 443 210 411.5 163 383 c 1
192.5 550.5 m 1
 202 579.5 l 1
 532.5 579.5 l 1
 523 550 l 1
 192.5 550.5 l 1
EndSplineSet
Substitution2: "alt a" amacron.alt
EndChar

StartChar: breve
Encoding: 728 728 247
Width: 513
VWidth: 0
Flags: HMW
LayerCount: 2
Fore
SplineSet
335.5 850 m 1
 362 850 l 1
 355 788.5 377.5 738.5 447 737.5 c 0
 521 736.5 573 789 606.5 849 c 1
 634.5 848 l 1
 597.5 772 532.5 711 443 711 c 0
 357 711 325 772.5 335.5 850 c 1
EndSplineSet
EndChar

StartChar: Abreve
Encoding: 258 258 248
Width: 580
VWidth: 0
Flags: HMW
LayerCount: 2
Fore
SplineSet
157.5 254 m 1
 175.5 284 l 1
 491.5 284.5 l 1
 490 253.5 l 1
 157.5 254 l 1
459.5 644 m 1
 190 273 l 1
 184.5 265 l 1
 -8.5 0 l 1
 -46 0 l 1
 483 722 l 1
 515.5 0 l 1
 480.5 0 l 1
 472.5 263 l 1
 472.5 271 l 1
 459.5 644 l 1
404 928 m 1
 431 927.5 l 1
 421.5 866.5 442.5 816.5 512 815.5 c 0
 586 814.5 640 867.5 675.5 926.5 c 1
 703.5 926 l 1
 664 850.5 597.5 788.5 508 789 c 0
 421.5 789.5 391 850.5 404 928 c 1
EndSplineSet
EndChar

StartChar: abreve
Encoding: 259 259 249
Width: 423
VWidth: 0
Flags: HMW
LayerCount: 2
Fore
SplineSet
56 135 m 0
 33.5 71.5 68.5 20 135.5 19.5 c 0
 228 18.5 294 89.5 335 164.5 c 1
 338 149 l 1
 297 66 224.5 -9.5 125 -9 c 0
 43 -8.5 -0.5 56 25 133 c 0
 55.5 225 156 282 249.5 281.5 c 0
 298 281.5 335.5 265 369 231.5 c 1
 361.5 212 l 1
 328.5 241.5 291.5 256.5 246 256 c 0
 169 255.5 83 211 56 135 c 0
163 383 m 1
 154.5 408.5 l 1
 206.5 440 264.5 470.5 327 469 c 0
 413 466.5 438 398 417 323 c 1
 305.5 0 l 1
 274.5 0 l 1
 388 323 l 1
 401.5 381 393 438 322 440.5 c 0
 264.5 443 210 411.5 163 383 c 1
244.5 677 m 1
 271.5 676.5 l 1
 262 615.5 282.5 565.5 352 564.5 c 0
 426 563.5 480 616.5 515.5 675.5 c 1
 544 675 l 1
 504.5 600 437.5 537.5 348 538 c 0
 261.5 538.5 231.5 599.5 244.5 677 c 1
EndSplineSet
Substitution2: "alt a" abreve.alt
EndChar

StartChar: Aogonek
Encoding: 260 260 250
Width: 580
VWidth: 0
Flags: HMW
LayerCount: 2
Fore
SplineSet
159 254 m 1
 177 284 l 1
 491.5 284.5 l 1
 490 253.5 l 1
 159 254 l 1
459.5 644 m 1
 190 273 l 1
 184.5 265 l 1
 -8.5 0 l 1
 -46 0 l 1
 483 722 l 1
 515.5 0 l 1
 480.5 0 l 1
 472.5 263 l 1
 472.5 271 l 1
 459.5 644 l 1
484.5 -161 m 1
 493 -182.5 l 1
 462 -202 429 -219.5 391 -219 c 0
 340 -219 300 -187.5 315 -133 c 0
 337 -55 437.5 -16 503.5 13.5 c 1
 517 0 l 1
 461.5 -28 365 -59.5 347 -128 c 0
 337 -165.5 363 -189 398.5 -191 c 0
 429 -192.5 459 -175.5 484.5 -161 c 1
EndSplineSet
EndChar

StartChar: aogonek
Encoding: 261 261 251
Width: 423
VWidth: 0
Flags: HMW
LayerCount: 2
Fore
SplineSet
56 135 m 0
 34.5 72 69 20 135.5 19.5 c 0
 227.5 18.5 294 89.5 335 164.5 c 1
 338 149 l 1
 297 66 224.5 -9.5 125 -9 c 0
 42.5 -8.5 0 58 25.5 135 c 0
 56 226.5 156.5 282 249.5 281.5 c 0
 298 281 335.5 265 369 231.5 c 1
 361.5 212 l 1
 328.5 241.5 291.5 256.5 246 256 c 0
 169 255.5 82.5 211.5 56 135 c 0
163 383 m 1
 154.5 408.5 l 1
 206.5 440 264.5 470.5 327 469 c 0
 413 466.5 438 398 417 323 c 1
 305.5 0 l 1
 274.5 0 l 1
 388 323 l 1
 401.5 381 393 438 322 440.5 c 0
 264.5 443 210 411.5 163 383 c 1
274.5 -161 m 1
 283 -182.5 l 1
 252 -202 219 -219.5 181 -219 c 0
 130 -219 90 -187.5 105 -133 c 0
 127 -55 228 -16.5 294 13.5 c 1
 307 0 l 1
 251.5 -28 155 -59.5 137 -128 c 0
 127 -165.5 153.5 -189 189 -191 c 0
 219.5 -192.5 249 -175.5 274.5 -161 c 1
EndSplineSet
Substitution2: "alt a" aogonek.alt
EndChar

StartChar: Cacute
Encoding: 262 262 252
Width: 644
VWidth: 0
Flags: HMW
LayerCount: 2
Fore
SplineSet
143.5 350 m 0
 94 206.5 134 29.5 312.5 26.5 c 0
 403 25 484.5 64.5 557.5 113.5 c 1
 543 69.5 l 1
 470.5 24 392.5 -9 306 -8 c 0
 108.5 -6 54 187.5 108.5 350 c 0
 169.5 533.5 343 706.5 545.5 708.5 c 0
 621 709.5 681.5 684 733.5 630 c 1
 719 586 l 1
 675 647 614 675 539 674.5 c 0
 355.5 673 200.5 514 143.5 350 c 0
748.5 920.5 m 1
 530 770.5 l 1
 516.5 783.5 l 1
 726.5 939.5 l 1
 748.5 920.5 l 1
EndSplineSet
EndChar

StartChar: cacute
Encoding: 263 263 253
Width: 456
VWidth: 0
Flags: HMW
LayerCount: 2
Fore
SplineSet
88.5 230 m 0
 55 134.5 90 22 206 20.5 c 0
 269.5 20 327.5 50 378.5 85.5 c 1
 366.5 47.5 l 1
 316.5 15 260.5 -9 200 -9 c 0
 67 -8.5 21 117.5 58 230 c 0
 98.5 355 223 469.5 359.5 469 c 0
 411.5 469 454.5 450 489.5 411.5 c 1
 477.5 373.5 l 1
 449.5 417.5 408 440 354.5 439.5 c 0
 235.5 439 126.5 338 88.5 230 c 0
571 689 m 1
 353.5 539 l 1
 338.5 552 l 1
 548.5 708 l 1
 571 689 l 1
EndSplineSet
EndChar

StartChar: Ccircumflex
Encoding: 264 264 254
Width: 644
VWidth: 0
Flags: HMW
LayerCount: 2
Fore
SplineSet
143.5 350 m 0
 94 206.5 134 29.5 312.5 26.5 c 0
 403 25 484.5 64.5 557.5 113.5 c 1
 543 69.5 l 1
 470.5 24 392.5 -9 306 -8 c 0
 108.5 -5.5 54 187.5 108.5 350 c 0
 169.5 533.5 343 706.5 545.5 708.5 c 0
 621 709.5 681.5 684 733.5 630 c 1
 719 586 l 1
 675 647 614 675 539 674.5 c 0
 355.5 673 200.5 514 143.5 350 c 0
613 890.5 m 1
 437.5 770.5 l 1
 422.5 788 l 1
 620.5 925 l 1
 725.5 785 l 1
 703 769 l 1
 613 890.5 l 1
EndSplineSet
EndChar

StartChar: ccircumflex
Encoding: 265 265 255
Width: 456
VWidth: 0
Flags: HMW
LayerCount: 2
Fore
SplineSet
88.5 230 m 0
 55 134.5 90 22 206 20.5 c 0
 269.5 20 327.5 50 378.5 85.5 c 1
 366.5 47.5 l 1
 316.5 15 260.5 -9 200 -9 c 0
 67 -8.5 21 117.5 58 230 c 0
 98.5 355 223 469.5 359.5 469 c 0
 411.5 469 454.5 450 489.5 411.5 c 1
 477.5 373.5 l 1
 449.5 417.5 408 440 354.5 439.5 c 0
 235.5 439 126.5 338 88.5 230 c 0
427 652 m 1
 251 531.5 l 1
 236 549 l 1
 434 686 l 1
 539.5 546.5 l 1
 516.5 530.5 l 1
 427 652 l 1
EndSplineSet
EndChar

StartChar: Cdotaccent
Encoding: 266 266 256
Width: 644
VWidth: 0
Flags: HMW
LayerCount: 2
Fore
SplineSet
143.5 350 m 0
 94 206.5 134 29.5 312.5 26.5 c 0
 403 25 484.5 64.5 557.5 113.5 c 1
 543 69.5 l 1
 470.5 24 392.5 -9 306 -8 c 0
 108.5 -6 54 187.5 108.5 350 c 0
 169.5 533.5 343 706.5 545.5 708.5 c 0
 621 709.5 681.5 684 733.5 630 c 1
 719 586 l 1
 675 647 614 675 539 674.5 c 0
 355.5 673 200.5 514 143.5 350 c 0
556 800.5 m 0
 558.5 810.5 575.5 824.5 586.5 823.5 c 0
 598 822.5 604.5 810.5 602 799 c 0
 599.5 789 582.5 775 571.5 776 c 0
 560 777 553.5 789 556 800.5 c 0
EndSplineSet
EndChar

StartChar: cdotaccent
Encoding: 267 267 257
Width: 456
VWidth: 0
Flags: HMW
LayerCount: 2
Fore
SplineSet
88.5 230 m 0
 55 134.5 90 22 206 20.5 c 0
 269.5 20 327.5 50 378.5 85.5 c 1
 366.5 47.5 l 1
 316.5 15 260.5 -9 200 -9 c 0
 67 -8.5 21 117.5 58 230 c 0
 98.5 355 223 469.5 359.5 469 c 0
 411.5 469 454.5 450 489.5 411.5 c 1
 477.5 373.5 l 1
 449.5 417.5 408 440 354.5 439.5 c 0
 235.5 439 126.5 338 88.5 230 c 0
369.5 562 m 0
 372 572 389 586 400 585 c 0
 411.5 584 418 572 415.5 560.5 c 0
 413 550.5 396 536.5 385 537.5 c 0
 373.5 538.5 367 550.5 369.5 562 c 0
EndSplineSet
EndChar

StartChar: Ccaron
Encoding: 268 268 258
Width: 644
VWidth: 0
Flags: HMW
LayerCount: 2
Fore
SplineSet
143.5 350 m 0
 94 206.5 134 29.5 312.5 26.5 c 0
 403 25 484.5 64.5 557.5 113.5 c 1
 543 69.5 l 1
 470.5 24 392.5 -9 306 -8 c 0
 108.5 -5.5 54 187.5 108.5 350 c 0
 169.5 533.5 343 706.5 545.5 708.5 c 0
 621 709.5 681.5 684 733.5 630 c 1
 719 586 l 1
 675 647 614 675 539 674.5 c 0
 355.5 673 200.5 514 143.5 350 c 0
580 810.5 m 1
 755 931.5 l 1
 770 913.5 l 1
 572 776.5 l 1
 467 916 l 1
 491 933 l 1
 580 810.5 l 1
EndSplineSet
EndChar

StartChar: ccaron
Encoding: 269 269 259
Width: 456
VWidth: 0
Flags: HMW
LayerCount: 2
Fore
SplineSet
88.5 230 m 0
 55 134.5 90 22 206 20.5 c 0
 269.5 20 327.5 50 378.5 85.5 c 1
 366.5 47.5 l 1
 316.5 15 260.5 -9 200 -9 c 0
 67 -8.5 21 117.5 58 230 c 0
 98.5 355 223 469.5 359.5 469 c 0
 411.5 469 454.5 450 489.5 411.5 c 1
 477.5 373.5 l 1
 449.5 417.5 408 440 354.5 439.5 c 0
 235.5 439 126.5 338 88.5 230 c 0
396 579 m 1
 571 700 l 1
 586.5 681.5 l 1
 388.5 544.5 l 1
 283 684.5 l 1
 307 701.5 l 1
 396 579 l 1
EndSplineSet
EndChar

StartChar: Dcaron
Encoding: 270 270 260
Width: 609
VWidth: 0
Flags: HMW
LayerCount: 2
Fore
SplineSet
266 699 m 1
 299.5 699.5 l 1
 58.5 0 l 1
 27 0 l 1
 266 699 l 1
195 0 m 0
 43.5 0 l 1
 55 33 l 1
 201.5 33 l 0
 387 39 540.5 179 599.5 350 c 0
 653 503.5 601.5 659.5 422 667 c 0
 271 667 l 1
 282.5 700 l 1
 428.5 700 l 0
 626 693 689 520 632 350 c 0
 569.5 162 399 6 195 0 c 0
527 824.5 m 1
 701.5 945.5 l 1
 717.5 927.5 l 1
 519.5 790.5 l 1
 414.5 930 l 1
 437.5 947 l 1
 527 824.5 l 1
EndSplineSet
EndChar

StartChar: dcaron
Encoding: 271 271 261
Width: 536
VWidth: 0
Flags: HMW
LayerCount: 2
Fore
SplineSet
627 779 m 1
 658.5 779.5 l 1
 389.5 0 l 1
 360.5 0 l 1
 627 779 l 1
62.5 230 m 0
 101.5 348 214.5 472 348 469.5 c 0
 476 467 486 325 454.5 230 c 0
 418 119 317 -8 189 -9 c 0
 55.5 -10 28 125.5 62.5 230 c 0
93.5 230 m 0
 62.5 140 81.5 19 198.5 20.5 c 0
 309.5 22 406 133 440 230 c 0
 468 312 455.5 435.5 347 439.5 c 0
 230 444 129 332.5 93.5 230 c 0
814 767 m 1
 842.5 753.5 l 1
 650.5 508.5 l 1
 630.5 516 l 1
 814 767 l 1
EndSplineSet
EndChar

StartChar: Dcroat
Encoding: 272 272 262
Width: 639
VWidth: 0
Flags: HMW
LayerCount: 2
Fore
SplineSet
64.5 335 m 1
 74.5 364 l 1
 358 364 l 1
 348.5 334.5 l 1
 64.5 335 l 1
266 699 m 1
 299.5 699.5 l 1
 58.5 0 l 1
 27 0 l 1
 266 699 l 1
195 0 m 0
 43.5 0 l 1
 55 33 l 1
 201.5 33 l 0
 386.5 39.5 540.5 179.5 599.5 350 c 0
 653 502.5 601.5 659.5 422 667 c 0
 271 667 l 1
 282.5 700 l 1
 428.5 700 l 0
 626 693 689 520 632 350 c 0
 569.5 162 399 6 195 0 c 0
EndSplineSet
EndChar

StartChar: dcroat
Encoding: 273 273 263
Width: 517
VWidth: 0
Flags: HMW
LayerCount: 2
Fore
SplineSet
440.5 636 m 1
 450 665 l 1
 734 665 l 1
 723.5 635.5 l 1
 440.5 636 l 1
627 779 m 1
 658.5 779.5 l 1
 389.5 0 l 1
 360.5 0 l 1
 627 779 l 1
62.5 230 m 0
 101.5 348.5 214.5 472 348 469.5 c 0
 476 467 486 325 454.5 230 c 0
 418 119 317 -8 189 -9 c 0
 55.5 -10 27 124.5 62.5 230 c 0
93.5 230 m 0
 62.5 140 82 19 198.5 20.5 c 0
 309 22 406 133 440 230 c 0
 468 311.5 455 435 347 439.5 c 0
 230 444 129 331.5 93.5 230 c 0
EndSplineSet
EndChar

StartChar: Emacron
Encoding: 274 274 264
Width: 490
VWidth: 0
Flags: HMW
LayerCount: 2
Fore
SplineSet
42 0 m 1
 52 31 l 1
 376 31 l 1
 366 0 l 1
 42 0 l 1
271 669.5 m 1
 281 700 l 1
 604 700 l 1
 594 669 l 1
 271 669.5 l 1
168.5 371 m 1
 179.5 402 l 1
 483.5 402 l 1
 473.5 371 l 1
 168.5 371 l 1
266 699 m 1
 299.5 699.5 l 1
 58.5 0 l 1
 27 0 l 1
 266 699 l 1
322.5 816 m 1
 333 845 l 1
 663 845 l 1
 653.5 815.5 l 1
 322.5 816 l 1
EndSplineSet
EndChar

StartChar: emacron
Encoding: 275 275 265
Width: 475
VWidth: 0
Flags: HMW
LayerCount: 2
Fore
SplineSet
89 223 m 1
 97.5 249.5 l 1
 442.5 250 l 1
 470.5 326.5 454 438.5 345 440.5 c 0
 229.5 442.5 141.5 336.5 105.5 242 c 1
 102.5 232 l 1
 78.5 143 88.5 23 203 20.5 c 0
 280.5 19 348.5 70 403.5 122.5 c 1
 424.5 104.5 l 1
 361.5 43 286.5 -10.5 195 -9 c 0
 66 -7.5 42 129 72 231.5 c 0
 79 255 89 278 101 299.5 c 0
 149.5 387 242.5 470 348.5 469 c 0
 470 467.5 504.5 348 475.5 248 c 0
 473 239.5 469.5 231 466.5 223 c 1
 89 223 l 1
199 529.5 m 1
 208.5 559 l 1
 538.5 559 l 1
 528.5 529.5 l 1
 199 529.5 l 1
EndSplineSet
EndChar

StartChar: Ebreve
Encoding: 276 276 266
Width: 490
VWidth: 0
Flags: HMW
LayerCount: 2
Fore
SplineSet
42 0 m 1
 52 31 l 1
 376 31 l 1
 366 0 l 1
 42 0 l 1
271 669.5 m 1
 281 700 l 1
 604 700 l 1
 594 669 l 1
 271 669.5 l 1
168.5 371 m 1
 179.5 402 l 1
 483.5 402 l 1
 473.5 371 l 1
 168.5 371 l 1
266 699 m 1
 299.5 699.5 l 1
 58.5 0 l 1
 27 0 l 1
 266 699 l 1
363.5 908.5 m 1
 390.5 908.5 l 1
 381 847.5 401.5 797 471 796 c 0
 545 795 599 848 634.5 907 c 1
 663 906.5 l 1
 623.5 831 556.5 769 467 769.5 c 0
 380.5 770 350.5 831 363.5 908.5 c 1
EndSplineSet
EndChar

StartChar: ebreve
Encoding: 277 277 267
Width: 475
VWidth: 0
Flags: HMW
LayerCount: 2
Fore
SplineSet
89 223 m 1
 97.5 249.5 l 1
 442.5 250 l 1
 470.5 326.5 454 438.5 345 440.5 c 0
 229.5 442.5 141.5 336.5 105.5 242 c 1
 102.5 232 l 1
 78.5 143 88.501 23.04834 203 20.5 c 0
 280.497 18.79834 348.5 70 403.5 122.5 c 1
 424.5 104.5 l 1
 361.5 43 286.51 -9.85156 195 -9 c 0
 66 -7.5 42 129 72 231.5 c 0
 79 255 89 278 101 299.5 c 0
 149.5 387 242.5 470 348.5 469 c 0
 470 467.5 504.5 348 475.5 248 c 0
 473 239.5 469.5 231 466.5 223 c 1
 89 223 l 1
245.3255 668.505 m 1
 271.3255 668.505 l 1
 264.3255 607.005 286.3255 557.005 355.8255 556.005 c 0
 429.8255 555.005 482.3255 608.005 516.3255 667.505 c 1
 544.3255 666.505 l 1
 506.3255 591.005 440.8255 529.505 351.3255 529.505 c 0
 264.8255 529.505 234.3255 591.005 245.3255 668.505 c 1
EndSplineSet
EndChar

StartChar: Edotaccent
Encoding: 278 278 268
Width: 490
VWidth: 0
Flags: HMW
LayerCount: 2
Fore
SplineSet
42 0 m 1
 52 31 l 1
 376 31 l 1
 366 0 l 1
 42 0 l 1
271 669.5 m 1
 281 700 l 1
 604 700 l 1
 594 669 l 1
 271 669.5 l 1
168.5 371 m 1
 179.5 402 l 1
 483.5 402 l 1
 473.5 371 l 1
 168.5 371 l 1
266 699 m 1
 299.5 699.5 l 1
 58.5 0 l 1
 27 0 l 1
 266 699 l 1
443.5 793.5 m 0
 446 803.5 463 817.5 474 816.5 c 0
 485.5 815.5 492.5 803.5 490 792 c 0
 487.5 782 470.5 768 459.5 769 c 0
 448 770 441 782 443.5 793.5 c 0
EndSplineSet
EndChar

StartChar: edotaccent
Encoding: 279 279 269
Width: 475
VWidth: 0
Flags: HMW
LayerCount: 2
Fore
SplineSet
89 223 m 1
 97.5 249.5 l 1
 442.5 250 l 1
 470.5 326.5 454 438.5 345 440.5 c 0
 229.5 442.5 141.5 336.5 105.5 242 c 1
 102.5 232 l 1
 78.5 143 88.501 23.04834 203 20.5 c 0
 280.497 18.79834 348.5 70 403.5 122.5 c 1
 424.5 104.5 l 1
 361.5 43 286.51 -9.85156 195 -9 c 0
 66 -7.5 42 129 72 231.5 c 0
 79 255 89 278 101 299.5 c 0
 149.5 387 242.5 470 348.5 469 c 0
 470 467.5 504.5 348 475.5 248 c 0
 473 239.5 469.5 231 466.5 223 c 1
 89 223 l 1
347.129 554.005 m 0
 349.629 564.005 366.629 578.505 377.629 577.505 c 0
 389.129 576.505 396.129 564.505 393.629 553.005 c 0
 391.129 543.005 374.629 528.505 363.629 529.505 c 0
 352.129 530.505 344.629 542.505 347.129 554.005 c 0
EndSplineSet
EndChar

StartChar: Eogonek
Encoding: 280 280 270
Width: 490
VWidth: 0
Flags: HMW
LayerCount: 2
Fore
SplineSet
42 0 m 1
 52 31 l 1
 376 31 l 1
 366 0 l 1
 42 0 l 1
271 669.5 m 1
 281 700 l 1
 604 700 l 1
 594 669 l 1
 271 669.5 l 1
168.5 371 m 1
 179.5 402 l 1
 483.5 402 l 1
 473.5 371 l 1
 168.5 371 l 1
266 699 m 1
 299.5 699.5 l 1
 58.5 0 l 1
 27 0 l 1
 266 699 l 1
299 -161 m 1
 307.5 -182.5 l 1
 276.5 -202 243 -219.5 205 -219 c 0
 154 -219 114.5 -187.5 129.5 -133 c 0
 151.5 -55 252 -16.5 318 13.5 c 1
 331.5 0 l 1
 276 -28 179.5 -59.5 161.5 -128 c 0
 151.5 -165.5 177.5 -189 213 -191 c 0
 243.5 -192.5 273.5 -175.5 299 -161 c 1
EndSplineSet
EndChar

StartChar: eogonek
Encoding: 281 281 271
Width: 475
VWidth: 0
Flags: HMW
LayerCount: 2
Fore
SplineSet
89 223 m 1
 97.5 249.5 l 1
 442.5 250 l 1
 470.5 326.5 454 438.5 345 440.5 c 0
 229.5 442.5 141.5 336.5 105.5 242 c 1
 102.5 232 l 1
 78.5 143 88.501 23.04834 203 20.5 c 0
 280.497 18.79834 348.5 70 403.5 122.5 c 1
 424.5 104.5 l 1
 361.5 43 286.51 -9.85156 195 -9 c 0
 66 -7.5 42 129 72 231.5 c 0
 79 255 89 278 101 299.5 c 0
 149.5 387 242.5 470 348.5 469 c 0
 470 467.5 504.5 348 475.5 248 c 0
 473 239.5 469.5 231 466.5 223 c 1
 89 223 l 1
185 -166.5 m 1
 193.5 -187.5 l 1
 162.5 -207 131 -225.5 93 -225 c 0
 42 -225 1 -193.5 15 -139 c 0
 35 -62 134 -22.5 198.5 7 c 1
 213 -7 l 1
 157.5 -33.5 63 -66.5 46 -134 c 0
 37 -171.5 64.5 -195 100 -197 c 0
 130.5 -198.5 159.5 -181.5 185 -166.5 c 1
EndSplineSet
EndChar

StartChar: Ecaron
Encoding: 282 282 272
Width: 490
VWidth: 0
Flags: HMW
LayerCount: 2
Fore
SplineSet
42 0 m 1
 52 31 l 1
 376 31 l 1
 366 0 l 1
 42 0 l 1
271 669.5 m 1
 281 700 l 1
 604 700 l 1
 594 669 l 1
 271 669.5 l 1
168.5 371 m 1
 179.5 402 l 1
 483.5 402 l 1
 473.5 371 l 1
 168.5 371 l 1
266 699 m 1
 299.5 699.5 l 1
 58.5 0 l 1
 27 0 l 1
 266 699 l 1
467.5 803.5 m 1
 642 924.5 l 1
 658 906.5 l 1
 460 769.5 l 1
 354.5 909 l 1
 379 926 l 1
 467.5 803.5 l 1
EndSplineSet
EndChar

StartChar: ecaron
Encoding: 283 283 273
Width: 475
VWidth: 0
Flags: HMW
LayerCount: 2
Fore
SplineSet
89 223 m 1
 97.5 249.5 l 1
 442.5 250 l 1
 470.5 326.5 454 438.5 345 440.5 c 0
 229.5 442.5 141.5 336.5 105.5 242 c 1
 102.5 232 l 1
 78.5 143 88.501 23.04834 203 20.5 c 0
 280.497 18.79834 348.5 70 403.5 122.5 c 1
 424.5 104.5 l 1
 361.5 43 286.51 -9.85156 195 -9 c 0
 66 -7.5 42 129 72 231.5 c 0
 79 255 89 278 101 299.5 c 0
 149.5 387 242.5 470 348.5 469 c 0
 470 467.5 504.5 348 475.5 248 c 0
 473 239.5 469.5 231 466.5 223 c 1
 89 223 l 1
356.0755 563.505 m 1
 531.0755 684.505 l 1
 546.5755 666.505 l 1
 348.5755 529.505 l 1
 242.5755 669.005 l 1
 267.0755 686.005 l 1
 356.0755 563.505 l 1
EndSplineSet
EndChar

StartChar: Gcircumflex
Encoding: 284 284 274
Width: 722
VWidth: 0
Flags: HMW
LayerCount: 2
Fore
SplineSet
443 313.5 m 1
 454 344.5 l 1
 737 343.5 l 1
 668 169.5 516.5 -8 313.5 -8 c 0
 115 -8 54 185.5 108.5 350 c 0
 170 535 349.5 709 553.5 708.5 c 0
 658 709 732 652 770.5 557 c 1
 741 537 l 1
 711 625 641.5 675.5 547.5 675 c 0
 362 675.5 201 517 143 350 c 0
 92.5 203.5 139 26 320 25.5 c 0
 493.5 25 623.5 170.5 694 313 c 1
 443 313.5 l 1
621 890.5 m 1
 445 770.5 l 1
 430 788 l 1
 628 925 l 1
 734 785 l 1
 710.5 769 l 1
 621 890.5 l 1
EndSplineSet
EndChar

StartChar: gcircumflex
Encoding: 285 285 275
Width: 517
VWidth: 0
Flags: HMW
LayerCount: 2
Fore
SplineSet
-12.5 -30 m 1
 17.5 -30.5 l 1
 -1.5 -114 16 -198 118 -199.5 c 0
 237 -201.5 325 -91.5 363.5 10 c 1
 518.5 459.5 l 1
 549.5 459.5 l 1
 395.5 10 l 2
 352 -109 250 -229.5 113 -229 c 0
 -6 -228.5 -36 -130.5 -12.5 -30 c 1
62.5 230 m 0
 101.5 348 214.5 472 348 469.5 c 0
 476 467 486 325 454.5 230 c 0
 418 119 317 -8 189 -9 c 0
 55.5 -10 28 125.5 62.5 230 c 0
93.5 230 m 0
 61.5 139.5 81.5 20 198.5 20.5 c 0
 311 21 407.5 135.5 440.5 233.5 c 0
 468 315 453.5 435.5 347 439.5 c 0
 230 444 129 332.5 93.5 230 c 0
415.5 652 m 1
 239.5 531.5 l 1
 225 549 l 1
 423 686 l 1
 528 546.5 l 1
 505 530.5 l 1
 415.5 652 l 1
EndSplineSet
EndChar

StartChar: Gbreve
Encoding: 286 286 276
Width: 722
VWidth: 0
Flags: HMW
LayerCount: 2
Fore
SplineSet
443 313.5 m 1
 454 344.5 l 1
 737 343.5 l 1
 668 169.5 516.5 -8 313.5 -8 c 0
 115 -8 54 185.5 108.5 350 c 0
 170 535 349.5 709 553.5 708.5 c 0
 658 709 732 652 770.5 557 c 1
 741 537 l 1
 711 625 641.5 675.5 547.5 675 c 0
 362 675.5 201 517 143 350 c 0
 92.5 203.5 139 26 320 25.5 c 0
 493.5 25 623.5 170.5 694 313 c 1
 443 313.5 l 1
475 908.5 m 1
 502.5 908.5 l 1
 493 847.5 513.5 797 583 796 c 0
 657 795 711 848 746.5 907 c 1
 774.5 906.5 l 1
 735 831 668 769 578.5 769.5 c 0
 492 770 462 831 475 908.5 c 1
EndSplineSet
EndChar

StartChar: gbreve
Encoding: 287 287 277
Width: 517
VWidth: 0
Flags: HMW
LayerCount: 2
Fore
SplineSet
-12.5 -30 m 1
 17.5 -30.5 l 1
 -1.5 -114 16 -198 118 -199.5 c 0
 237 -201.5 325 -91.5 363.5 10 c 1
 518.5 459.5 l 1
 549.5 459.5 l 1
 395.5 10 l 2
 352 -109 250 -229.5 113 -229 c 0
 -6 -228.5 -36 -130.5 -12.5 -30 c 1
62.5 230 m 0
 101.5 348 214.5 472 348 469.5 c 0
 476 467 486 325 454.5 230 c 0
 418 119 317 -8 189 -9 c 0
 55.5 -10 28 125.5 62.5 230 c 0
93.5 230 m 0
 61.5 139.5 81.5 20 198.5 20.5 c 0
 311 21 407.5 135.5 440.5 233.5 c 0
 468 315 453.5 435.5 347 439.5 c 0
 230 444 129 332.5 93.5 230 c 0
270 670 m 1
 296.5 669.5 l 1
 287 608.5 307.5 558.5 377 557.5 c 0
 451 556.5 505.5 609.5 541 668.5 c 1
 569 668 l 1
 529.5 593 462 530.5 372.5 531 c 0
 286 531.5 257 592.5 270 670 c 1
EndSplineSet
EndChar

StartChar: Gdotaccent
Encoding: 288 288 278
Width: 722
VWidth: 0
Flags: HMW
LayerCount: 2
Fore
SplineSet
443 313.5 m 1
 454 344.5 l 1
 737 343.5 l 1
 668 169.5 516.5 -8 313.5 -8 c 0
 115 -8 54 185.5 108.5 350 c 0
 170 535 349.5 709 553.5 708.5 c 0
 658 709 732 652 770.5 557 c 1
 741 537 l 1
 711 625 641.5 675.5 547.5 675 c 0
 362 675.5 201 517 143 350 c 0
 92.5 203.5 139 26 320 25.5 c 0
 493.5 25 623.5 170.5 694 313 c 1
 443 313.5 l 1
561.5 793.5 m 0
 564 803.5 581 817.5 592 816.5 c 0
 603.5 815.5 610.5 803.5 608 792 c 0
 605.5 782 588.5 768 577.5 769 c 0
 566 770 559 782 561.5 793.5 c 0
EndSplineSet
EndChar

StartChar: gdotaccent
Encoding: 289 289 279
Width: 517
VWidth: 0
Flags: HMW
LayerCount: 2
Fore
SplineSet
-12.5 -30 m 1
 17.5 -30.5 l 1
 -1.5 -114 16 -198 118 -199.5 c 0
 237 -201.5 325 -91.5 363.5 10 c 1
 518.5 459.5 l 1
 549.5 459.5 l 1
 395.5 10 l 2
 352 -109 250 -229.5 113 -229 c 0
 -6 -228.5 -36 -130.5 -12.5 -30 c 1
62.5 230 m 0
 101.5 348 214.5 472 348 469.5 c 0
 476 467 486 325 454.5 230 c 0
 418 119 317 -8 189 -9 c 0
 55.5 -10 28 125.5 62.5 230 c 0
93.5 230 m 0
 61.5 139.5 81.5 20 198.5 20.5 c 0
 311 21 407.5 135.5 440.5 233.5 c 0
 468 315 453.5 435.5 347 439.5 c 0
 230 444 129 332.5 93.5 230 c 0
366 567 m 0
 368.5 577 385.5 591 396.5 590 c 0
 408 589 414.5 577 412 565.5 c 0
 409.5 555.5 392.5 541.5 381.5 542.5 c 0
 370 543.5 363.5 555.5 366 567 c 0
EndSplineSet
EndChar

StartChar: uni0122
Encoding: 290 290 280
Width: 722
VWidth: 0
Flags: HMW
LayerCount: 2
Fore
SplineSet
443 313.5 m 1
 454 344.5 l 1
 737 343.5 l 1
 668 169.5 516.5 -8 313.5 -8 c 0
 115 -8 54 185.5 108.5 350 c 0
 170 535 349.5 709 553.5 708.5 c 0
 658 709 732 652 770.5 557 c 1
 741 537 l 1
 711 625 641.5 675.5 547.5 675 c 0
 362 675.5 201 517 143 350 c 0
 92.5 203.5 139 26 320 25.5 c 0
 493.5 25 623.5 170.5 694 313 c 1
 443 313.5 l 1
322.5 -70.5 m 1
 351.5 -83.5 l 1
 159 -329 l 1
 139.5 -321.5 l 1
 322.5 -70.5 l 1
EndSplineSet
EndChar

StartChar: Hcircumflex
Encoding: 292 292 281
Width: 627
VWidth: 0
Flags: HMW
LayerCount: 2
Fore
SplineSet
168 366 m 1
 178 397 l 1
 617.5 397 l 1
 607.5 366 l 1
 168 366 l 1
699 699 m 1
 733 699.5 l 1
 491 0 l 1
 460 0 l 1
 699 699 l 1
266 699 m 1
 299.5 699.5 l 1
 58.5 0 l 1
 27 0 l 1
 266 699 l 1
567 890.5 m 1
 390.5 770.5 l 1
 376 788 l 1
 574.5 925 l 1
 680 785 l 1
 656 769 l 1
 567 890.5 l 1
EndSplineSet
EndChar

StartChar: hcircumflex
Encoding: 293 293 282
Width: 460
VWidth: 0
Flags: HMW
LayerCount: 2
Fore
SplineSet
320.5 779.5 m 1
 51.5 0 l 1
 21 0 l 1
 289.5 779.5 l 1
 320.5 779.5 l 1
406 308 m 2
 424 367.5 423 437 345 439.5 c 0
 252.5 442 185 355 146.5 282 c 1
 132.5 282 l 1
 173 369.5 247.5 469.5 355.5 469 c 0
 449.5 468.5 459 384 437 311 c 1
 328.5 0 l 1
 299.5 0 l 1
 406 308 l 2
376 962 m 1
 199.5 841.5 l 1
 185 859 l 1
 383.5 996 l 1
 489 856.5 l 1
 465 840.5 l 1
 376 962 l 1
EndSplineSet
EndChar

StartChar: Itilde
Encoding: 296 296 283
Width: 187
VWidth: 0
Flags: HMW
LayerCount: 2
Fore
SplineSet
263.5 699 m 1
 296 699.5 l 1
 54 0 l 1
 23.5 0 l 1
 263.5 699 l 1
197 825.5 m 1
 219 855 247 889 288.5 888 c 0
 328 887.5 350 840.5 389.5 843 c 0
 418 844.5 441 870.5 460 889 c 1
 476 873.5 l 1
 452.5 849 421.5 816 383.5 817 c 0
 345 818 324.5 862 285.5 862 c 0
 253.5 862 232.5 836 215.5 813 c 1
 197 825.5 l 1
EndSplineSet
EndChar

StartChar: itilde
Encoding: 297 297 284
Width: 197
VWidth: 0
Flags: HMW
LayerCount: 2
Fore
SplineSet
187.5 459 m 1
 218.5 459.5 l 1
 59 0 l 1
 29.5 0 l 1
 187.5 459 l 1
122 585.5 m 1
 144 615 172 649 213.5 648 c 0
 253 647.5 274.5 600.5 314 603 c 0
 342.5 604.5 366 630.5 385 649 c 1
 400.5 633.5 l 1
 377 609 346 576 308 577 c 0
 269.5 578 249.5 622 210.5 622 c 0
 178.5 622 157.5 596 140.5 573 c 1
 122 585.5 l 1
EndSplineSet
EndChar

StartChar: Imacron
Encoding: 298 298 285
Width: 187
VWidth: 0
Flags: HMW
LayerCount: 2
Fore
SplineSet
263.5 699 m 1
 296 699.5 l 1
 54 0 l 1
 23.5 0 l 1
 263.5 699 l 1
175.5 816 m 1
 185 845 l 1
 516 845 l 1
 505.5 815.5 l 1
 175.5 816 l 1
EndSplineSet
EndChar

StartChar: imacron
Encoding: 299 299 286
Width: 197
VWidth: 0
Flags: HMW
LayerCount: 2
Fore
SplineSet
187.5 459 m 1
 218.5 459.5 l 1
 59 0 l 1
 29.5 0 l 1
 187.5 459 l 1
99.5 576 m 1
 110 605 l 1
 440 605 l 1
 430.5 575.5 l 1
 99.5 576 l 1
EndSplineSet
EndChar

StartChar: Ibreve
Encoding: 300 300 287
Width: 187
VWidth: 0
Flags: HMW
LayerCount: 2
Fore
SplineSet
263.5 699 m 1
 296 699.5 l 1
 54 0 l 1
 23.5 0 l 1
 263.5 699 l 1
200.5 910 m 1
 226.5 909.5 l 1
 217 848.5 238 798.5 307.5 797.5 c 0
 381.5 796.5 436 849.5 471.5 908.5 c 1
 499.5 908 l 1
 460 833 393 770.5 303.5 771 c 0
 217 771.5 187.5 832.5 200.5 910 c 1
EndSplineSet
EndChar

StartChar: ibreve
Encoding: 301 301 288
Width: 197
VWidth: 0
Flags: HMW
LayerCount: 2
Fore
SplineSet
187.5 459 m 1
 218.5 459.5 l 1
 59 0 l 1
 29.5 0 l 1
 187.5 459 l 1
124.5 670 m 1
 151.5 669.5 l 1
 142 608.5 162.5 558.5 232 557.5 c 0
 306 556.5 360 609.5 395.5 668.5 c 1
 423.5 668 l 1
 384 593 317.5 530.5 228 531 c 0
 141.5 531.5 111.5 592.5 124.5 670 c 1
EndSplineSet
EndChar

StartChar: Iogonek
Encoding: 302 302 289
Width: 187
VWidth: 0
Flags: HMW
LayerCount: 2
Fore
SplineSet
263.5 699 m 1
 296 699.5 l 1
 54 0 l 1
 23.5 0 l 1
 263.5 699 l 1
23.5 -161 m 1
 32 -182.5 l 1
 1 -202 -32 -219.5 -70 -219 c 0
 -121 -219 -161 -187.5 -146 -133 c 0
 -124 -55 -23.5 -16.5 42.5 13.5 c 1
 56 0 l 1
 0.5 -28 -97 -59.5 -115 -128 c 0
 -125 -165.5 -98 -189 -62.5 -191 c 0
 -32 -192.5 -2 -175.5 23.5 -161 c 1
EndSplineSet
EndChar

StartChar: iogonek
Encoding: 303 303 290
Width: 197
VWidth: 0
Flags: HMW
LayerCount: 2
Fore
SplineSet
255 682 m 0
 257.5 692 273.5 705.5 284.5 704.5 c 0
 296 703.5 303 692.5 300.5 681 c 0
 298 671 281.5 657.5 270.5 658.5 c 0
 259 659.5 252.5 670.5 255 682 c 0
187.5 459 m 1
 218.5 459.5 l 1
 59 0 l 1
 29.5 0 l 1
 187.5 459 l 1
28.5 -161 m 1
 37 -182.5 l 1
 6 -202 -27 -219.5 -65 -219 c 0
 -116 -219 -156.5 -187.5 -141.5 -133 c 0
 -119.5 -55 -18.5 -16 47.5 13.5 c 1
 61 0 l 1
 5.5 -28 -92 -59.5 -110 -128 c 0
 -120 -165.5 -93 -189 -57.5 -191 c 0
 -27 -192.5 3 -175.5 28.5 -161 c 1
EndSplineSet
EndChar

StartChar: Idotaccent
Encoding: 304 304 291
Width: 187
VWidth: 0
Flags: HMW
LayerCount: 2
Fore
SplineSet
263.5 699 m 1
 296 699.5 l 1
 54 0 l 1
 23.5 0 l 1
 263.5 699 l 1
288.5 798.5 m 0
 291 808.5 308 822.5 319 821.5 c 0
 330.5 820.5 337.5 808.5 335 797 c 0
 332.5 787 315.5 773 304.5 774 c 0
 293 775 286 787 288.5 798.5 c 0
EndSplineSet
EndChar

StartChar: uni0136
Encoding: 310 310 292
Width: 458
VWidth: 0
Flags: HMW
LayerCount: 2
Fore
SplineSet
263.5 699 m 1
 296 699.5 l 1
 55 0 l 1
 23.5 0 l 1
 263.5 699 l 1
576.5 698.5 m 1
 620.5 698.5 l 1
 212 370 l 1
 392.5 0 l 1
 354 0 l 1
 173.5 373.5 l 1
 576.5 698.5 l 1
219.5 -62 m 1
 248.5 -75 l 1
 57 -320.5 l 1
 37.5 -313 l 1
 219.5 -62 l 1
EndSplineSet
EndChar

StartChar: uni0137
Encoding: 311 311 293
Width: 368
VWidth: 0
Flags: HMW
LayerCount: 2
Fore
SplineSet
284 779 m 1
 315.5 779.5 l 1
 46.5 0 l 1
 17.5 0 l 1
 284 779 l 1
407.5 458.5 m 1
 450 458.5 l 1
 166.5 269 l 1
 308 0 l 1
 272 0 l 1
 129.5 272 l 1
 407.5 458.5 l 1
175 -62 m 1
 203 -75 l 1
 11.5 -320.5 l 1
 -8 -313 l 1
 175 -62 l 1
EndSplineSet
EndChar

StartChar: Lacute
Encoding: 313 313 294
Width: 409
VWidth: 0
Flags: HMW
LayerCount: 2
Fore
SplineSet
266.5 699.5 m 1
 299 699.5 l 1
 69 31 l 1
 351 31 l 1
 340.5 0 l 1
 26.5 0 l 1
 266.5 699.5 l 1
653 920.5 m 1
 434 770.5 l 1
 421 783.5 l 1
 630.5 939.5 l 1
 653 920.5 l 1
EndSplineSet
EndChar

StartChar: lacute
Encoding: 314 314 295
Width: 183
VWidth: 0
Flags: HMW
LayerCount: 2
Fore
SplineSet
289 779 m 1
 320.5 779.5 l 1
 51 0 l 1
 22 0 l 1
 289 779 l 1
531.5 992 m 1
 312 842 l 1
 299 855 l 1
 508.5 1011 l 1
 531.5 992 l 1
EndSplineSet
EndChar

StartChar: uni013B
Encoding: 315 315 296
Width: 409
VWidth: 0
Flags: HMW
LayerCount: 2
Fore
SplineSet
266.5 699.5 m 1
 299 699.5 l 1
 69 31 l 1
 351 31 l 1
 340.5 0 l 1
 26.5 0 l 1
 266.5 699.5 l 1
168.5 -62 m 1
 197 -75 l 1
 6 -320.5 l 1
 -14 -313 l 1
 168.5 -62 l 1
EndSplineSet
EndChar

StartChar: uni013C
Encoding: 316 316 297
Width: 183
VWidth: 0
Flags: HMW
LayerCount: 2
Fore
SplineSet
289 779 m 1
 320.5 779.5 l 1
 51 0 l 1
 22 0 l 1
 289 779 l 1
36 -62 m 1
 64 -75 l 1
 -127.5 -320.5 l 1
 -147 -313 l 1
 36 -62 l 1
EndSplineSet
EndChar

StartChar: Lcaron
Encoding: 317 317 298
Width: 409
VWidth: 0
Flags: HMW
LayerCount: 2
Fore
SplineSet
266.5 699.5 m 1
 299 699.5 l 1
 69 31 l 1
 351 31 l 1
 340.5 0 l 1
 26.5 0 l 1
 266.5 699.5 l 1
507 706.5 m 1
 535.5 693.5 l 1
 344.5 448 l 1
 324.5 456 l 1
 507 706.5 l 1
EndSplineSet
EndChar

StartChar: lcaron
Encoding: 318 318 299
Width: 216
VWidth: 0
Flags: HMW
LayerCount: 2
Fore
SplineSet
289 779 m 1
 320.5 779.5 l 1
 51 0 l 1
 22 0 l 1
 289 779 l 1
501.5 767 m 1
 530 753.5 l 1
 338.5 508.5 l 1
 318 516 l 1
 501.5 767 l 1
EndSplineSet
EndChar

StartChar: Ldot
Encoding: 319 319 300
Width: 409
VWidth: 0
Flags: HMW
LayerCount: 2
Fore
SplineSet
266.5 699.5 m 1
 299 699.5 l 1
 69 31 l 1
 351 31 l 1
 340.5 0 l 1
 26.5 0 l 1
 266.5 699.5 l 1
336 415 m 0
 338.5 425 355.5 439 366.5 438 c 0
 378 437 385 425 382.5 413.5 c 0
 380 403.5 363 389.5 352 390.5 c 0
 340.5 391.5 333.5 403.5 336 415 c 0
EndSplineSet
EndChar

StartChar: ldot
Encoding: 320 320 301
Width: 348
VWidth: 0
Flags: HMW
LayerCount: 2
Fore
SplineSet
289 779 m 1
 320.5 779.5 l 1
 51 0 l 1
 22 0 l 1
 289 779 l 1
294.5 402.5 m 0
 297 412.5 314 426.5 325 425.5 c 0
 336.5 424.5 343.5 412.5 341 401 c 0
 338.5 391 321.5 377 310.5 378 c 0
 299 379 292 391 294.5 402.5 c 0
EndSplineSet
EndChar

StartChar: eth
Encoding: 240 240 302
Width: 515
VWidth: 0
Flags: HMW
LayerCount: 2
Fore
SplineSet
461 223 m 0
 493 317.5 450.5 417 341.5 416.5 c 0
 234 416 132.5 320 98.5 223 c 0
 66 131 95.5 22 208 21 c 0
 322.5 20 426 119.5 461 223 c 0
389 700 m 1
 494 378 l 2
 508.5 327 508 273.5 491.5 223 c 0
 452.5 102 336 -9.5 203 -9 c 0
 72 -8.5 30.5 114 67.5 224 c 0
 105 334 214.5 441.5 336.5 442 c 0
 392 442 431 416 462 371.5 c 1
 461 371.5 l 1
 352.5 700 l 1
 389 700 l 1
275.5 559 m 1
 284 584.5 l 1
 547.5 584.5 l 1
 539 559 l 1
 275.5 559 l 1
EndSplineSet
EndChar

StartChar: racute
Encoding: 341 341 303
Width: 287
VWidth: 0
Flags: HMW
LayerCount: 2
Fore
SplineSet
211 459.5 m 1
 51.5 0 l 1
 20.5 0 l 1
 180.5 459.5 l 1
 211 459.5 l 1
352 420 m 1
 337 429.5 322.5 439 304 440 c 0
 221.5 444 174 343 146.5 281.5 c 1
 132 281.5 l 1
 163.5 355.5 218.5 473.5 315 469 c 0
 338.5 468.5 356 456.5 375 443.5 c 1
 352 420 l 1
484 682 m 1
 265 531.5 l 1
 252 545 l 1
 461.5 701 l 1
 484 682 l 1
EndSplineSet
EndChar

StartChar: rcaron
Encoding: 345 345 304
Width: 287
VWidth: 0
Flags: HMW
LayerCount: 2
Fore
SplineSet
211 459.5 m 1
 51.5 0 l 1
 20.5 0 l 1
 180.5 459.5 l 1
 211 459.5 l 1
352 420 m 1
 337 429.5 322.5 439 304 440 c 0
 221.5 444 174 343 146.5 281.5 c 1
 132 281.5 l 1
 163.5 355.5 218.5 473.5 315 469 c 0
 338.5 468.5 356 456.5 375 443.5 c 1
 352 420 l 1
312.5 565 m 1
 487.5 686 l 1
 503 667.5 l 1
 305 530.5 l 1
 199 670.5 l 1
 223.5 687.5 l 1
 312.5 565 l 1
EndSplineSet
EndChar

StartChar: Rcaron
Encoding: 344 344 305
Width: 465
VWidth: 0
Flags: HMW
LayerCount: 2
Fore
SplineSet
245.5 325.5 m 1
 279.5 325.5 l 1
 385.5 0 l 1
 349 0 l 1
 245.5 325.5 l 1
266 699 m 1
 299.5 699.5 l 1
 58.5 0 l 1
 27 0 l 1
 266 699 l 1
269.5 670 m 1
 280.5 700 l 1
 394 700 l 0
 509 695.5 591 621 551.5 501.5 c 0
 511 378 388 308.5 263 304 c 0
 144.5 304 l 1
 155.5 333.5 l 1
 268 333.5 l 1
 376 338 483 396 520 502 c 0
 555.5 604.5 486.5 664.5 388 669.5 c 1
 269.5 670 l 1
439 803.5 m 1
 614 924.5 l 1
 630 906.5 l 1
 431.5 769.5 l 1
 326.5 909 l 1
 350 926 l 1
 439 803.5 l 1
EndSplineSet
EndChar

StartChar: uni0213
Encoding: 531 531 306
Width: 287
VWidth: 0
Flags: HMW
LayerCount: 2
Fore
SplineSet
211 459.5 m 1
 51.5 0 l 1
 20.5 0 l 1
 180.5 459.5 l 1
 211 459.5 l 1
352 420 m 1
 337 429.5 322.5 439 304 440 c 0
 221.5 444 174 343 146.5 281.5 c 1
 132 281.5 l 1
 163.5 355.5 218.5 473.5 315 469 c 0
 338.5 468.5 356 456.5 375 443.5 c 1
 352 420 l 1
157.5 544.5 m 1
 186 545 l 1
 221 605 274 656.5 348 656.5 c 0
 418.5 656.5 441 606 432.5 543.5 c 1
 455 544 l 1
 470.5 619.5 445 681.5 359 683 c 0
 267.5 684.5 199 619.5 157.5 544.5 c 1
EndSplineSet
EndChar

StartChar: uni0212
Encoding: 530 530 307
Width: 465
VWidth: 0
Flags: HMW
LayerCount: 2
Fore
SplineSet
245.5 325.5 m 1
 279.5 325.5 l 1
 385.5 0 l 1
 349 0 l 1
 245.5 325.5 l 1
266 699 m 1
 299.5 699.5 l 1
 58.5 0 l 1
 27 0 l 1
 266 699 l 1
269.5 670 m 1
 280.5 700 l 1
 394 700 l 0
 509 695.5 591 621 551.5 501.5 c 0
 511 378 388 308.5 263 304 c 0
 144.5 304 l 1
 155.5 333.5 l 1
 268 333.5 l 1
 376 338 483 396 520 502 c 0
 555.5 604.5 486.5 664.5 388 669.5 c 1
 269.5 670 l 1
305 769.5 m 1
 333.5 769.5 l 1
 368.5 829.5 421.5 881 495.5 881 c 0
 566 881 588 831 579.5 768.5 c 1
 602.5 768.5 l 1
 618 844 592.5 906 506.5 907.5 c 0
 415 909 346.5 844.5 305 769.5 c 1
EndSplineSet
EndChar

StartChar: OE
Encoding: 338 338 308
Width: 903
VWidth: 0
Flags: HMW
LayerCount: 2
Fore
SplineSet
571.5 372 m 1
 582.5 402.5 l 1
 896 402.5 l 1
 886 371.5 l 1
 571.5 372 l 1
665 686.5 m 1
 698 687 l 1
 464.5 13 l 1
 434 13.5 l 1
 665 686.5 l 1
788.5 30.5 m 1
 778.5 0 l 1
 315.5 0 l 0
 119.5 7 44 176.5 101.5 350 c 0
 165 541 344 694 548.5 700 c 0
 1016.5 700 l 1
 1005.5 669 l 1
 682 669 l 1
 666 669 l 1
 543.5 669 l 0
 358 663 193 522 133.5 350 c 0
 80 195.5 143.5 38 320.5 31 c 0
 439.5 31 l 1
 462.5 31 l 1
 788.5 30.5 l 1
EndSplineSet
EndChar

StartChar: oe
Encoding: 339 339 309
Width: 863
VWidth: 0
Flags: HMW
LayerCount: 2
Fore
SplineSet
824 250 m 1
 853.5 334.5 827.5 439 722.5 440.5 c 0
 605 442 517 338.5 471 242 c 1
 468.5 232 l 1
 439.5 139 450.5 23 572.5 20.5 c 0
 654 19 723.5 69.5 780.5 122 c 1
 800.5 104 l 1
 736 45.5 659 -10.5 568 -9 c 0
 436 -6.5 409 124.5 442.5 230 c 0
 447.5 247 454.5 263 462.5 279 c 0
 512 376.5 613 470.5 729 469 c 0
 850 467.5 887.5 347.5 855 247.5 c 0
 852.5 239.5 848.5 231.5 845 223.5 c 1
 815.5 230.5 l 1
 824 250 l 1
457.5 223 m 1
 466 249.5 l 1
 848 250 l 1
 845.5 222.5 l 1
 457.5 223 l 1
62.5 230 m 0
 101.5 347 212.5 470.5 344.5 469 c 0
 474.5 467.5 491.5 329 458.5 230 c 0
 420.5 116 316 -8.5 186 -9 c 0
 53.5 -9.5 28 126.5 62.5 230 c 0
93.5 230 m 0
 62.5 141 78.5 20.5 195 20.5 c 0
 307 20.5 402.5 132 437 230 c 0
 465.5 313 455.5 436 344.5 439.5 c 0
 227.5 443 129 331.5 93.5 230 c 0
EndSplineSet
EndChar

StartChar: a.alt
Encoding: 65536 -1 310
Width: 517
VWidth: 0
Flags: HMW
LayerCount: 2
Fore
SplineSet
519.5 459 m 1
 549.5 459.5 l 1
 389.5 0 l 1
 362 0 l 1
 519.5 459 l 1
62.5 230 m 0
 101.5 348 214.5 472 348 469.5 c 0
 476 467 486 325 454.5 230 c 0
 418 119 317 -8 189 -9 c 0
 55.5 -10 28 125.5 62.5 230 c 0
93.5 230 m 0
 62.5 140 81.5 19 198.5 20.5 c 0
 309.5 22 406 133 440 230 c 0
 468 312 455.5 435.5 347 439.5 c 0
 230 444 129 332.5 93.5 230 c 0
EndSplineSet
EndChar

StartChar: Jcircumflex
Encoding: 308 308 312
Width: 197
VWidth: 0
Flags: HMW
LayerCount: 2
Fore
SplineSet
-207.5 -143 m 1
 -186.5 -168 -164.5 -187.5 -129 -187.5 c 0
 -51 -188.5 -10 -114 14 -50 c 1
 271 699.5 l 1
 302.5 699.5 l 1
 42.5 -60.5 l 2
 13.5 -139.5 -41.5 -221.5 -135.5 -219 c 0
 -178 -218 -206.5 -197 -231.5 -166 c 1
 -207.5 -143 l 1
353.5 890.5 m 1
 177 770.5 l 1
 163.5 788 l 1
 361.5 925 l 1
 466.5 785 l 1
 442.5 769 l 1
 353.5 890.5 l 1
EndSplineSet
EndChar

StartChar: jcircumflex
Encoding: 309 309 313
Width: 188
VWidth: 0
Flags: HMW
LayerCount: 2
Fore
SplineSet
-175.5 -150 m 1
 -163 -169 -149.5 -187 -124 -188.5 c 0
 -62 -191 -24 -121.5 -4.5 -72.5 c 2
 178.5 459.5 l 1
 209 459.5 l 1
 26 -75.5 l 2
 1.5 -141 -51 -223.5 -132 -219 c 0
 -164.5 -217.5 -182.5 -198 -200 -173.5 c 1
 -175.5 -150 l 1
261 652 m 1
 85.5 531.5 l 1
 70 549 l 1
 268.5 686 l 1
 373.5 546.5 l 1
 351 530.5 l 1
 261 652 l 1
EndSplineSet
EndChar

StartChar: Nacute
Encoding: 323 323 314
Width: 656
VWidth: 0
Flags: HMW
LayerCount: 2
Fore
SplineSet
742 699.5 m 1
 774.5 699.5 l 1
 526.5 -20.5 l 1
 250 631 l 1
 32 0 l 1
 -1 0 l 1
 247 720.5 l 1
 523.5 65.5 l 1
 742 699.5 l 1
729 907 m 1
 510.5 757 l 1
 497 770 l 1
 707 926 l 1
 729 907 l 1
EndSplineSet
EndChar

StartChar: nacute
Encoding: 324 324 315
Width: 460
VWidth: 0
Flags: HMW
LayerCount: 2
Fore
SplineSet
211 459.5 m 1
 51.5 0 l 1
 20.5 0 l 1
 180.5 459.5 l 1
 211 459.5 l 1
406 308 m 2
 424 367.5 423 437 345 439.5 c 0
 252.5 442 185 355 146.5 282 c 1
 135 282 l 1
 175 369.5 248 469.5 355.5 469 c 0
 449.5 468.5 459 384 437 311 c 1
 328.5 0 l 1
 299.5 0 l 1
 406 308 l 2
548.5 689 m 1
 331 538.5 l 1
 317 552 l 1
 527 708 l 1
 548.5 689 l 1
EndSplineSet
EndChar

StartChar: uni0145
Encoding: 325 325 316
Width: 656
VWidth: 0
Flags: HMW
LayerCount: 2
Fore
SplineSet
269.5 -44 m 1
 297.5 -57 l 1
 106 -302.5 l 1
 86.5 -295 l 1
 269.5 -44 l 1
742 699.5 m 1
 774.5 699.5 l 1
 526.5 -20.5 l 1
 250 631 l 1
 32 0 l 1
 -1 0 l 1
 247 720.5 l 1
 523.5 65.5 l 1
 742 699.5 l 1
EndSplineSet
EndChar

StartChar: uni0146
Encoding: 326 326 317
Width: 460
VWidth: 0
Flags: HMW
LayerCount: 2
Fore
SplineSet
211 459.5 m 1
 51.5 0 l 1
 20.5 0 l 1
 180.5 459.5 l 1
 211 459.5 l 1
406 308 m 2
 424 367.5 423 437 345 439.5 c 0
 252.5 442 185 355 146.5 282 c 1
 132.5 282 l 1
 173 369.5 247.5 469.5 355.5 469 c 0
 449.5 468.5 459 384 437 311 c 1
 328.5 0 l 1
 299.5 0 l 1
 406 308 l 2
172 -48 m 1
 201.5 -61 l 1
 10 -306.5 l 1
 -10 -299 l 1
 172 -48 l 1
EndSplineSet
EndChar

StartChar: Ncaron
Encoding: 327 327 318
Width: 656
VWidth: 0
Flags: HMW
LayerCount: 2
Fore
SplineSet
556 809 m 1
 731 930 l 1
 746 911.5 l 1
 548 774.5 l 1
 443 914.5 l 1
 467 931.5 l 1
 556 809 l 1
742 699.5 m 1
 774.5 699.5 l 1
 526.5 -20.5 l 1
 250 631 l 1
 32 0 l 1
 -1 0 l 1
 247 720.5 l 1
 523.5 65.5 l 1
 742 699.5 l 1
EndSplineSet
EndChar

StartChar: ncaron
Encoding: 328 328 319
Width: 460
VWidth: 0
Flags: HMW
LayerCount: 2
Fore
SplineSet
211 459.5 m 1
 51.5 0 l 1
 20.5 0 l 1
 180.5 459.5 l 1
 211 459.5 l 1
406 308 m 2
 424 367.5 423 437 345 439.5 c 0
 252.5 442 185 355 146.5 282 c 1
 132.5 282 l 1
 173 369.5 247.5 469.5 355.5 469 c 0
 449.5 468.5 459 384 437 311 c 1
 328.5 0 l 1
 299.5 0 l 1
 406 308 l 2
367 565 m 1
 542 686 l 1
 557 667.5 l 1
 359 530.5 l 1
 253.5 670.5 l 1
 277.5 687.5 l 1
 367 565 l 1
EndSplineSet
EndChar

StartChar: Omacron
Encoding: 332 332 320
Width: 732
VWidth: 0
Flags: HMW
LayerCount: 2
Fore
SplineSet
143 350 m 0
 92.5 203.5 137 26.5 318 25 c 0
 503 23.5 663.5 185 720.5 350 c 0
 771 496.5 726.5 673.5 545.5 675 c 0
 360.5 676.5 200 515 143 350 c 0
108.5 350 m 0
 169.5 534 348 709.5 551 708.5 c 0
 749.5 707.5 809.5 514.5 755 350 c 0
 694 166 515.5 -9.5 312.5 -8.5 c 0
 114 -7.5 54 185.5 108.5 350 c 0
414.5 783 m 1
 424 812 l 1
 755 812 l 1
 745 782.5 l 1
 414.5 783 l 1
EndSplineSet
EndChar

StartChar: omacron
Encoding: 333 333 321
Width: 520
VWidth: 0
Flags: HMW
LayerCount: 2
Fore
SplineSet
62.5 230 m 0
 103 353.5 227.5 469.5 363.5 469 c 0
 496.5 468.5 543.5 342.5 506.5 230 c 0
 466 106.5 341 -9.5 205 -9 c 0
 72 -8.5 25.5 117.5 62.5 230 c 0
93.5 230 m 0
 60 134 94 21.5 210 20.5 c 0
 329 19.5 438.5 122.5 475.5 230 c 0
 509 326 475 438.5 359 439.5 c 0
 240 440.5 130.5 337.5 93.5 230 c 0
227 544.5 m 1
 237 573.5 l 1
 567 573.5 l 1
 557.5 544 l 1
 227 544.5 l 1
EndSplineSet
EndChar

StartChar: Obreve
Encoding: 334 334 322
Width: 732
VWidth: 0
Flags: HMW
LayerCount: 2
Fore
SplineSet
143 350 m 0
 92.5 203.5 137 26.5 318 25 c 0
 503 23.5 663.5 185 720.5 350 c 0
 771 496.5 726.5 673.5 545.5 675 c 0
 360.5 676.5 200 515 143 350 c 0
108.5 350 m 0
 169.5 534 348 709.5 551 708.5 c 0
 749.5 707.5 809.5 514.5 755 350 c 0
 694 166 515.5 -9.5 312.5 -8.5 c 0
 114 -7.5 54 185.5 108.5 350 c 0
473 908.5 m 1
 500 908.5 l 1
 490.5 847.5 511.5 797 581 796 c 0
 655 795 709 848 744.5 907 c 1
 772.5 906.5 l 1
 733 831.5 666 769 576.5 769.5 c 0
 490 770 460 831 473 908.5 c 1
EndSplineSet
EndChar

StartChar: obreve
Encoding: 335 335 323
Width: 520
VWidth: 0
Flags: HMW
LayerCount: 2
Fore
SplineSet
62.5 230 m 0
 103 353.5 227.5 469.5 363.5 469 c 0
 496.5 468.5 543.5 342.5 506.5 230 c 0
 466 106.5 341 -9.5 205 -9 c 0
 72 -8.5 25.5 117.5 62.5 230 c 0
93.5 230 m 0
 60 134 94 21.5 210 20.5 c 0
 329 19.5 438.5 122.5 475.5 230 c 0
 509 326 475 438.5 359 439.5 c 0
 240 440.5 130.5 337.5 93.5 230 c 0
286 670 m 1
 312.5 669.5 l 1
 303 608.5 323.5 558.5 393 557.5 c 0
 467 556.5 521.5 609.5 557 668.5 c 1
 585 668 l 1
 545.5 593 478.5 530.5 389 531 c 0
 302.5 531.5 273 592.5 286 670 c 1
EndSplineSet
EndChar

StartChar: Racute
Encoding: 340 340 324
Width: 465
VWidth: 0
Flags: HMW
LayerCount: 2
Fore
SplineSet
245.5 325.5 m 1
 279.5 325.5 l 1
 385.5 0 l 1
 349 0 l 1
 245.5 325.5 l 1
266 699 m 1
 299.5 699.5 l 1
 58.5 0 l 1
 27 0 l 1
 266 699 l 1
269.5 670 m 1
 280.5 700 l 1
 394 700 l 0
 509 695.5 591 621 551.5 501.5 c 0
 511 378 388 308.5 263 304 c 0
 144.5 304 l 1
 155.5 333.5 l 1
 268 333.5 l 1
 376 338 483 396 520 502 c 0
 555.5 604.5 486.5 664.5 388 669.5 c 1
 269.5 670 l 1
615.5 920.5 m 1
 397.5 770.5 l 1
 383 783.5 l 1
 593.5 939.5 l 1
 615.5 920.5 l 1
EndSplineSet
EndChar

StartChar: uni0156
Encoding: 342 342 325
Width: 465
VWidth: 0
Flags: HMW
LayerCount: 2
Fore
SplineSet
245.5 325.5 m 1
 279.5 325.5 l 1
 385.5 0 l 1
 349 0 l 1
 245.5 325.5 l 1
266 699 m 1
 299.5 699.5 l 1
 58.5 0 l 1
 27 0 l 1
 266 699 l 1
269.5 670 m 1
 280.5 700 l 1
 394 700 l 0
 509 695.5 591 621 551.5 501.5 c 0
 511 378 388 308.5 263 304 c 0
 144.5 304 l 1
 155.5 333.5 l 1
 268 333.5 l 1
 376 338 483 396 520 502 c 0
 555.5 604.5 486.5 664.5 388 669.5 c 1
 269.5 670 l 1
184.5 -62 m 1
 214 -75 l 1
 23 -320.5 l 1
 3 -313 l 1
 184.5 -62 l 1
EndSplineSet
EndChar

StartChar: uni0157
Encoding: 343 343 326
Width: 287
VWidth: 0
Flags: HMW
LayerCount: 2
Fore
SplineSet
211 459.5 m 1
 51.5 0 l 1
 20.5 0 l 1
 180.5 459.5 l 1
 211 459.5 l 1
352 420 m 1
 337 429.5 322.5 439 304 440 c 0
 221.5 444 174 343 146.5 281.5 c 1
 132 281.5 l 1
 163.5 355.5 218.5 473.5 315 469 c 0
 338.5 468.5 356 456.5 375 443.5 c 1
 352 420 l 1
22.5 -62 m 1
 50.5 -75 l 1
 -140.5 -320.5 l 1
 -160.5 -313 l 1
 22.5 -62 l 1
EndSplineSet
EndChar

StartChar: Scedilla
Encoding: 350 350 327
Width: 475
VWidth: 0
Flags: HMW
LayerCount: 2
Fore
SplineSet
80 205.5 m 1
 81.5 123.5 100 25.5 202 24 c 0
 295.5 22.5 379 90.5 408 177.5 c 0
 436 262 385 316 314.5 352.5 c 0
 237 392 174 449 204.5 544.5 c 0
 234.5 636.5 333 708 430 707.5 c 0
 523.5 707 557.5 634.5 563 552.5 c 1
 532.5 538 l 1
 528.5 607.5 503 674.5 422 675.5 c 0
 344 676.5 263 617 237.5 543.5 c 0
 207.5 457.5 277.5 411 344 376.5 c 0
 423 336 470.5 270.5 442 179 c 0
 409.5 74 307.5 -9 195 -7.5 c 0
 81.5 -6 51.5 95 48.5 190.5 c 1
 80 205.5 l 1
199.5 15.5 m 1
 226 15.5 l 1
 139.5 -69 l 1
 155.5 -62 175.5 -51.5 193.5 -53.5 c 0
 232 -58.5 249.5 -92 239.5 -128.5 c 0
 225.5 -181 160 -220.5 107.5 -220 c 0
 75 -220 55 -203.5 33.5 -182 c 1
 52 -167 l 1
 69 -183 86 -197 111.5 -197 c 0
 151.5 -197 204.5 -166.5 216 -126.5 c 0
 224 -99 209.5 -75 181 -72 c 0
 154.5 -68.5 124.5 -83.5 100.5 -93.5 c 1
 199.5 15.5 l 1
EndSplineSet
EndChar

StartChar: scedilla
Encoding: 351 351 328
Width: 379
VWidth: 0
Flags: HMW
LayerCount: 2
Fore
SplineSet
54.5 151.5 m 1
 54 91.5 66.5 21.5 141.5 20 c 0
 199 18.5 262.5 63.5 280.5 119 c 0
 299.5 177 253 205.5 207 225.5 c 0
 149 252 101.5 284.5 125.5 355.5 c 0
 148.5 422.5 221 468.5 290.5 468 c 0
 354 467.5 383 428 395.5 371.5 c 1
 367 358 l 1
 357 402.5 337 438 285.5 439 c 0
 233.5 440 173 406.5 155 356 c 0
 132.5 294.5 185 270 232.5 249.5 c 0
 288 225 331.5 186.5 312 121 c 0
 290 47 213 -9.5 136.5 -8.5 c 0
 48 -7.5 26 65 26 138.5 c 1
 54.5 151.5 l 1
140.5 14.5 m 1
 167.5 14.5 l 1
 80.5 -70 l 1
 96 -63 115.5 -53 133.5 -55 c 0
 172.5 -60 189.5 -92.5 180 -129.5 c 0
 166.5 -182.5 100.5 -222 48 -221 c 0
 15.5 -220.5 -3.5 -204.5 -25 -183 c 1
 -7 -168 l 1
 10 -184 27 -198 52.5 -198 c 0
 92.5 -198 145.5 -168 157 -128 c 0
 165 -100.5 150 -76 121.5 -73 c 0
 95 -69.5 66 -85 42 -95 c 1
 140.5 14.5 l 1
EndSplineSet
EndChar

StartChar: Zcaron
Encoding: 381 381 329
Width: 505
VWidth: 0
Flags: HMW
LayerCount: 2
Fore
SplineSet
209 668.5 m 1
 220.5 700 l 1
 677.5 699 l 1
 30.5 32.5 l 1
 436.5 31.5 l 1
 425 0 l 1
 -39.5 0 l 1
 608.5 667.5 l 1
 209 668.5 l 1
480.5 803.5 m 1
 655.5 924.5 l 1
 671.5 906.5 l 1
 473 769.5 l 1
 368 909 l 1
 391.5 926 l 1
 480.5 803.5 l 1
EndSplineSet
EndChar

StartChar: zcaron
Encoding: 382 382 330
Width: 412
VWidth: 0
Flags: HMW
LayerCount: 2
Fore
SplineSet
350 565 m 1
 525.5 686 l 1
 540 667.5 l 1
 342 530.5 l 1
 237 670.5 l 1
 261 687.5 l 1
 350 565 l 1
425.5 429.5 m 1
 131 430.5 l 1
 141 460 l 1
 494 459 l 1
 28.5 30.5 l 1
 346.5 29.5 l 1
 336.5 0 l 1
 -39.5 0 l 1
 425.5 429.5 l 1
EndSplineSet
EndChar

StartChar: Ydieresis
Encoding: 376 376 331
Width: 492
VWidth: 0
Flags: HMW
LayerCount: 2
Fore
SplineSet
351.5 794 m 0
 354 804.5 371 817.5 382 816.5 c 0
 393.5 815.5 401.5 803.5 399 792 c 0
 396.5 782 379 768 368 769 c 0
 356 770 349 783 351.5 794 c 0
526.5 794 m 0
 529 804.5 546.5 817.5 557.5 816.5 c 0
 569 815.5 576.5 803.5 574 792 c 0
 571.5 782 554 768 543 769 c 0
 531 770 524 783 526.5 794 c 0
629.5 698.5 m 1
 668 698.5 l 1
 299 275.5 l 1
 204 0 l 1
 171 0 l 1
 268.5 279 l 1
 196.5 700 l 1
 231 700 l 1
 292.5 311 l 1
 629.5 698.5 l 1
EndSplineSet
EndChar

StartChar: Scaron
Encoding: 352 352 332
Width: 475
VWidth: 0
Flags: HMW
LayerCount: 2
Fore
SplineSet
80 205.5 m 1
 81.5 123.5 100 25.5 202 24 c 0
 295.5 22.5 379 90.5 408 177.5 c 0
 436 262 385 315.5 314.5 352.5 c 0
 237.5 392.5 174 452 204.5 546 c 0
 234.5 637.5 334 708.5 430 707.5 c 0
 523 706.5 558.5 634.5 563 552.5 c 1
 532.5 538 l 1
 529 607 505.5 674 425 675.5 c 0
 346.5 676.5 263 617.5 237.5 543.5 c 0
 207.5 458 277.5 411 344 376.5 c 0
 423 336 470 270.5 441.5 179 c 0
 409 73.5 308 -9 195 -7.5 c 0
 81.5 -6 51.5 95 48.5 190.5 c 1
 80 205.5 l 1
464.5 810.5 m 1
 639.5 931.5 l 1
 655.5 913.5 l 1
 457 776.5 l 1
 352 916 l 1
 375.5 933 l 1
 464.5 810.5 l 1
EndSplineSet
EndChar

StartChar: scaron
Encoding: 353 353 333
Width: 379
VWidth: 0
Flags: HMW
LayerCount: 2
Fore
SplineSet
55.5 151 m 1
 52 89 63.5 21 140 20 c 0
 198.5 19 262.5 63 280.5 119 c 0
 300 177.5 253 205.5 207 226 c 0
 150 252 102 286.5 126 356.5 c 0
 148.5 423 222 468 290.5 467.5 c 0
 354 467 384.5 428.5 395.5 371 c 1
 367 357.5 l 1
 356.5 401.5 337 437.5 285.5 438 c 0
 233.5 438.5 172 404.5 154.5 354 c 0
 133 293.5 185 268.5 232 248 c 0
 286 223.5 331 185.5 312 120.5 c 0
 290.5 45.5 210.5 -10.5 133.5 -9 c 0
 45 -8 22.5 63 26 138 c 1
 55.5 151 l 1
323 565 m 1
 498 686 l 1
 514 667.5 l 1
 315.5 530.5 l 1
 209.5 670.5 l 1
 234 687.5 l 1
 323 565 l 1
EndSplineSet
EndChar

StartChar: Lslash
Encoding: 321 321 334
Width: 373
VWidth: 0
Flags: HMW
LayerCount: 2
Fore
SplineSet
68.5 374 m 1
 66 397 l 1
 378.5 564 l 1
 381.5 541 l 1
 68.5 374 l 1
260.5 699.5 m 1
 293.5 699.5 l 1
 63.5 31 l 1
 322 31 l 1
 310.5 0 l 1
 19.5 0 l 1
 260.5 699.5 l 1
EndSplineSet
EndChar

StartChar: lslash
Encoding: 322 322 335
Width: 169
VWidth: 0
Flags: HMW
LayerCount: 2
Fore
SplineSet
69.5 374.5 m 1
 65.5 397 l 1
 306.5 543.5 l 1
 310.5 521 l 1
 69.5 374.5 l 1
283 779 m 1
 313.5 779.5 l 1
 45 0 l 1
 15.5 0 l 1
 283 779 l 1
EndSplineSet
EndChar

StartChar: uni0218
Encoding: 536 536 336
Width: 475
VWidth: 0
Flags: HMW
LayerCount: 2
Fore
SplineSet
80 205.5 m 1
 81.5 123.5 100 25.5 202 24 c 0
 295.5 22.5 379 90.5 408 177.5 c 0
 436 262 385 315.5 314.5 352.5 c 0
 237.5 392.5 174 452 204.5 546 c 0
 234.5 637.5 334 708.5 430 707.5 c 0
 523 706.5 558.5 634.5 563 552.5 c 1
 532.5 538 l 1
 529 607 505.5 674 425 675.5 c 0
 346.5 676.5 263 617.5 237.5 543.5 c 0
 207.5 458 277.5 411 344 376.5 c 0
 423 336 470.5 270.5 442 179 c 0
 409.5 73.5 308 -9 195 -7.5 c 0
 81.5 -6 51.5 95 48.5 190.5 c 1
 80 205.5 l 1
204 -70.5 m 1
 232.5 -83.5 l 1
 41 -329 l 1
 21 -321.5 l 1
 204 -70.5 l 1
EndSplineSet
EndChar

StartChar: uni0219
Encoding: 537 537 337
Width: 379
VWidth: 0
Flags: HMW
LayerCount: 2
Fore
SplineSet
55.5 151 m 1
 52 89 63 21 139.5 20 c 0
 198 19 262.5 63 280.5 119 c 0
 300 177.5 253 205.5 207 226 c 0
 150 252 102 286.5 126 356.5 c 0
 148.5 423 222 468 290.5 467.5 c 0
 354 467 384.5 428.5 395.5 371 c 1
 367 357.5 l 1
 356.5 401.5 337 437.5 285.5 438 c 0
 233.5 438.5 172 404.5 154.5 354 c 0
 133 293.5 185 268.5 232 248 c 0
 286 223.5 331 185.5 312 120.5 c 0
 290.5 45.5 210.5 -10.5 133.5 -9 c 0
 45 -8 22.5 63 26 138 c 1
 55.5 151 l 1
142.5 -72 m 1
 170 -85 l 1
 -21 -330.5 l 1
 -41 -323 l 1
 142.5 -72 l 1
EndSplineSet
EndChar

StartChar: pi
Encoding: 960 960 338
Width: 461
VWidth: 0
Flags: HMW
LayerCount: 2
Fore
SplineSet
181.5 443 m 1
 213.5 443.5 l 1
 59 0 l 1
 29.5 0 l 1
 181.5 443 l 1
130.5 460 m 1
 527.5 460 l 1
 517.5 430.5 l 1
 120 430.5 l 1
 130.5 460 l 1
417.5 443.5 m 1
 448.5 443.5 l 1
 338 127 l 1
 323 81.5 305 46 352.5 22 c 1
 342.5 -8 l 1
 273.5 11.5 287 61 306.5 121 c 1
 417.5 443.5 l 1
EndSplineSet
EndChar

StartChar: trademark
Encoding: 8482 8482 339
Width: 625
VWidth: 0
Flags: HMW
LayerCount: 2
Fore
SplineSet
213.5 684 m 1
 218 699.5 l 1
 411 699.5 l 1
 406 684 l 1
 317 684 l 1
 202 351 l 1
 186 351 l 1
 300.5 684 l 1
 213.5 684 l 1
720.5 662 m 1
 750.5 713.5 l 1
 660 350 l 1
 644 350.5 l 1
 720.5 662 l 1
485.5 709.5 m 1
 478 659.5 l 1
 339 351 l 1
 322.5 351.5 l 1
 485.5 709.5 l 1
751 712.5 m 1
 732.5 668.5 l 1
 507.5 395.5 l 1
 472.5 673 l 1
 484 710.5 l 1
 517.5 431.5 l 1
 751 712.5 l 1
EndSplineSet
EndChar

StartChar: uni2219
Encoding: 8729 8729 340
Width: 255
VWidth: 0
Flags: HMW
LayerCount: 2
Fore
SplineSet
200.5 439.5 m 0
 203 449.5 220 463.5 231 462.5 c 0
 242.5 461.5 249 449.5 246.5 438 c 0
 244 428 227 414 216 415 c 0
 204.5 416 198 428 200.5 439.5 c 0
EndSplineSet
EndChar

StartChar: agrave.alt
Encoding: 65537 -1 341
Width: 517
VWidth: 0
Flags: HMW
LayerCount: 2
Fore
SplineSet
519.5 459 m 1
 549.5 459.5 l 1
 389.5 0 l 1
 362 0 l 1
 519.5 459 l 1
62.5 230 m 0
 101.5 348 214.5 472 348 469.5 c 0
 476 467 486 325 454.5 230 c 0
 418 119 317 -8 189 -9 c 0
 55.5 -10 28 125.5 62.5 230 c 0
93.5 230 m 0
 62.5 140 81.5 19 198.5 20.5 c 0
 309.5 22 406 133 440 230 c 0
 468 312 455.5 435.5 347 439.5 c 0
 230 444 129 332.5 93.5 230 c 0
319.5 692.5 m 1
 351 709 l 1
 453 549 l 1
 435.5 537.5 l 1
 319.5 692.5 l 1
EndSplineSet
EndChar

StartChar: aacute.alt
Encoding: 65538 -1 342
Width: 517
VWidth: 0
Flags: HMW
LayerCount: 2
Fore
SplineSet
519.5 459 m 1
 549.5 459.5 l 1
 389.5 0.5 l 1
 362 0 l 1
 519.5 459 l 1
62.5 230 m 0
 101.5 348 214.5 472 348 469.5 c 0
 476 467 486 325 454.5 230 c 0
 418 119 317 -8 189 -9 c 0
 55.5 -10 28 125.5 62.5 230 c 0
93.5 230 m 0
 62.5 140 81.5 19 198.5 20.5 c 0
 309.5 22 406 133 440 230 c 0
 468 312 455.5 435.5 347 439.5 c 0
 230 444 129 332.5 93.5 230 c 0
527.5 689 m 1
 308.5 539 l 1
 295 552 l 1
 504.5 708 l 1
 527.5 689 l 1
EndSplineSet
EndChar

StartChar: acircumflex.alt
Encoding: 65539 -1 343
Width: 517
VWidth: 0
Flags: HMW
LayerCount: 2
Fore
SplineSet
519.5 459 m 1
 549.5 459.5 l 1
 389.5 0 l 1
 362 0 l 1
 519.5 459 l 1
62.5 230 m 0
 101.5 348 214.5 472 348 469.5 c 0
 476 467 486 325 454.5 230 c 0
 418 119 317 -8 189 -9 c 0
 55.5 -10 28 125.5 62.5 230 c 0
93.5 230 m 0
 62.5 140 81.5 19 198.5 20.5 c 0
 309.5 22 406 133 440 230 c 0
 468 312 455.5 435.5 347 439.5 c 0
 230 444 129 332.5 93.5 230 c 0
425.5 666 m 1
 250.5 545.5 l 1
 235 563 l 1
 433.5 700 l 1
 538.5 560.5 l 1
 515.5 544.5 l 1
 425.5 666 l 1
EndSplineSet
EndChar

StartChar: atilde.alt
Encoding: 65540 -1 344
Width: 517
VWidth: 0
Flags: HMW
LayerCount: 2
Fore
SplineSet
519.5 459 m 1
 549.5 459.5 l 1
 389.5 0 l 1
 362 0 l 1
 519.5 459 l 1
62.5 230 m 0
 101.5 348 214.5 472 348 469.5 c 0
 476 467 486 325 454.5 230 c 0
 418 119 317 -8 189 -9 c 0
 55.5 -10 28 125.5 62.5 230 c 0
93.5 230 m 0
 62.5 140 81.5 19 198.5 20.5 c 0
 309.5 22 406 133 440 230 c 0
 468 312 455.5 435.5 347 439.5 c 0
 230 444 129 332.5 93.5 230 c 0
254.5 557.5 m 1
 254 586.5 320.5 620 346 620 c 0
 385.5 620.5 407 572.5 447 575 c 0
 475.5 576.5 498 602.5 517 621 c 1
 534 605.5 l 1
 510.5 581 478.5 548 441 549 c 0
 402.5 550 381.5 595.5 342.5 594 c 0
 311 592.5 291.5 567.5 274 545 c 1
 254.5 557.5 l 1
EndSplineSet
EndChar

StartChar: adieresis.alt
Encoding: 65541 -1 345
Width: 517
VWidth: 0
Flags: HMW
LayerCount: 2
Fore
SplineSet
519.5 459 m 1
 549.5 459.5 l 1
 389.5 0 l 1
 362 0 l 1
 519.5 459 l 1
62.5 230 m 0
 101.5 348 214.5 472 348 469.5 c 0
 476 467 486 325 454.5 230 c 0
 418 119 317 -8 189 -9 c 0
 55.5 -10 28 125.5 62.5 230 c 0
93.5 230 m 0
 62.5 140 81.5 19 198.5 20.5 c 0
 309.5 22 406 133 440 230 c 0
 468 312 455.5 435.5 347 439.5 c 0
 230 444 129 332.5 93.5 230 c 0
474 590 m 0
 476.5 600 493.5 614 504.5 613 c 0
 516 612 523 600 520.5 588.5 c 0
 518 578.5 500.5 564.5 489.5 565.5 c 0
 478 566.5 471.5 578.5 474 590 c 0
286 590 m 0
 288.5 600 305.5 614 316.5 613 c 0
 328 612 334.5 600 332 588.5 c 0
 329.5 578.5 312.5 564.5 301.5 565.5 c 0
 290 566.5 283.5 578.5 286 590 c 0
EndSplineSet
EndChar

StartChar: aring.alt
Encoding: 65542 -1 346
Width: 517
VWidth: 0
Flags: HMW
LayerCount: 2
Fore
SplineSet
519.5 459 m 1
 549.5 459.5 l 1
 389.5 0 l 1
 362 0 l 1
 519.5 459 l 1
62.5 230 m 0
 101.5 348 214.5 472 348 469.5 c 0
 476 467 486 325 454.5 230 c 0
 418 119 317 -8 189 -9 c 0
 55.5 -10 28 125.5 62.5 230 c 0
93.5 230 m 0
 62.5 140 81.5 19 198.5 20.5 c 0
 309.5 22 406 133 440 230 c 0
 468 312 455.5 435.5 347 439.5 c 0
 230 444 129 332.5 93.5 230 c 0
298 630.5 m 0
 314.5 681 372.5 729.5 427 728.5 c 0
 481 727.5 507 677 491.5 628.5 c 0
 475 578 416.5 529.5 362 530.5 c 0
 308 531.5 282.5 582 298 630.5 c 0
319 629.5 m 0
 307.5 594 325 553.5 365.5 552 c 0
 407 550.5 458 592 470.5 630 c 0
 482 665.5 464.5 706 424 707.5 c 0
 382 709 331.5 667.5 319 629.5 c 0
EndSplineSet
EndChar

StartChar: amacron.alt
Encoding: 65543 -1 347
Width: 517
VWidth: 0
Flags: HMW
LayerCount: 2
Fore
SplineSet
519.5 459 m 1
 549.5 459.5 l 1
 389.5 0 l 1
 362 0 l 1
 519.5 459 l 1
62.5 230 m 0
 101.5 348 214.5 472 348 469.5 c 0
 476 467 486 325 454.5 230 c 0
 418 119 317 -8 189 -9 c 0
 55.5 -10 28 125.5 62.5 230 c 0
93.5 230 m 0
 62.5 140 81.5 19 198.5 20.5 c 0
 309.5 22 406 133 440 230 c 0
 468 312 455.5 435.5 347 439.5 c 0
 230 444 129 332.5 93.5 230 c 0
213.5 550.5 m 1
 223.5 579.5 l 1
 554 579.5 l 1
 544 550 l 1
 213.5 550.5 l 1
EndSplineSet
EndChar

StartChar: abreve.alt
Encoding: 65544 -1 348
Width: 517
VWidth: 0
Flags: HMW
LayerCount: 2
Fore
SplineSet
519.5 459 m 1
 549.5 459.5 l 1
 389.5 0 l 1
 362 0 l 1
 519.5 459 l 1
62.5 230 m 0
 101.5 348 214.5 472 348 469.5 c 0
 476 467 486 325 454.5 230 c 0
 418 119 317 -8 189 -9 c 0
 55.5 -10 28 125.5 62.5 230 c 0
93.5 230 m 0
 62.5 140 81.5 19 198.5 20.5 c 0
 309.5 22 406 133 440 230 c 0
 468 312 455.5 435.5 347 439.5 c 0
 230 444 129 332.5 93.5 230 c 0
262.5 683.5 m 1
 289 683.5 l 1
 280 622.5 301 572 370.5 571 c 0
 444.5 570 499 622.5 534 682 c 1
 562 681.5 l 1
 523.5 606 456.5 544 367 544.5 c 0
 281 545 250 606 262.5 683.5 c 1
EndSplineSet
EndChar

StartChar: aogonek.alt
Encoding: 65545 -1 349
Width: 517
VWidth: 0
Flags: HMW
LayerCount: 2
Fore
SplineSet
519.5 459 m 1
 549.5 459.5 l 1
 389.5 0.5 l 1
 362 0 l 1
 519.5 459 l 1
62.5 230 m 0
 101.5 348 214.5 472 348 469.5 c 0
 476 467 486 325 454.5 230 c 0
 418 119 317 -8 189 -9 c 0
 55.5 -10 28 125.5 62.5 230 c 0
93.5 230 m 0
 62.5 140 81.5 19 198.5 20.5 c 0
 309.5 22 406 133 440 230 c 0
 468 312 455.5 435.5 347 439.5 c 0
 230 444 129 332.5 93.5 230 c 0
359 -161 m 1
 367 -182.5 l 1
 336 -202 303 -219.5 265 -219 c 0
 214 -219 174.5 -187.5 189.5 -133 c 0
 211.5 -55 312.5 -16.5 378.5 13.5 c 1
 392 0 l 1
 336.5 -28 239.5 -59.5 221.5 -128 c 0
 211.5 -165.5 237.5 -189 273 -191 c 0
 303.5 -192.5 333.5 -175.5 359 -161 c 1
EndSplineSet
EndChar

StartChar: dagger
Encoding: 8224 8224 350
Width: 489
VWidth: 0
Flags: HMW
LayerCount: 2
Fore
SplineSet
216 540 m 1
 538.5 540 l 1
 529 510.5 l 1
 206.5 510.5 l 1
 216 540 l 1
412 700 m 1
 442.5 700 l 1
 179 -150 l 1
 149.5 -149.5 l 1
 412 700 l 1
EndSplineSet
EndChar

StartChar: daggerdbl
Encoding: 8225 8225 351
Width: 489
VWidth: 0
Flags: HMW
LayerCount: 2
Fore
SplineSet
86.5 120 m 1
 409.5 120 l 1
 400 90.5 l 1
 77.5 90.5 l 1
 86.5 120 l 1
216 540 m 1
 538.5 540 l 1
 529 510.5 l 1
 206.5 510.5 l 1
 216 540 l 1
412 700 m 1
 442.5 700 l 1
 179 -150 l 1
 149.5 -149.5 l 1
 412 700 l 1
EndSplineSet
EndChar

StartChar: ellipsis
Encoding: 8230 8230 352
Width: 788
VWidth: 0
Flags: HMW
LayerCount: 2
Fore
SplineSet
55.5 13.5 m 0
 58 23.5 75 37.5 86 36.5 c 0
 97.5 35.5 104.5 23.5 102 12 c 0
 99.5 2 82.5 -12 71.5 -11 c 0
 60 -10 53 2 55.5 13.5 c 0
321.5 13.5 m 0
 324 23.5 340.5 37.5 351.5 36.5 c 0
 363 35.5 370.5 23.5 368 12 c 0
 365.5 2 348.5 -12 337.5 -11 c 0
 326 -10 319 2 321.5 13.5 c 0
587 13.5 m 0
 589.5 23.5 606.5 37.5 617.5 36.5 c 0
 629 35.5 636 23.5 633.5 12 c 0
 631 2 614.5 -12 603.5 -11 c 0
 592 -10 584.5 2 587 13.5 c 0
EndSplineSet
EndChar

StartChar: uniFF10
Encoding: 65296 65296 353
Width: 525
VWidth: 0
Flags: HMW
LayerCount: 2
Fore
SplineSet
142 350 m 0
 110.5 259 53.5 24 213 21.5 c 0
 371.5 19 471.5 224 514.5 350 c 0
 546 441 603 675.5 443.5 678 c 0
 285 680.5 185 476 142 350 c 0
109.5 350 m 0
 157.5 493.5 271 710.5 448.5 709 c 0
 630 707.5 584 460.5 547 350 c 0
 499 206.5 385 -10.5 207.5 -9 c 0
 26 -7.5 72.5 239.5 109.5 350 c 0
EndSplineSet
EndChar

StartChar: uniFF11
Encoding: 65297 65297 354
Width: 525
VWidth: 0
Flags: HMW
LayerCount: 2
Fore
SplineSet
299.5 627 m 1
 312 662 l 1
 516 707 l 1
 272.5 0 l 1
 240.5 0 l 1
 469.5 664.5 l 1
 299.5 627 l 1
EndSplineSet
EndChar

StartChar: uniFF12
Encoding: 65298 65298 355
Width: 525
VWidth: 0
Flags: HMW
LayerCount: 2
Fore
SplineSet
-19 0 m 1
 399 339.5 l 2
 457.5 387.5 519 441.5 544.5 515 c 0
 572 593 542.5 676.5 450.5 679 c 0
 326 681.5 244.5 561.5 199 461 c 1
 167.5 461.5 l 1
 218 579 312.5 712.5 456 710 c 0
 566.5 708.5 608.5 609 576.5 513 c 0
 550 433.5 485 373 422.5 321.5 c 2
 59.5 32 l 1
 431.5 31 l 1
 421 0 l 1
 -19 0 l 1
EndSplineSet
EndChar

StartChar: uniFF13
Encoding: 65299 65299 356
Width: 525
VWidth: 0
Flags: HMW
LayerCount: 2
Fore
SplineSet
306.5 358 m 1
 313.5 379.5 l 1
 406.5 391 508.5 434.5 543 529.5 c 0
 569.5 603 535.5 677 452 679 c 0
 356 681 288 605.5 247 527.5 c 1
 216 528 l 1
 261.5 624 343 710.5 457 709 c 0
 556.5 708 606.5 621 575.5 530 c 0
 537 416.5 416.5 367.5 306.5 358 c 1
213 -9 m 0
 94.5 -9 48.5 78.5 72.5 185 c 1
 104.5 184.5 l 1
 85 94.5 116.5 22.5 218 22 c 0
 313.5 21.5 412.5 89.5 443 181 c 0
 478 285 396 338 304.5 349.5 c 1
 311 370.5 l 1
 418.5 360.5 512.5 298 473.5 177.5 c 0
 438 69 326.5 -9 213 -9 c 0
EndSplineSet
EndChar

StartChar: uniFF14
Encoding: 65300 65300 357
Width: 525
VWidth: 0
Flags: HMW
LayerCount: 2
Fore
SplineSet
12.5 141 m 1
 49 168.5 l 1
 374.5 169.5 l 1
 382.5 169.5 l 1
 500.5 169.5 l 1
 490 140 l 1
 12.5 141 l 1
48.5 142 m 1
 12.5 141 l 1
 566 698.5 l 1
 579 699 l 1
 338.5 0 l 1
 306 0 l 1
 359.5 152 l 1
 361 159 l 1
 518.5 614 l 1
 48.5 142 l 1
EndSplineSet
EndChar

StartChar: uniFF15
Encoding: 65301 65301 358
Width: 525
VWidth: 0
Flags: HMW
LayerCount: 2
Fore
SplineSet
495.5 230 m 0
 455 103 335.5 -9.5 197 -9 c 0
 102 -9 53.5 50 37 137.5 c 1
 67.5 155 l 1
 80.5 79 118.5 23 202.5 22 c 0
 322.5 21 425 121 462.5 230 c 0
 492.5 316 466.5 417.5 361.5 421 c 0
 278.5 424.5 204.5 376 141 330 c 1
 180 370 l 1
 231 418 306 452.5 377 451 c 0
 498.5 448.5 527 329 495.5 230 c 0
371 670 m 1
 199.5 376 l 1
 137.5 326 l 1
 355 699 l 1
 667 700 l 1
 657.5 671 l 1
 371 670 l 1
EndSplineSet
EndChar

StartChar: uniFF16
Encoding: 65302 65302 359
Width: 525
VWidth: 0
Flags: HMW
LayerCount: 2
Fore
SplineSet
104 223 m 0
 71.5 131 100.5 22.5 213 21 c 0
 327.5 19.5 431.5 119.5 466.5 223 c 0
 495.5 309.5 466 414 361 416.5 c 0
 248.5 419 140.5 325.5 104 223 c 0
499.5 698.5 m 1
 541.5 698.5 l 1
 205 373.5 l 1
 202 375.5 l 1
 252.5 412 309.5 444 374 442.5 c 0
 492.5 439 527.5 321 496.5 222.5 c 0
 458 101 340.5 -9.5 207.5 -9 c 0
 76 -8.5 36.5 113 73.5 223 c 0
 93.5 282 132 333.5 174.5 378 c 2
 499.5 698.5 l 1
EndSplineSet
EndChar

StartChar: uniFF17
Encoding: 65303 65303 360
Width: 525
VWidth: 0
Flags: HMW
LayerCount: 2
Fore
SplineSet
224 669 m 1
 234.5 700 l 1
 685.5 699 l 1
 106 0 l 1
 71.5 0 l 1
 624.5 668 l 1
 224 669 l 1
EndSplineSet
EndChar

StartChar: uniFF18
Encoding: 65304 65304 361
Width: 525
VWidth: 0
Flags: HMW
LayerCount: 2
Fore
SplineSet
223.5 538.5 m 0
 253 629 351 710 448.5 709 c 0
 542.5 708 589.5 621.5 562 537 c 0
 532.5 446 433.5 364.5 335.5 365 c 0
 240.5 365.5 196 453.5 223.5 538.5 c 0
252 535 m 0
 230 469.5 260 388.5 337.5 386.5 c 0
 418.5 384.5 504.5 462 530.5 535 c 0
 555 603.5 523.5 678 444 679.5 c 0
 362 681 278 610.5 252 535 c 0
82.5 187 m 0
 117 288.5 225.5 377.5 335 376.5 c 0
 440.5 376 492.5 282 462 186 c 0
 428.5 80 320.5 -10 207.5 -9 c 0
 97 -8 50 89.5 82.5 187 c 0
114 189.5 m 0
 84.5 108 117 22 212.5 20.5 c 0
 309.5 19 403 100 433 189.5 c 0
 459 266.5 422 353.5 332.5 355 c 0
 239.5 356.5 144.5 274 114 189.5 c 0
EndSplineSet
EndChar

StartChar: uniFF19
Encoding: 65305 65305 362
Width: 525
VWidth: 0
Flags: HMW
LayerCount: 2
Fore
SplineSet
552.5 477 m 0
 585 569 556.5 677.5 444 679 c 0
 329.5 680.5 225 580.5 190 477 c 0
 161 390.5 190.5 286 295.5 283.5 c 0
 408 281 516 374.5 552.5 477 c 0
156.5 0 m 1
 115 0 l 1
 450.5 326.5 l 1
 454 324.5 l 1
 403.5 288 347.5 256 283 257.5 c 0
 164.5 261 129 379 160 477.5 c 0
 198.5 599 315.5 709.5 448.5 709 c 0
 580 708.5 620.5 587 583.5 477 c 0
 563.5 418 524 366.5 481.5 322 c 2
 156.5 0 l 1
EndSplineSet
EndChar

StartChar: caron
Encoding: 711 711 363
Width: 451
VWidth: 0
Flags: HMW
LayerCount: 2
Fore
SplineSet
375.5 605 m 1
 550 726 l 1
 566 707.5 l 1
 368 570.5 l 1
 262 710.5 l 1
 286 727.5 l 1
 375.5 605 l 1
EndSplineSet
EndChar

StartChar: napostrophe
Encoding: 329 329 364
Width: 583
VWidth: 0
Flags: HMW
LayerCount: 2
Fore
SplineSet
301 459.5 m 1
 142 0 l 1
 111.5 0 l 1
 271 459.5 l 1
 301 459.5 l 1
496.5 308 m 2
 514.5 367.5 513.5 437 435.5 439.5 c 0
 343 442 276 355 237.5 282 c 1
 223 282 l 1
 263.5 369.5 338 469.5 446 469 c 0
 540 468.5 549 384 527 311 c 1
 419 0 l 1
 389.5 0 l 1
 496.5 308 l 2
335.5 698.5 m 1
 373.5 698.5 l 1
 200 472 l 1
 176.5 472 l 1
 335.5 698.5 l 1
EndSplineSet
EndChar

StartChar: IJ
Encoding: 306 306 365
Width: 461
VWidth: 0
Flags: HMW
LayerCount: 2
Fore
SplineSet
27.5 -143 m 1
 48.5 -168 71.5 -187.5 107 -187.5 c 0
 185 -188.5 225 -114 249 -50 c 1
 506 699.5 l 1
 537.5 699.5 l 1
 277.5 -60.5 l 2
 248.5 -139.5 194 -221.5 100 -219 c 0
 57.5 -218 28.5 -197 3.5 -166 c 1
 27.5 -143 l 1
263.5 699 m 1
 296 699.5 l 1
 54 0 l 1
 23.5 0 l 1
 263.5 699 l 1
EndSplineSet
EndChar

StartChar: ij
Encoding: 307 307 366
Width: 479
VWidth: 0
Flags: HMW
LayerCount: 2
Fore
SplineSet
490 682 m 0
 492.5 692 509.5 705.5 520.5 704.5 c 0
 532 703.5 538 692.5 535.5 681 c 0
 533 671 517 657.5 506 658.5 c 0
 494.5 659.5 487.5 670.5 490 682 c 0
68.5 -150 m 1
 85 -150 100.5 -186 121 -188.5 c 0
 181 -196.5 222 -118 239.5 -72.5 c 2
 423.5 459.5 l 1
 454 459.5 l 1
 270.5 -75.5 l 2
 246 -141 194 -223.5 113 -219 c 0
 80.5 -217.5 63 -198 45 -173.5 c 1
 68.5 -150 l 1
255 682 m 0
 257.5 692 273.5 705.5 284.5 704.5 c 0
 296 703.5 303 692.5 300.5 681 c 0
 298 671 281.5 657.5 270.5 658.5 c 0
 259 659.5 252.5 670.5 255 682 c 0
187.5 459 m 1
 218.5 459.5 l 1
 59 0 l 1
 29.5 0 l 1
 187.5 459 l 1
EndSplineSet
EndChar

StartChar: uni0237
Encoding: 567 567 367
Width: 188
VWidth: 0
Flags: HMW
LayerCount: 2
Fore
SplineSet
-175.5 -150 m 1
 -163 -169 -149.5 -187 -124 -188.5 c 0
 -62 -191 -24 -121.5 -4.5 -72.5 c 2
 178.5 459.5 l 1
 209 459.5 l 1
 26 -75.5 l 2
 1.5 -141 -51 -223.5 -132 -219 c 0
 -164.5 -217.5 -182.5 -198 -200 -173.5 c 1
 -175.5 -150 l 1
EndSplineSet
EndChar

StartChar: Sacute
Encoding: 346 346 368
Width: 475
VWidth: 0
Flags: HMW
LayerCount: 2
Fore
SplineSet
80 205.5 m 1
 81.5 123.5 100 25.5 202 24 c 0
 295.5 22.5 379 90.5 408 177.5 c 0
 436 262 385 315.5 314.5 352.5 c 0
 237.5 392.5 174 452 204.5 546 c 0
 234.5 637.5 334 708.5 430 707.5 c 0
 523 706.5 558.5 634.5 563 552.5 c 1
 532.5 538 l 1
 529 607 505.5 674 425 675.5 c 0
 346.5 676.5 263 617.5 237.5 543.5 c 0
 207.5 458 277.5 411 344 376.5 c 0
 423 336 470.5 270.5 442 179 c 0
 409.5 73.5 308 -9 195 -7.5 c 0
 81.5 -6 51.5 95 48.5 190.5 c 1
 80 205.5 l 1
660.5 920.5 m 1
 442.5 770.5 l 1
 428.5 783.5 l 1
 637.5 939.5 l 1
 660.5 920.5 l 1
EndSplineSet
EndChar

StartChar: sacute
Encoding: 347 347 369
Width: 379
VWidth: 0
Flags: HMW
LayerCount: 2
Fore
SplineSet
55.5 151 m 1
 52 89 63 21 139.5 20 c 0
 198 19 262.5 63 280.5 119 c 0
 300 177.5 253 205.5 207 226 c 0
 150 252 102 286.5 126 356.5 c 0
 148.5 423 222 468 290.5 467.5 c 0
 354 467 384.5 428.5 395.5 371 c 1
 367 357.5 l 1
 356.5 401.5 337 437.5 285.5 438 c 0
 233.5 438.5 172 404.5 154.5 354 c 0
 133 293.5 185 268.5 232 248 c 0
 286 223.5 331 185.5 312 120.5 c 0
 290.5 45.5 210.5 -10.5 133.5 -9 c 0
 45 -8 22.5 63 26 138 c 1
 55.5 151 l 1
521 682 m 1
 304 532 l 1
 289 545 l 1
 498 701 l 1
 521 682 l 1
EndSplineSet
EndChar

StartChar: Scircumflex
Encoding: 348 348 370
Width: 475
VWidth: 0
Flags: HMW
LayerCount: 2
Fore
SplineSet
80 205.5 m 1
 81.5 123.5 100 25.5 202 24 c 0
 295.5 22.5 379 90.5 408 177.5 c 0
 436 262 385 315.5 314.5 352.5 c 0
 237.5 392.5 174 452 204.5 546 c 0
 234.5 637.5 334 708.5 430 707.5 c 0
 523 706.5 558.5 634.5 563 552.5 c 1
 532.5 538 l 1
 529 607 505.5 674 425 675.5 c 0
 346.5 676.5 263 617.5 237.5 543.5 c 0
 207.5 458 277.5 411 344 376.5 c 0
 423 336 470 270.5 441.5 179 c 0
 409 73.5 308 -9 195 -7.5 c 0
 81.5 -6 51.5 95 48.5 190.5 c 1
 80 205.5 l 1
497.5 890.5 m 1
 322.5 770.5 l 1
 307.5 788 l 1
 505.5 925 l 1
 611 785 l 1
 587.5 769 l 1
 497.5 890.5 l 1
EndSplineSet
EndChar

StartChar: scircumflex
Encoding: 349 349 371
Width: 379
VWidth: 0
Flags: HMW
LayerCount: 2
Fore
SplineSet
55.5 151 m 1
 52 89 63.5 21 140 20 c 0
 198.5 19 262.5 63 280.5 119 c 0
 300 177.5 253 205.5 207 226 c 0
 150 252 102 286.5 126 356.5 c 0
 148.5 423 222 468 290.5 467.5 c 0
 354 467 384.5 428.5 395.5 371 c 1
 367 357.5 l 1
 356.5 401.5 337 437.5 285.5 438 c 0
 233.5 438.5 172 404.5 154.5 354 c 0
 133 293.5 185 268.5 232 248 c 0
 286 223.5 331 185.5 312 120.5 c 0
 290.5 45.5 210.5 -10.5 133.5 -9 c 0
 45 -8 22.5 63 26 138 c 1
 55.5 151 l 1
358 652 m 1
 183 531.5 l 1
 168 549 l 1
 366 686 l 1
 471 546.5 l 1
 447.5 530.5 l 1
 358 652 l 1
EndSplineSet
EndChar

StartChar: uni1E9E
Encoding: 7838 7838 372
Width: 640
VWidth: 0
Flags: HMW
LayerCount: 2
Fore
SplineSet
329 -9 m 0
 214 -9 174 84 195.5 185 c 1
 226.5 184.5 l 1
 209 101 235.497558594 22.5 333.5 22 c 0
 430 21.5 523.5 98.5 554 188 c 0
 590.5 295.5 504.5 338.5 412.5 348 c 1
 420 369 l 1
 527.5 360.5 625.086617338 308.633987448 585.5 184.5 c 0
 551.5 79 444 -9 329 -9 c 0
415.5 358 m 1
 422.5 379 l 1
 518.5 389 619 431 652 530 c 0
 682.5 621 610 677.5 524.5 679 c 0
 363 681 243.5 547.5 191.5 407 c 2
 51 0 l 1
 19.5 0 l 1
 158.5 407 l 2
 215.5 565 349.5 711 529.5 709.5 c 0
 630.5 709 720.5 641.5 685.5 533 c 0
 648 415 529.5 367.5 415.5 358 c 1
EndSplineSet
EndChar

StartChar: Zacute
Encoding: 377 377 373
Width: 505
VWidth: 0
Flags: HW
LayerCount: 2
Fore
SplineSet
209 668.5 m 1
 220.5 700 l 1
 677.5 699 l 1
 30.5 32.5 l 1
 436.5 31.5 l 1
 425 0 l 1
 -39.5 0 l 1
 608.5 667.5 l 1
 209 668.5 l 1
667.5 920.5 m 1
 448 770.5 l 1
 435 783.5 l 1
 644.5 939.5 l 1
 667.5 920.5 l 1
EndSplineSet
EndChar

StartChar: zacute
Encoding: 378 378 374
Width: 412
VWidth: 0
Flags: HW
LayerCount: 2
Fore
SplineSet
425 429.5 m 1
 131 430.5 l 1
 141 460 l 1
 494 459 l 1
 29.5 30.5 l 1
 346.5 29.5 l 1
 336.5 0 l 1
 -39.5 0 l 1
 425 429.5 l 1
538.5 688 m 1
 319.5 538 l 1
 306 551 l 1
 515.5 707 l 1
 538.5 688 l 1
EndSplineSet
EndChar

StartChar: Zdotaccent
Encoding: 379 379 375
Width: 505
VWidth: 0
Flags: HW
LayerCount: 2
Fore
SplineSet
209 668.5 m 1
 220.5 700 l 1
 677.5 699 l 1
 30.5 32.5 l 1
 436.5 31.5 l 1
 425 0 l 1
 -39.5 0 l 1
 608.5 667.5 l 1
 209 668.5 l 1
457 793.5 m 0
 459.5 803.5 475.5 817.5 486.5 816.5 c 0
 498 815.5 506 803.5 503.5 792 c 0
 501 782 483.5 768 472.5 769 c 0
 461 770 454.5 782 457 793.5 c 0
EndSplineSet
EndChar

StartChar: zdotaccent
Encoding: 380 380 376
Width: 412
VWidth: 0
Flags: HW
LayerCount: 2
Fore
SplineSet
425 429.5 m 1
 131 430.5 l 1
 141 460 l 1
 494 459 l 1
 29.5 30.5 l 1
 346.5 29.5 l 1
 336.5 0 l 1
 -39.5 0 l 1
 425 429.5 l 1
336 585 m 0
 338.5 595 355.5 609 366.5 608 c 0
 378 607 385 595 382.5 583.5 c 0
 380 573.5 363 559.5 352 560.5 c 0
 340.5 561.5 333.5 573.5 336 585 c 0
EndSplineSet
EndChar

StartChar: Tcaron
Encoding: 356 356 377
Width: 414
VWidth: 0
Flags: HW
LayerCount: 2
Fore
SplineSet
189 668.5 m 1
 200 700 l 1
 585 700 l 1
 573.5 668.5 l 1
 397.5 668.5 l 1
 168.5 0 l 1
 136 0 l 1
 365 668.5 l 1
 189 668.5 l 1
425 803.5 m 1
 600 924.5 l 1
 615 906.5 l 1
 417 769.5 l 1
 312 909 l 1
 336 926 l 1
 425 803.5 l 1
EndSplineSet
EndChar

StartChar: tcaron
Encoding: 357 357 378
Width: 282
VWidth: 0
Flags: HW
LayerCount: 2
Fore
SplineSet
114 460 m 1
 285.5 460 l 1
 274.5 430.5 l 1
 103 430.5 l 1
 114 460 l 1
239 619 m 1
 270.5 619.5 l 1
 56 0 l 1
 27 0 l 1
 239 619 l 1
477 783.5 m 1
 505.5 770.5 l 1
 314.5 525 l 1
 295 532.5 l 1
 477 783.5 l 1
EndSplineSet
EndChar

StartChar: Uring
Encoding: 366 366 379
Width: 555
VWidth: 0
Flags: HW
LayerCount: 2
Fore
SplineSet
262.5 699.5 m 1
 294.5 699.5 l 1
 130 223 l 2
 102 133.5 112.5 24 229 22.5 c 0
 346 21 430.5 122.5 468.5 223 c 1
 633 699.5 l 1
 665.5 699.5 l 1
 502.5 223 l 2
 459.5 104 360 -9.5 223.5 -9 c 0
 88.5 -8.5 66 114.5 99 223 c 1
 262.5 699.5 l 1
423 870 m 0
 439.5 920.5 498.5 968.5 553 967.5 c 0
 607 966.5 633 916 617.5 867.5 c 0
 601 817 542 768.5 487.5 769.5 c 0
 433.5 770.5 407.5 821.5 423 870 c 0
445 868.5 m 0
 433.5 833 451 793 491.5 790.5 c 0
 533 788 583.5 831 596 869 c 0
 607.5 904.5 589.5 944 549 946.5 c 0
 507.5 949 457.5 906.5 445 868.5 c 0
EndSplineSet
EndChar

StartChar: uring
Encoding: 367 367 380
Width: 460
VWidth: 0
Flags: HW
LayerCount: 2
Fore
SplineSet
298.5 0 m 1
 457.5 459.5 l 1
 488.5 459.5 l 1
 329.5 0 l 1
 298.5 0 l 1
106 159 m 2
 87.5 99.5 83.5 22 165 20.5 c 0
 257.5 18 324 104 362.5 178 c 1
 374.5 178 l 1
 334.5 90.5 261 -10.5 153.5 -9 c 0
 55.5 -8.5 52.5 82.5 75 156 c 1
 181 459.5 l 1
 210 459 l 1
 106 159 l 2
294 631.5 m 0
 310.5 682 369.5 730 424 729 c 0
 478 728 503.5 677 488 628.5 c 0
 471.5 578 413 530 358.5 531 c 0
 304.5 532 278.5 583 294 631.5 c 0
315.5 629.5 m 0
 304 594 321.5 554.5 362 552 c 0
 403.5 549.5 454 592.5 466.5 630.5 c 0
 478 666 461 705.5 420.5 708 c 0
 379 710.5 328 667.5 315.5 629.5 c 0
EndSplineSet
EndChar

StartChar: uni0123
Encoding: 291 291 381
Width: 536
VWidth: 0
Flags: HW
LayerCount: 2
Fore
SplineSet
-12.5 -30 m 1
 17.5 -30.5 l 1
 -1.5 -114 15 -197.5 117 -199.5 c 0
 236 -201.5 325 -91.5 363.5 10 c 1
 518.5 459.5 l 1
 549.5 459.5 l 1
 396 10 l 2
 352.5 -109 251 -229.5 114 -229 c 0
 -5 -228.5 -35.5 -130.5 -12.5 -30 c 1
62.5 230 m 0
 101 348 213.5 472 347 469.5 c 0
 475 467 485.5 326 454.5 230 c 0
 418 119 318 -8 190 -9 c 0
 56.5 -10.5 28 125 62.5 230 c 0
93.5 230 m 0
 61.5 140 81 20 198 20.5 c 0
 310.5 21 407 135.5 440.5 233.5 c 0
 468.5 314 454.5 435.5 348 439.5 c 0
 231 444.5 129.5 332.5 93.5 230 c 0
387.5 561.5 m 1
 362 581 l 1
 580.5 805.5 l 1
 599 793 l 1
 387.5 561.5 l 1
EndSplineSet
EndChar

StartChar: Hbar
Encoding: 294 294 382
Width: 627
VWidth: 0
Flags: HW
LayerCount: 2
Fore
SplineSet
168.5 366 m 1
 178 397 l 1
 618 397 l 1
 608 366 l 1
 168.5 366 l 1
698.5 699 m 1
 733 699.5 l 1
 491.5 0 l 1
 460 0 l 1
 698.5 699 l 1
265.5 699 m 1
 300 699.5 l 1
 58.5 0 l 1
 27 0 l 1
 265.5 699 l 1
150.5 586 m 1
 160 615 l 1
 780.5 615 l 1
 771 586 l 1
 150.5 586 l 1
EndSplineSet
EndChar

StartChar: hbar
Encoding: 295 295 383
Width: 493
VWidth: 0
Flags: HW
LayerCount: 2
Fore
SplineSet
320.5 779.5 m 1
 51.5 0 l 1
 20.5 0 l 1
 289.5 779.5 l 1
 320.5 779.5 l 1
406 308 m 2
 424 367 423.5 436.5 345.5 439 c 0
 253 441.5 186 355 147.5 282 c 1
 135 282.5 l 1
 175 370 247.5 469.5 355 469 c 0
 449 468.5 459 384 437 311 c 1
 328.5 0 l 1
 300 0 l 1
 406 308 l 2
179.5 671 m 1
 189 700 l 1
 484 700 l 1
 475 671 l 1
 179.5 671 l 1
EndSplineSet
EndChar

StartChar: Utilde
Encoding: 360 360 384
Width: 555
VWidth: 0
Flags: HW
LayerCount: 2
Fore
SplineSet
262.5 699.5 m 1
 295 699.5 l 1
 130 223 l 2
 102 133.5 111.5 24 228 22.5 c 0
 345 21 430 122.5 468 223 c 1
 632 699.5 l 1
 665.5 699.5 l 1
 503 223 l 2
 460 104 361 -9.5 224.5 -9 c 0
 89.5 -8.5 65.5 114 98.5 223 c 1
 262.5 699.5 l 1
361.464355469 781.5 m 1
 370.964355469 812 415.964355469 844.5 450.464355469 844 c 0
 489.964355469 843.5 512.464355469 796.5 552.964355469 799 c 0
 581.464355469 800.5 603.964355469 826.5 622.464355469 845 c 1
 638.964355469 829 l 1
 615.464355469 804.5 585.464355469 772 548.464355469 773 c 0
 509.964355469 774 488.464355469 818 449.964355469 818 c 0
 417.964355469 818 398.464355469 792 381.464355469 769 c 1
 361.464355469 781.5 l 1
EndSplineSet
EndChar

StartChar: utilde
Encoding: 361 361 385
Width: 460
VWidth: 0
Flags: HW
LayerCount: 2
Fore
SplineSet
298.5 0 m 1
 457.5 459.5 l 1
 488.5 459.5 l 1
 329.5 0 l 1
 298.5 0 l 1
106 159 m 2
 87.5 100 83 22.5 164.5 21 c 0
 257 18.5 323.5 104 362 178 c 1
 374.5 177.5 l 1
 334.5 90 262 -10 154.5 -9 c 0
 56.5 -8.5 52.5 82 75 156 c 1
 180.5 459 l 1
 210 459 l 1
 106 159 l 2
230.5 543.5 m 1
 252 573 280.5 607 321.5 606 c 0
 361 605.5 382.5 558.5 422 561 c 0
 450.5 562.5 474 589 493 607.5 c 1
 509.5 591 l 1
 486 566.5 456 534 418 535 c 0
 379.5 536 358.5 580 320 580 c 0
 288 580 267 554 250 531 c 1
 230.5 543.5 l 1
EndSplineSet
EndChar

StartChar: Umacron
Encoding: 362 362 386
Width: 555
VWidth: 0
Flags: HW
LayerCount: 2
Fore
SplineSet
262.5 699.5 m 1
 295 699.5 l 1
 130 223 l 2
 102 133.5 111.5 24 228 22.5 c 0
 345 21 430 122.5 468 223 c 1
 632 699.5 l 1
 665.5 699.5 l 1
 503 223 l 2
 460 104 361 -9.5 224.5 -9 c 0
 89.5 -8.5 65.5 114 98.5 223 c 1
 262.5 699.5 l 1
322 769 m 1
 331 798 l 1
 662.5 798 l 1
 652.5 769 l 1
 322 769 l 1
EndSplineSet
EndChar

StartChar: umacron
Encoding: 363 363 387
Width: 460
VWidth: 0
Flags: HW
LayerCount: 2
Fore
SplineSet
298.5 0 m 1
 457.5 459.5 l 1
 488.5 459.5 l 1
 329.5 0 l 1
 298.5 0 l 1
106 159 m 2
 87.5 100 83 22.5 164.5 21 c 0
 257 18.5 323.5 104 362 178 c 1
 374.5 177.5 l 1
 334.5 90 262 -10 154.5 -9 c 0
 56.5 -8.5 52.5 82 75 156 c 1
 180.5 459 l 1
 210 459 l 1
 106 159 l 2
193 530.5 m 1
 202.5 559.5 l 1
 533.5 559.5 l 1
 523.5 530.5 l 1
 193 530.5 l 1
EndSplineSet
EndChar

StartChar: Ubreve
Encoding: 364 364 388
Width: 555
VWidth: 0
Flags: HW
LayerCount: 2
Fore
SplineSet
262.5 699.5 m 1
 295 699.5 l 1
 130 223 l 2
 102 133.5 111.5 24 228 22.5 c 0
 345 21 430 122.5 468 223 c 1
 632 699.5 l 1
 665.5 699.5 l 1
 503 223 l 2
 460 104 361 -9.5 224.5 -9 c 0
 89.5 -8.5 65.5 114 98.5 223 c 1
 262.5 699.5 l 1
384.5 908.5 m 1
 411.5 908.5 l 1
 402 848 422.5 797 492 796 c 0
 566 795 620 848 655.5 907 c 1
 684 906.5 l 1
 645 831 579 769 489.5 769.5 c 0
 403 770 371.5 831 384.5 908.5 c 1
EndSplineSet
EndChar

StartChar: ubreve
Encoding: 365 365 389
Width: 460
VWidth: 0
Flags: HW
LayerCount: 2
Fore
SplineSet
298.5 0 m 1
 457.5 459.5 l 1
 488.5 459.5 l 1
 329.5 0 l 1
 298.5 0 l 1
106 159 m 2
 87.5 100 83 22.5 164.5 21 c 0
 257 18.5 323.5 104 362 178 c 1
 374.5 177.5 l 1
 334.5 90 262 -10 154.5 -9 c 0
 56.5 -8.5 52.5 82 75 156 c 1
 180.5 459 l 1
 210 459 l 1
 106 159 l 2
256 670 m 1
 282.5 669.5 l 1
 273 609 293 558.5 362.5 557.5 c 0
 436.5 556.5 491 609.5 526.5 668.5 c 1
 555 667.5 l 1
 516 592 450 530.5 360.5 531 c 0
 274 531.5 243 592.5 256 670 c 1
EndSplineSet
EndChar

StartChar: Wcircumflex
Encoding: 372 372 390
Width: 904
VWidth: 0
Flags: HW
LayerCount: 2
Fore
SplineSet
637 74 m 1
 1037 699 l 1
 1075 699 l 1
 608.5 -24 l 1
 611.5 624 l 1
 200.5 -24 l 1
 198.5 700 l 1
 233 700 l 1
 231.5 74 l 1
 642.5 724 l 1
 637 74 l 1
709.194335938 903.5 m 1
 533.694335938 783.5 l 1
 517.694335938 801 l 1
 715.194335938 938 l 1
 821.194335938 797.5 l 1
 798.694335938 781.5 l 1
 709.194335938 903.5 l 1
EndSplineSet
EndChar

StartChar: wcircumflex
Encoding: 373 373 391
Width: 599
VWidth: 0
Flags: HW
LayerCount: 2
Fore
SplineSet
115.5 460 m 1
 146.5 460 l 1
 131 64.5 l 1
 406.5 483.5 l 1
 398.5 63 l 1
 659.5 459 l 1
 695.5 459 l 1
 373 -23.5 l 1
 379.5 396 l 1
 101.5 -23.5 l 1
 115.5 460 l 1
473.194335938 663.5 m 1
 297.194335938 543.5 l 1
 281.694335938 561 l 1
 479.194335938 698 l 1
 585.194335938 557.5 l 1
 562.694335938 541.5 l 1
 473.194335938 663.5 l 1
EndSplineSet
EndChar

StartChar: Ycircumflex
Encoding: 374 374 392
Width: 492
VWidth: 0
Flags: HW
LayerCount: 2
Fore
SplineSet
629 698.5 m 1
 669 698.5 l 1
 299 274.5 l 1
 204 0 l 1
 171 0 l 1
 268.5 280 l 1
 197 700 l 1
 231 700 l 1
 292 311.5 l 1
 629 698.5 l 1
488.079101562 890.5 m 1
 312.079101562 770.5 l 1
 296.079101562 788 l 1
 493.579101562 925 l 1
 600.079101562 784.5 l 1
 577.579101562 768.5 l 1
 488.079101562 890.5 l 1
EndSplineSet
EndChar

StartChar: ycircumflex
Encoding: 375 375 393
Width: 403
VWidth: 0
Flags: HW
LayerCount: 2
Fore
SplineSet
503.5 459 m 1
 -13.5 -219 l 1
 -50 -218.5 l 1
 146 36.5 l 1
 109.5 460 l 1
 143 460 l 1
 175 44 l 1
 156.5 46.5 l 1
 467 459 l 1
 503.5 459 l 1
363.751953125 651 m 1
 188.251953125 531 l 1
 172.251953125 549 l 1
 369.751953125 685.5 l 1
 475.751953125 545.5 l 1
 453.251953125 529.5 l 1
 363.751953125 651 l 1
EndSplineSet
EndChar

StartChar: uni0400
Encoding: 1024 1024 394
Width: 517
VWidth: 0
Flags: HW
LayerCount: 2
Fore
SplineSet
42.5 0 m 1
 52 31 l 1
 376.5 31 l 1
 366.5 0 l 1
 42.5 0 l 1
271 669.5 m 1
 280.5 700 l 1
 604.5 700 l 1
 594.5 669.5 l 1
 271 669.5 l 1
169 371 m 1
 179.5 402 l 1
 484 402 l 1
 474 371 l 1
 169 371 l 1
265.5 699 m 1
 300 699.5 l 1
 58.5 0 l 1
 27 0 l 1
 265.5 699 l 1
381 942.5 m 1
 412.5 959 l 1
 517 799 l 1
 498 788 l 1
 381 942.5 l 1
EndSplineSet
EndChar

StartChar: uni0401
Encoding: 1025 1025 395
Width: 517
VWidth: 0
Flags: HW
LayerCount: 2
Fore
SplineSet
42.5 0 m 1
 52 31 l 1
 376.5 31 l 1
 366.5 0 l 1
 42.5 0 l 1
271 669.5 m 1
 280.5 700 l 1
 604.5 700 l 1
 594.5 669.5 l 1
 271 669.5 l 1
169 371 m 1
 179.5 402 l 1
 484 402 l 1
 474 371 l 1
 169 371 l 1
265.5 699 m 1
 300 699.5 l 1
 58.5 0 l 1
 27 0 l 1
 265.5 699 l 1
560 845.5 m 0
 562 855.5 579 870 590 869 c 0
 601.5 868 608.5 856 606.5 844.5 c 0
 604.5 834.5 587.5 820 576.5 821 c 0
 565 822 558 834 560 845.5 c 0
371.5 845.5 m 0
 373.5 855.5 390.5 870 401.5 869 c 0
 413 868 420.5 856 418.5 844.5 c 0
 416.5 834.5 399.5 820 388.5 821 c 0
 377 822 369.5 834 371.5 845.5 c 0
EndSplineSet
EndChar

StartChar: uni0403
Encoding: 1027 1027 396
Width: 409
VWidth: 0
Flags: HW
LayerCount: 2
Fore
SplineSet
258 699.5 m 1
 586 700 l 1
 574.5 669 l 1
 281.5 669 l 1
 50.5 0 l 1
 20.5 0 l 1
 258 699.5 l 1
635.5 939 m 1
 418 789 l 1
 404.5 801.5 l 1
 612 957.5 l 1
 635.5 939 l 1
EndSplineSet
EndChar

StartChar: uni040C
Encoding: 1036 1036 397
Width: 531
VWidth: 0
Flags: HW
LayerCount: 2
Fore
SplineSet
262.5 699 m 1
 296.5 699.5 l 1
 55 0 l 1
 23.5 0 l 1
 262.5 699 l 1
576 698.5 m 1
 621.5 698.5 l 1
 212 369 l 1
 392 0 l 1
 354 0 l 1
 173.5 374 l 1
 576 698.5 l 1
692 939 m 1
 475 789 l 1
 459.5 803 l 1
 669 958.5 l 1
 692 939 l 1
EndSplineSet
EndChar

StartChar: uni040D
Encoding: 1037 1037 398
Width: 696
VWidth: 0
Flags: HW
LayerCount: 2
Fore
SplineSet
786 672.5 m 1
 11.5 -38 l 1
 41 27.5 l 1
 815 738 l 1
 786 672.5 l 1
299 699.5 m 1
 62 11.5 l 1
 11.5 -38 l 1
 266.5 699.5 l 1
 299 699.5 l 1
815 738 m 1
 559.5 0 l 1
 527 0 l 1
 765 690 l 1
 815 738 l 1
436.5 918.5 m 1
 468.5 934.5 l 1
 571 774 l 1
 552.5 763 l 1
 436.5 918.5 l 1
EndSplineSet
EndChar

StartChar: uni040E
Encoding: 1038 1038 399
Width: 475
VWidth: 0
Flags: HW
LayerCount: 2
Fore
SplineSet
664 699.5 m 1
 113 0 l 1
 75 0 l 1
 248.5 223.5 l 1
 185.5 700 l 1
 219 700 l 1
 277.5 230 l 1
 260.5 232 l 1
 625.5 699.5 l 1
 664 699.5 l 1
341.5 908.5 m 1
 368.5 908.5 l 1
 359.5 847.5 381 797 450.5 796 c 0
 524.5 795 578 847 613 906.5 c 1
 641 906.5 l 1
 602.5 831 536 769 446.5 769.5 c 0
 360.5 770 329 831 341.5 908.5 c 1
EndSplineSet
EndChar

StartChar: uni0410
Encoding: 1040 1040 400
Width: 620
VWidth: 0
Flags: HW
LayerCount: 2
Fore
SplineSet
159 254 m 1
 176.5 284 l 1
 491.5 284.5 l 1
 490.5 253 l 1
 159 254 l 1
460 644 m 1
 190.5 273 l 1
 185.5 265 l 1
 -7.5 0 l 1
 -46.5 0 l 1
 483 723 l 1
 515.5 0 l 1
 480.5 0 l 1
 472.5 263 l 1
 472.5 271 l 1
 460 644 l 1
EndSplineSet
EndChar

StartChar: uni0411
Encoding: 1041 1041 401
Width: 488
VWidth: 0
Flags: HW
LayerCount: 2
Fore
SplineSet
170 389 m 1
 182 420 l 1
 311 420 l 1
 430 418.5 509.5 328.5 470.5 209.5 c 0
 429.5 85 305.5 1.5 178 0 c 1
 37 0 l 1
 48.5 31 l 1
 180 31 l 2
 290.5 32 401 103 438.5 210 c 0
 474 311 411.5 387 309.5 388.5 c 1
 170 389 l 1
258 699.5 m 1
 587.5 700 l 1
 577 669 l 1
 281.5 669 l 1
 50.5 0 l 1
 20.5 0 l 1
 258 699.5 l 1
EndSplineSet
EndChar

StartChar: uni0412
Encoding: 1042 1042 402
Width: 525
VWidth: 0
Flags: HW
LayerCount: 2
Fore
SplineSet
181.5 381.5 m 1
 187 400.5 l 1
 284.5 401 l 1
 371 405.5 460 448 490.5 534.5 c 0
 520 618.5 462.5 668 382.5 669.5 c 1
 288.5 670 l 1
 69 30 l 1
 167 30.5 l 1
 276 32 377.5 97 413.5 203 c 0
 445.5 297 383.5 369.5 289.5 371.5 c 1
 177.5 372 l 1
 183.5 391 l 1
 297 391.5 l 1
 403 390.5 478.5 309.5 445.5 201 c 0
 408 77 291 1.5 163.5 0 c 1
 25.5 0 l 1
 266.5 700 l 1
 386.5 700 l 1
 483 699 558.5 638 524 534.5 c 0
 491 434.5 390.5 385 290.5 381.5 c 2
 181.5 381.5 l 1
EndSplineSet
EndChar

StartChar: uni0413
Encoding: 1043 1043 403
Width: 409
VWidth: 0
Flags: HW
LayerCount: 2
Fore
SplineSet
258 699.5 m 1
 586 700 l 1
 574.5 669 l 1
 281.5 669 l 1
 50.5 0 l 1
 20.5 0 l 1
 258 699.5 l 1
EndSplineSet
EndChar

StartChar: uni0414
Encoding: 1044 1044 404
Width: 748
VWidth: 0
Flags: HW
LayerCount: 2
Fore
SplineSet
544.5 656.5 m 1
 89 15 l 1
 51.5 15 l 1
 569 737 l 1
 590.5 14 l 1
 558.5 14 l 1
 544.5 656.5 l 1
625 0 m 1
 13 0 l 1
 -26.5 -109 l 1
 -56 -109 l 1
 -6.5 31 l 1
 664 31 l 1
 614 -109 l 1
 584.5 -109 l 1
 625 0 l 1
EndSplineSet
EndChar

